<?xml version="1.0" encoding="utf-8"?>
<!-- Generator: Adobe Illustrator 21.0.0, SVG Export Plug-In . SVG Version: 6.00 Build 0)  -->
<svg version="1.1" xmlns="http://www.w3.org/2000/svg" xmlns:xlink="http://www.w3.org/1999/xlink" x="0px" y="0px"
	 viewBox="0 0 432 137.5" style="enable-background:new 0 0 432 137.5;" xml:space="preserve">
<style type="text/css">
	.st0{fill:none;}
	.st1{fill:#FFFFFF;}
	.st2{fill:#EAEAEA;}
	.st3{fill:#D8D8D8;}
</style>
<g id="Guides_For_Artboard">
</g>
<g id="Layer_1">
	<rect class="st0" width="432" height="137.5"/>
	<g>
		<g>
			<g>
				<path class="st1" d="M26.5,107.8h-2.2V103l-4.8-7.4h2.5l3.4,5.4l3.4-5.4h2.4l-4.8,7.3V107.8z"/>
				<path class="st1" d="M41.8,108c-3.7,0-6.3-2.8-6.3-6.3c0-3.4,2.6-6.3,6.4-6.3c3.7,0,6.3,2.8,6.3,6.3S45.6,108,41.8,108z
					 M41.8,97.4c-2.4,0-4.1,1.9-4.1,4.3s1.7,4.3,4.1,4.3c2.4,0,4.1-1.9,4.1-4.3C46,99.4,44.2,97.4,41.8,97.4z"/>
				<path class="st1" d="M64.8,102.6c0,3.6-2,5.5-5.2,5.5c-3.2,0-5.2-1.8-5.2-5.3v-7h2.1v6.9c0,2.3,1.2,3.5,3.1,3.5
					c1.9,0,3.1-1.1,3.1-3.4v-7h2.1V102.6z"/>
				<path class="st1" d="M79.4,107.8l-3-4.2h-2.7v4.2h-2.1V95.7H77c2.8,0,4.5,1.5,4.5,3.9c0,2-1.2,3.2-2.9,3.7l3.3,4.6H79.4z
					 M76.8,97.6h-3.1v4.1h3.1c1.5,0,2.5-0.8,2.5-2C79.3,98.3,78.4,97.6,76.8,97.6z"/>
				<path class="st1" d="M104.8,107.8l-3-4.2h-2.7v4.2H97V95.7h5.4c2.8,0,4.5,1.5,4.5,3.9c0,2-1.2,3.2-2.9,3.7l3.3,4.6H104.8z
					 M102.2,97.6h-3.1v4.1h3.1c1.5,0,2.5-0.8,2.5-2C104.7,98.3,103.8,97.6,102.2,97.6z"/>
				<path class="st1" d="M115.6,95.7v12.2h-2.1V95.7H115.6z"/>
				<path class="st1" d="M127.2,107.8h-4.5V95.7h4.5c3.8,0,6.5,2.6,6.5,6.1S131,107.8,127.2,107.8z M127.2,97.6h-2.4v8.3h2.4
					c2.6,0,4.2-1.7,4.2-4.1C131.4,99.4,129.7,97.6,127.2,97.6z"/>
				<path class="st1" d="M149.1,97.6h-6.9v3.2h6.1v1.9h-6.1v3.3h7v1.9h-9.1V95.7h9V97.6z"/>
				<path class="st1" d="M155.1,107.8v-2.4h2.3v2.4H155.1z"/>
				<path class="st1" d="M169,107.8h-2.2V103l-4.8-7.4h2.5l3.4,5.4l3.4-5.4h2.4L169,103V107.8z"/>
				<path class="st1" d="M184.3,108c-3.7,0-6.3-2.8-6.3-6.3c0-3.4,2.6-6.3,6.4-6.3c3.7,0,6.3,2.8,6.3,6.3S188,108,184.3,108z
					 M184.3,97.4c-2.4,0-4.1,1.9-4.1,4.3s1.7,4.3,4.1,4.3c2.4,0,4.1-1.9,4.1-4.3C188.4,99.4,186.7,97.4,184.3,97.4z"/>
				<path class="st1" d="M207.3,102.6c0,3.6-2,5.5-5.2,5.5c-3.2,0-5.2-1.8-5.2-5.3v-7h2.1v6.9c0,2.3,1.2,3.5,3.1,3.5
					c1.9,0,3.1-1.1,3.1-3.4v-7h2.1V102.6z"/>
				<path class="st1" d="M221.8,107.8l-3-4.2h-2.7v4.2h-2.1V95.7h5.4c2.8,0,4.5,1.5,4.5,3.9c0,2-1.2,3.2-2.9,3.7l3.3,4.6H221.8z
					 M219.3,97.6h-3.1v4.1h3.1c1.5,0,2.5-0.8,2.5-2C221.8,98.3,220.9,97.6,219.3,97.6z"/>
				<path class="st1" d="M246.7,95.6h1.8l3,9l2.9-9h2.2l-4.2,12.2h-1.8l-3-8.7l-3,8.7h-1.8l-4.2-12.2h2.3l2.9,9L246.7,95.6z"/>
				<path class="st1" d="M272.7,107.8h-2.3l-1.2-2.9h-5.7l-1.2,2.9H260l5.3-12.2h2L272.7,107.8z M266.3,98.1l-2.1,4.9h4.2
					L266.3,98.1z"/>
				<path class="st1" d="M282.4,107.8h-2.2V103l-4.8-7.4h2.5l3.4,5.4l3.4-5.4h2.4l-4.8,7.3V107.8z"/>
				<path class="st1" d="M290.3,107.8v-2.4h2.3v2.4H290.3z"/>
			</g>
			<g>
				<path class="st1" d="M36.3,52.3c-2.8-1-4.7-1.9-5.7-2.7c-1-0.9-1.5-2.1-1.5-3.7c0-1.5,0.5-2.8,1.5-3.7c1-1,2.2-1.5,3.8-1.5
					c1.6,0,2.9,0.5,3.8,1.4c0.9,0.9,1.5,2.3,1.7,4.2h9.5c-0.2-4.1-1.7-7.4-4.5-10.2c-2.8-2.7-6.2-4.1-10.2-4.1
					c-4.3,0-7.9,1.3-10.6,4c-2.8,2.7-4.1,6.2-4.1,10.4c0,3.7,0.9,6.6,2.8,8.8c1.9,2.2,5,4.1,9.5,5.6c3.6,1.2,6,2.4,7.3,3.5
					c1.3,1.1,1.9,2.7,1.9,4.8c0,1.8-0.6,3.4-1.9,4.5c-1.3,1.2-2.9,1.8-5,1.8c-2,0-3.5-0.6-4.7-1.7c-1.2-1.1-1.9-2.8-2.1-4.9h-9.7
					c0.4,4.5,2,8.2,5,11c3,2.8,6.8,4.2,11.2,4.2c4.8,0,8.7-1.5,11.7-4.5c3-3,4.6-6.8,4.6-11.5c0-3.9-1.1-7.1-3.3-9.5
					C45.1,56.2,41.5,54.1,36.3,52.3z"/>
				<path class="st1" d="M76,52.6c2.1,0,3.9,0.5,5.4,1.4c1.5,0.9,2.7,2.3,3.6,4h10c-1.3-4.1-3.6-7.4-7.1-9.9
					c-3.4-2.5-7.4-3.7-11.9-3.7c-5.5,0-10.2,2-14.1,5.9c-3.9,3.9-5.8,8.6-5.8,14.2s1.9,10.3,5.8,14.2c3.9,3.9,8.5,5.8,14.1,5.8
					c4.4,0,8.3-1.2,11.7-3.7c3.4-2.4,5.7-5.7,7-9.8h-10c-0.8,1.6-2,2.9-3.5,3.8c-1.5,0.9-3.1,1.4-4.9,1.4c-3.1,0-5.8-1.2-7.9-3.5
					c-2.1-2.3-3.2-5.2-3.2-8.6c0-3.2,1-5.9,3.1-8.2C70.5,53.7,73.1,52.6,76,52.6z"/>
				<path class="st1" d="M164.7,44.3c-5.5,0-10.2,2-14.1,5.9c-3.9,3.9-5.8,8.6-5.8,14.2s1.9,10.3,5.8,14.2c3.9,3.9,8.6,5.8,14.1,5.8
					c5.5,0,10.3-1.9,14.2-5.8c3.9-3.9,5.8-8.6,5.8-14.2s-1.9-10.3-5.8-14.2C175,46.3,170.3,44.3,164.7,44.3z M172.5,72.8
					c-2.1,2.2-4.7,3.4-7.8,3.4c-3.1,0-5.7-1.1-7.8-3.4c-2.1-2.2-3.1-5-3.1-8.4s1-6.2,3.1-8.4c2.1-2.3,4.7-3.4,7.8-3.4
					c3.1,0,5.7,1.1,7.8,3.4c2.1,2.3,3.1,5.1,3.1,8.4S174.6,70.5,172.5,72.8z"/>
				<polygon class="st1" points="202.5,33 193.5,33 193.5,45.6 189.1,45.6 189.1,53.5 193.5,53.5 193.5,83.1 202.5,83.1 202.5,53.5 
					207.9,53.5 207.9,45.6 202.5,45.6 				"/>
				<path class="st1" d="M231,44.3c-5.4,0-10,2-13.9,5.9c-3.8,3.9-5.7,8.6-5.7,14.2s1.9,10.3,5.7,14.2c3.8,3.9,8.4,5.8,13.9,5.8
					c4.4,0,8.2-1.2,11.6-3.5c3.3-2.4,5.6-5.5,6.8-9.5h-9.5c-0.7,1.5-1.9,2.7-3.5,3.5c-1.6,0.9-3.3,1.3-5.2,1.3
					c-3.1,0-5.6-1.1-7.7-3.4c-1.2-1.3-2-2.8-2.5-4.4h29.3c0.2-1.3,0.3-2.6,0.3-4c0-5.5-1.9-10.3-5.7-14.2
					C241.1,46.3,236.5,44.3,231,44.3z M220.8,61.1c0.5-2,1.4-3.7,2.7-5.2c2-2.3,4.5-3.4,7.5-3.4c3,0,5.5,1.1,7.5,3.4
					c1.3,1.5,2.2,3.2,2.7,5.2H220.8z"/>
				<path class="st1" d="M295.3,64.4c0-5.5-1.9-10.3-5.7-14.2c-3.8-3.9-8.5-5.9-13.9-5.9c-5.4,0-10,2-13.9,5.9
					c-3.8,3.9-5.7,8.6-5.7,14.2s1.9,10.3,5.7,14.2c3.8,3.9,8.4,5.8,13.9,5.8c4.4,0,8.2-1.2,11.6-3.5c3.3-2.4,5.6-5.5,6.8-9.5h-9.5
					c-0.7,1.5-1.9,2.7-3.5,3.5c-1.6,0.9-3.3,1.3-5.2,1.3c-3.1,0-5.6-1.1-7.7-3.4c-1.2-1.3-2-2.8-2.5-4.4H295
					C295.2,67,295.3,65.7,295.3,64.4z M265.4,61.1c0.5-2,1.4-3.7,2.7-5.2c2-2.3,4.5-3.4,7.5-3.4c3,0,5.5,1.1,7.5,3.4
					c1.3,1.5,2.2,3.2,2.7,5.2H265.4z"/>
				<path class="st1" d="M120.1,44.3c-5.5,0-10.2,2-14.1,5.9c-3.9,3.9-5.8,8.6-5.8,14.2s1.9,10.3,5.8,14.2c3.9,3.9,8.6,5.8,14.1,5.8
					c5.5,0,10.3-1.9,14.2-5.8c3.9-3.9,5.8-8.6,5.8-14.2s-1.9-10.3-5.8-14.2C130.3,46.3,125.6,44.3,120.1,44.3z M113.7,80.3l6.9-14.5
					l-8.6,1.4l13.5-18l-5.5,13.5l9.3-1.4L113.7,80.3z"/>
			</g>
		</g>
		<path class="st1" d="M322.5,88.8c-3.4-0.1-6,1.9-7.2,3.1c-1.9,1.9-3.1,4.3-3.1,6.3c0,1.2-0.9,2.1-2.1,2.1c-1.2,0-2.1-0.9-2.1-2.1
			c0-3.1,1.6-6.6,4.4-9.2c2.9-2.8,6.5-4.4,10.2-4.3c6.1,0.1,10.4,4.3,12.9,7.9L351.9,27H318l-20.1,83.4H331l3.1-12.2
			C333,96,329,88.9,322.5,88.8z M322.7,105.6c-4.1,0-7.4-3.3-7.4-7.4c0-4.1,3.3-7.4,7.4-7.4c4.1,0,7.4,3.3,7.4,7.4
			C330.2,102.3,326.8,105.6,322.7,105.6z"/>
		<g>
			<path class="st2" d="M363.2,27h-11.3l-16.4,65.4c1,1.3,1.7,2.6,2.1,3.5h27l2.4-3.4l6.5-25.8l-10.4-39.3
				C363.2,27.3,363.2,27.2,363.2,27z"/>
			<path class="st2" d="M334.4,98.9c0,0-0.1-0.3-0.3-0.7l-3.1,12.2h31.6l2.6-10.3h-28.9C335.5,100.2,334.7,99.6,334.4,98.9z"/>
			<polygon class="st2" points="374.3,27 367.8,28.5 375.7,58.4 383.6,27 			"/>
		</g>
		<g>
			<path class="st3" d="M376.9,79.1l-3.3-12.3l-6.5,25.8l9.5-13.3C376.7,79.2,376.8,79.2,376.9,79.1z"/>
			<path class="st3" d="M383.6,27l-7.9,31.3l8.5,32.4c4,0.1,7.2,3.4,7.2,7.4c0,4.1-3.3,7.4-7.4,7.4s-7.4-3.3-7.4-7.4
				c0-2.7,1.4-5,3.6-6.3l-2-7.5l-10.8,15c-0.4,0.5-1,0.9-1.7,0.9h-0.5l-2.6,10.3h31.2L413.9,27H383.6z"/>
		</g>
	</g>
</g>
</svg>
