<?xml version="1.0" encoding="utf-8"?>
<!-- Generator: Adobe Illustrator 21.0.0, SVG Export Plug-In . SVG Version: 6.00 Build 0)  -->
<svg version="1.1" id="Layer_1" xmlns="http://www.w3.org/2000/svg" xmlns:xlink="http://www.w3.org/1999/xlink" x="0px" y="0px"
	 viewBox="0 0 375 166" style="enable-background:new 0 0 375 166;" xml:space="preserve">
<style type="text/css">
	.st0{fill:#D8E100;}
	.st1{fill:#8F9287;}
</style>
<g>
	<path class="st0" d="M0.3,58.4c0.4-0.2,0.3-0.6,0.4-0.9c0.9-4.7,7.4-7,11.4-4.1C24.8,62.3,37.9,70.5,50.9,79
		c7.5,4.9,15,9.8,22.5,14.7c3.2,2.1,6.6,3.7,10.5,4c2.7,0.2,5.1-0.4,7.5-1.5c9.5-4.3,18.9-8.9,28.2-13.6
		c9.6-4.8,18.5-10.7,27.6-16.3c5.2-3.2,10.1-6.8,15.5-9.8c3.5-2,7.1-3.5,11.1-4.3c6.4-1.3,11.8,2.5,12.8,9.1c0.2,1,0.2,2.1,0.2,3.1
		c0,10.4,0,20.8,0,31.2c0,2.2,0.8,2.7,2.9,1.9c3.7-1.5,7.1-3.7,10.3-6.1c5.9-4.5,11.3-9.6,16.6-14.6c6.7-6.4,13.2-13,20.6-18.7
		c2.6-2.1,5.3-4,8.5-5.1c6.8-2.5,13.3,1.2,14.6,8.3c0.5,2.9,0.4,5.8,0.3,8.7c-0.1,4.3-0.1,8.6-0.1,13c0,4.4,0.1,8.9,0.1,13.3
		c0,1.4,0.3,1.7,1.7,1.5c3-0.4,5.8-1.7,8.5-3.1c6.4-3.2,11.9-7.7,17.2-12.5c8.1-7.3,15.6-15.2,22.8-23.5c0.6-0.6,0.6-1-0.1-1.6
		c-8.4-7.5-16.8-15.1-25.2-22.6c-4.8-4.4-9.7-8.7-14.5-13.1c-3.3-2.9-3.5-7.4-0.7-10.8c2.4-2.9,7.1-3.2,10.3-0.6
		c3.2,2.6,6.2,5.5,9.2,8.2c9.2,8.3,18.4,16.6,27.6,24.9c2,1.8,3.9,3.6,5.9,5.3c5.5,4.5,5.3,11.4,1.7,16.4c-2.6,3.6-5.8,6.8-8.7,10.2
		c-8.4,9.5-17.7,18-27.6,25.9c-6.7,5.3-14.2,9.3-22.5,11.7c-7.2,2.1-15.6-1.8-18.5-6.9c-1.4-2.4-2.1-5-2.1-7.7
		c-0.1-7.6,0-15.2,0-22.8c0-1.2,0.1-2.4,0.1-3.6c0-0.3,0.2-0.8-0.2-1c-0.4-0.2-0.6,0.3-0.9,0.5c-4.1,3.5-8,7.2-11.8,10.9
		c-7.9,7.5-15.7,15.3-24.6,21.8c-4.8,3.6-10,6.6-15.7,8.5c-8.5,2.8-18-1.9-20.4-10.2c-0.4-1.4-0.6-2.8-0.6-4.2c0-9.2,0-18.4,0-27.6
		c0-0.4,0-0.8,0-1.4c-2.1,1.1-4,2.3-5.9,3.4c-7.8,4.8-15.2,10.2-22.8,15.2c-12.3,8-25,15.3-38.6,20.9c-4.5,1.8-9,3.6-13.9,4.4
		c-8.1,1.2-15.7-0.1-22.6-4.7C51.3,96.9,34.8,86.2,18.3,75.6C14,72.9,9.9,70,5.7,67.2c-2.6-1.7-4.6-3.7-5.4-6.8
		C0.3,59.7,0.3,59.1,0.3,58.4z"/>
	<path class="st0" d="M189.4,166.2c-1.9-0.9-2.5-2.3-2.5-4.4c0.1-4.4,0-8.7,0-13.1c0-3.4,2.4-4.8,5.4-3.1c4,2.2,7.9,4.5,11.9,6.8
		c2.8,1.6,2.8,4.5,0.1,6.1c-4,2.4-8.1,4.7-12.1,7.1c-0.4,0.2-0.8,0.4-1.2,0.6C190.4,166.2,189.9,166.2,189.4,166.2z"/>
	<path class="st1" d="M314.4,105.2c0-1.9,0.6-3.6,2-4.9c3.8-3.7,7.6-7.4,11.5-11c2.6-2.4,5.2-4.8,7.7-7.3c5-4.8,10.2-9.4,14.9-14.5
		c2.8-3,5.6-6.1,8.6-9c0.5-0.5,0.5-1,0-1.4c-2.4-2-4.5-4.3-7-6.3c-1.8-1.4-3.4-3-5.1-4.5c-3.1-2.8-6.3-5.5-9.4-8.2
		c-0.9-0.8-1.8-1.7-2.7-2.5c-3.1-2.8-6.1-5.8-9.1-8.6c-2.3-2.2-4.7-4.3-7-6.5c-2.8-2.6-2.5-6.6-0.5-9.3c3.1-4.2,8-3.5,11-0.7
		c3.9,3.6,7.7,7.2,11.5,10.8c3.2,3,6.4,6.1,9.7,9c3.3,2.9,6.8,5.8,10.2,8.6c2.6,2.2,5.2,4.3,7.7,6.6c1.6,1.5,3.3,2.9,4.6,4.6
		c2.9,3.8,3,9.4,0.6,13.5c-1.3,2.1-3.2,3.8-4.7,5.6c-2.8,3.5-6.4,6.2-9.5,9.5c-4.2,4.5-8.6,8.8-12.9,13.2c-2.9,2.8-5.7,5.7-8.7,8.4
		c-3.3,3-6.5,6.1-9.7,9.2c-1.8,1.7-3.7,3.3-6.4,3.2C318,112.3,314.4,109.5,314.4,105.2z"/>
	<path class="st0" d="M79.3,134.8c0-3.5,0-7,0-10.5c0-3,2.6-4.5,5.2-3.1c4.1,2.3,8.2,4.6,12.3,7c2.5,1.5,2.5,4.4,0,5.9
		c-4,2.4-8,4.7-12.1,7.1c-2.6,1.5-5.2,0.1-5.3-2.9C79.4,137.1,79.4,135.9,79.3,134.8C79.4,134.8,79.3,134.8,79.3,134.8z"/>
	<path class="st0" d="M260.7,129.4c0-1.8,0-3.5,0-5.3c0-3,2.5-4.5,5.1-3c4.1,2.3,8.3,4.7,12.4,7c2.4,1.4,2.5,4.4,0.1,5.8
		c-4.1,2.5-8.2,4.9-12.4,7.3c-2.5,1.4-5-0.1-5.1-3c0-3,0-5.9,0-8.9C260.8,129.4,260.8,129.4,260.7,129.4z"/>
	<path class="st0" d="M186.9,131.2c0-2.3,0-4.6,0-7c0-3.1,2.4-4.6,5.1-3.1c4.1,2.3,8.3,4.7,12.4,7c2.5,1.4,2.5,4.4,0,5.8
		c-4.1,2.4-8.2,4.8-12.3,7.2c-2.6,1.5-5.4-0.3-5.2-3.1C187.1,135.8,187,133.5,186.9,131.2C187,131.2,186.9,131.2,186.9,131.2z"/>
</g>
</svg>
