<?xml version="1.0" encoding="utf-8"?>
<!-- Generator: Adobe Illustrator 21.0.0, SVG Export Plug-In . SVG Version: 6.00 Build 0)  -->
<svg version="1.1" id="Component_4_1" xmlns="http://www.w3.org/2000/svg" xmlns:xlink="http://www.w3.org/1999/xlink" x="0px"
	 y="0px" viewBox="0 0 151.2 172.5" style="enable-background:new 0 0 151.2 172.5;" xml:space="preserve">
<style type="text/css">
	.st0{fill:#EDFE03;}
</style>
<circle class="st0" cx="75.6" cy="86.2" r="75.6"/>
<path id="Path_10584" d="M116.4,75.1c-7.1-27.4-55.6-13.6-74,10.4c15.1-27,67.8-40.5,74.1-12.2C116.6,73.9,116.6,74.5,116.4,75.1
	c0,0,10.4-21.5-18.4-24.8c-9.3-25.7-46.7-7-55.9-15.1l0,0c0,0,1.1,13.8,17.4,13.2C39,56.9,32.3,70.9,31.1,83.8
	c-0.7,10,1,19.9,5,29.1C35.8,75.2,98.2,49.7,116.4,75.1"/>
<path id="Path_10585" d="M77.3,132.5l0.2,0.5L77.3,132.5"/>
<path id="Path_10586" d="M77.6,133l0.2,0.3l-0.2-0.5l0,0"/>
<path id="Path_10587" d="M64.9,126.1L64.9,126.1c-13.8-13.7-5.5-38.9,8.1-48.7l0,0c-15.8,16.4-17.4,42.3,4.2,55l-0.2-0.5l0,0
	l-0.3-0.5l0,0l-0.3-0.5v-0.1l-0.3-0.5l-0.1-0.2l-0.2-0.4l-0.1-0.3l-0.2-0.4l-0.1-0.3l-0.3-0.3l-0.3-0.6v-0.2l-0.6-1.3l0,0
	c-2.3-5.3-3.9-10.9-4.8-16.6l0,0c-0.1-0.4-0.1-0.9-0.2-1.3l0,0c0-0.6-0.1-1.3-0.2-1.8v-8.5c0-0.3,0-0.6,0.1-0.9v-0.3
	c0-0.3,0-0.7,0.1-1v-0.2c0-0.3,0.1-0.6,0.2-1l0,0c0.1-0.4,0.1-0.7,0.2-1.1v-0.1c0.2-0.7,0.3-1.5,0.5-2.2l0,0
	c0.1-0.4,0.2-0.8,0.3-1.1l0,0c0.2-0.8,0.5-1.5,0.8-2.3l0,0c1.2-3.2,2.8-6.3,4.7-9.1l0,0c0.5-0.7,1-1.4,1.6-2.1v-0.1l0.8-1l0.1-0.2
	l0.8-0.9l0.1-0.1l0.8-0.9l0.3-0.3l0.8-0.8l0.4-0.4l0.5-0.5l0.6-0.6l0.6-0.5l0.7-0.6l0.2-0.2l0.6-0.5l0,0c-8,1-15.7,4-22.4,8.6
	l-0.1,0.1l-0.4,0.3l-0.3,0.2l-0.3,0.2l-0.4,0.3l-0.1,0.1c-13.5,10.6-17.6,27.3-10.9,40l0.2,0.3l0.2,0.3c4.7,8.5,14.4,15.2,29.3,17.2
	c-5.8-2.5-10.9-6.2-15-10.9"/>
<path id="Path_10588" d="M77.8,133.4v0.1l0.1,0.3L77.8,133.4"/>
<path id="Path_10589" d="M78,133.8L78,133.8v0.1l-0.1-0.2"/>
<path id="Path_10590" d="M78.3,134.3L78.3,134.3"/>
<path id="Path_10591" d="M80.2,86.5c1.1,18.3,11.7,31,31.8,28.7c2.7,0.8,5.5,1.4,8.3,1.8c-5-0.9-9.8-2.3-14.5-4.1
	c-8-3.1-14.8-8.7-19.4-16c-3.2-6-4.8-12.8-4.6-19.6l0,0c-2,3.4-3.5,6.9-4.7,10.6c-1.9,6-2.3,12.5-1.2,18.7l0,0l0.1,0.5v0.6l0.1,0.6
	l0,0c0.8,3,2.1,5.9,3.9,8.5l0,0l0.2,0.3l0.1,0.1l0.2,0.2l0.2,0.2l0.1,0.1l0.2,0.3l0,0c5.9,7.1,15.8,10,27.7,5.1l0,0l0.7-0.3l0.3-0.1
	l0.4-0.2l0.6-0.3h0.1c3.2-1.6,6.3-3.4,9.1-5.6l0,0c-16.7,8.1-44.2-0.2-40.1-30.6"/>
</svg>
