<?xml version="1.0" encoding="utf-8"?>
<!-- Generator: Adobe Illustrator 16.0.0, SVG Export Plug-In . SVG Version: 6.00 Build 0)  -->
<!DOCTYPE svg PUBLIC "-//W3C//DTD SVG 1.1//EN" "http://www.w3.org/Graphics/SVG/1.1/DTD/svg11.dtd">
<svg version="1.1" id="Layer_1" xmlns="http://www.w3.org/2000/svg" xmlns:xlink="http://www.w3.org/1999/xlink" x="0px" y="0px"
	 width="1071.75px" height="593.75px" viewBox="0 0 1071.75 593.75" enable-background="new 0 0 1071.75 593.75"
	 xml:space="preserve">
<g>
	<path fill="#E46A3C" d="M480.663,295.783c0.276-6.559-1.126-16.843,6.693-21.412c7.916-4.625,14.751,3.676,21.361,7.712
		c16.268,9.931,16.021,21.631-0.325,30.652c-0.337,0.186-0.666,0.393-0.984,0.61C489.352,325.698,481.654,328.17,480.663,295.783"/>
	<path fill="#E46A3C" d="M544.096,251.016c0.015,3.09,0.18,6.19-0.016,9.267c-0.643,10.112-11.616,16.931-20.829,12.81
		c-3.855-1.725-7.403-4.132-11.104-6.207c-16.439-9.218-16.777-14.116-1.507-25.782c2.7-2.062,5.882-3.561,8.982-5.019
		C538.696,227.116,544.073,230.424,544.096,251.016"/>
	<path fill="#E46A3C" d="M570.363,317.706c11.078,4.347,20.679,9.964,28.968,17.445c1.817,1.64,1.677,6.455-0.932,8.525
		c-9.652,7.659-19.304,15.582-31.706,18.432c-6.366,1.463-10.87-1.11-11.216-8.075c-0.364-7.341-0.317-14.722-0.021-22.069
		C555.848,322.328,564.726,321.876,570.363,317.706"/>
	<path fill="#E46A3C" d="M541.547,344.386c0,3.1-0.041,6.201,0.009,9.3c0.134,8.479-4.505,11.26-12.011,9.245
		c-11.024-2.959-20.715-8.689-28.932-16.562c-5.238-5.017-5.153-10.227,1.518-14.275c4.629-2.809,9.303-5.553,14.055-8.144
		c14.507-7.909,25.359-1.654,25.483,14.621c0.015,1.938,0.002,3.877,0.002,5.815H541.547z"/>
	<path fill="#E46A3C" d="M615.613,297.96c-0.293,25.829-5.142,28.761-27.037,16.352c-17.651-10.004-17.626-21.142,0.07-31.614
		c0.332-0.196,0.618-0.49,0.969-0.635c6.433-2.662,11.051-10.782,19.614-6.928C612.763,276.725,615.723,288.401,615.613,297.96"/>
	<path fill="#E46A3C" d="M565.593,233.235c13.396,2.978,24.967,9.681,34.36,19.89c3.83,4.162,1.492,8.235-2.426,10.758
		c-6.813,4.389-13.729,8.782-21.07,12.149c-8.681,3.982-19.033-3.828-18.854-13.382c0.134-7.175-0.049-14.357-0.13-21.536
		C557.413,235.787,560.224,233.408,565.593,233.235"/>
	<path fill="#E46A3C" d="M77.216,386.613c0.616,9.324-0.303,18.537-2.148,27.679c-1.152,5.708,0.663,9.101,7.171,8.345
		c0.383-0.044,0.775-0.022,1.162-0.016c26.479,0.415,26.366,0.382,33.932-25.157c4.742-16.007,10.532-31.525,21.98-44.294
		c8.998-10.035,21.406-14.648,30.852-10.665c12.121,5.113,13.641,16.092,13.709,27.108c0.167,27.611-15.932,45.653-37.806,58.758
		c-7.839,4.697-11.004,9.082-10.717,17.859c0.267,8.17,0.804,16.21,2.81,24.096c3.44,13.525,14.428,18.491,26.795,11.703
		c5.002-2.745,9.41-6.7,13.735-10.505c3.384-2.978,6.092-8.498,11.353-4.774c5.355,3.791,4.17,9.628,1.333,14.647
		c-7.186,12.707-17.971,21.237-32.033,24.92c-22.162,5.804-42.456-7.377-47.548-30.6c-1.906-8.691-3.309-17.568-2.463-26.48
		c0.685-7.209-2.462-8.578-8.751-7.697c-7.638,1.07-15.346,1.786-23.048,2.2c-6.062,0.326-8.63,3.021-9.763,9.073
		c-2.414,12.89-5.84,25.589-8.629,38.415c-0.84,3.863-2.077,7.445-4.392,10.611c-3.758,5.138-8.586,7.832-15.051,5.766
		c-6.816-2.182-8.655-7.537-7.409-13.813c2.551-12.861,5.331-25.692,8.534-38.406c1.461-5.798,1.327-8.841-5.935-7.98
		c-7.099,0.841-13.026-2.277-13.25-9.661c-0.241-7.938,4.967-13.312,13.281-12.674c10.854,0.835,13.687-4.276,14.627-14.105
		c0.921-9.627,2.236-19.154,1.959-28.873c-0.156-5.471-1.278-10.319-6.993-11.97c-5.657-1.633-11.307-1.66-15.76,3.577
		c-4.74,5.578-9.724,10.954-14.729,16.299c-2.383,2.545-4.967,5.236-9.001,3.164c-4.116-2.114-4.558-5.908-4.266-9.964
		c0.028-0.382,0.042-0.776,0.144-1.142c4.331-15.581,39.185-43.067,60.643-34.083c9.901,4.145,14.105,11.701,15.518,21.252
		C77.902,374.903,77.216,380.81,77.216,386.613 M139.586,412.837c21.488-9.586,26.924-25.968,27.668-45
		c0.119-3.026,0.176-6.47-3.59-7.631c-3.806-1.173-6.753,0.438-8.803,3.704C145.755,378.423,141.56,394.399,139.586,412.837"/>
	<path fill="#E46A3C" d="M693.116,211.444c-2.2-31.852-11.314-61.392-31.087-87.012c-24.286-31.467-57.572-50.092-93.916-63.296
		c-19.688-7.153-40.281-12.483-63.035-13.131c9.065,10.824,17.721,20.007,25.035,30.158c11.318,15.711,19.459,32.724,14.623,53.043
		c-0.945,3.965-0.388,9.387-5.354,10.677c-4.347,1.13-6.789-3.387-9.101-6.154c-6.771-8.108-15.709-12.973-24.611-18.078
		c-25.556-14.658-54.376-19.437-82.197-27.11c-40.682-11.221-68.881-35.202-81.15-76.412c-1.207-4.052-3.145-7.887-5.364-13.349
		c-1.515,5.665-2.605,9.362-3.49,13.106c-6.918,29.283-9.769,59.045-4.825,88.711c5.858,35.152,24.253,63.512,51.826,86.154
		c7.393,6.07,13.652,13.559,20.177,20.63c2.594,2.811,5.584,6.661,3.558,10.307c-1.822,3.278-6.346,1.674-9.696,1.351
		c-8.078-0.781-16.133-2.594-24.196-2.59c-31.475,0.014-56.576,12.998-77.477,39.401c51.679,0.762,90.054,22.939,120.23,61.385
		c6.172,7.863,7.936,12.543-1.259,18.798c-5.038,3.427-7.769,9.475-10.461,15.128c-16.298,34.225-22.464,70.502-21.978,108.114
		c0.137,10.569-7.702,21.625-17.595,24.049c-2.599,0.638-5.684,1.536-7.607-0.943c-1.538-1.983-0.031-4.314,0.908-6.437
		c2.65-5.989,5.154-11.948,6.369-18.54c2.713-14.714,1.506-28.56-11.701-37.404c-12.931-8.662-24.217-1.807-34.092,7.83
		c-4.183-12.828-11.521-15.458-21.399-8.656c-6.291,4.332-3.098,10.509-3.759,15.913c-0.698,5.711,2.374,12.651-6.909,14.749
		c-9.761,2.206-9.233-5.398-11.298-10.695c-7.422-19.041-25.282-27.27-44.203-20.337c-18.429,6.755-28.312,23.709-28.326,48.596
		c-0.012,20.094,11.368,34.486,30.218,38.22c15.485,3.066,34.131-7.855,39.665-24.825c3.045-9.339,7.878-12.319,18.162-9.992
		c-14.078,19.272-21.661,40.932-27.842,63.122c-4.081,14.65-6.722,29.574-1.636,44.539c4.104,12.073,17.469,16.481,28.328,9.623
		c5.371-3.394,8.998-8.258,11.622-14.084c10.024-22.26,12.827-45.989,14.502-69.995c3.762-0.258,8.105,2.503,10.99-0.665
		c5.757-6.323,11.636-3.197,16.579-0.086c5.377,3.384,10.506,3.078,16.146,2.406c9.316-1.111,16.526-6.351,23.508-11.887
		c3.377-2.678,5.23-4.109,9.239,0.035c13.615,14.082,24.797,15.845,42.458,6.864c5.704-2.901,9.799-4.474,15.303,0.512
		c7.458,6.757,16.816,6.71,24.89,1.779c8.537-5.212,14.324-11.277,24.363-0.165c7.274,8.052,18.474,2.398,26.142-4.14
		c9.214-7.857,20.919-14.738,19.451-29.489c-0.679-6.807-5.123-8.732-10.47-3.927c-4.572,4.109-8.219,9.233-12.618,13.56
		c-3,2.951-6.64,6.368-11.193,4.213c-4.256-2.015-3.299-6.838-2.786-10.431c1.744-12.222,3.972-24.374,6.106-36.538
		c0.691-3.938,1.424-9.521-2.361-10.375c-9.779-2.207-17.862-9.834-28.539-8.709c-10.064,1.061-18.248,5.865-25.473,12.681
		c-11.833,11.161-17.481,25.173-19.336,41.042c-0.985,8.437-7.556,11.221-14.436,12.9c-5.003,1.221-9.826,0.543-13.362-4.393
		c-4.743-6.623-1.209-11.515,2.549-16.685c2.954-4.064,5.934-8.16,8.386-12.532c18.051-32.166,35.434-64.564,30.902-103.486
		c0.317-6.868-4.012-11.661-7.513-16.824c-7.039-3.43-18.102,1.155-20.134-12.176c-5.463-35.851,0.381-68.878,20.552-99.467
		c51.453-78.026,170.988-76.746,220.78,2.372c11.293,17.943,17.662,37.504,21.676,60.784
		C691.589,257.719,694.729,234.795,693.116,211.444 M236.528,489.293c-9.568,0-17.324-11.674-17.324-26.076
		c0-14.4,7.756-26.074,17.324-26.074c2.623,0,5.101,0.904,7.33,2.476c-0.484,2.253-0.756,4.627-0.756,7.09
		c0,9.871,4.172,18.405,10.253,22.608C251.528,480.77,244.697,489.293,236.528,489.293 M283.165,564.748
		c-0.613,2.979-0.753,8.019-5.176,7.758c-4.907-0.292-5-5.266-5.058-8.947c-0.324-20.35,7.795-38.494,14.693-56.964
		C289.792,526.376,287.096,545.638,283.165,564.748 M337.656,449.691c0.088,12.66-2.897,24.298-13.332,32.829
		c-2.348,1.919-4.37,5.438-7.62,4.313c-4.225-1.461-2.208-5.91-2.619-9.079c-0.344-2.653-0.071-5.385-0.071-7.472
		c0.621-8.932-0.606-17.271,4.231-25.218c3.505-5.76,7.951-6.838,13.483-6.173C338.272,439.679,337.626,445.433,337.656,449.691
		 M476.208,440.385c2.414-1.896,5.62-3.766,8.466-2.533c3.791,1.645,1.653,5.555,1.118,8.187
		c-2.284,11.242-3.28,22.868-8.125,33.427c-2.298,5.009-5.935,9.656-12.513,7.528c-5.972-1.934-5.157-7.844-5.983-11.714
		C460.594,460.932,465.211,449.015,476.208,440.385 M427.021,350.527c4.961,0.974,4.875,7.167,4.695,10.816
		c-1.437,29.143-11.571,55.424-27.794,79.51c1.057-28.197,4.988-55.672,15.018-81.931
		C420.381,355.146,421.86,349.514,427.021,350.527"/>
	<path fill="#00A8E7" d="M548.796,275.942c-11.833-0.107-21.994,9.866-21.853,21.445c0.139,11.255,9.89,20.737,21.368,20.778
		c12.001,0.043,22.196-9.92,21.948-21.448C570.016,285.402,560.349,276.046,548.796,275.942 M548.47,306.706
		c-5.248-0.019-9.706-4.354-9.771-9.5c-0.064-5.294,4.582-9.854,9.992-9.805c5.282,0.047,9.702,4.325,9.813,9.498
		C558.617,302.17,553.957,306.726,548.47,306.706"/>
	<path fill="#00A8E7" d="M746.584,367.294c-11.625-2.417-23.431-2.893-35.212-3.488c-23.718-1.196-47.344,0.63-71.427,3.6
		c0.199-0.383,0.402-0.753,0.603-1.132c14.274-19.12,22.727-42.84,22.727-68.535c0-63.332-51.34-114.672-114.671-114.672
		c-63.332,0-114.672,51.34-114.672,114.672c0,11.916,1.82,23.406,5.193,34.211c0.048,0.482,0.109,0.961,0.152,1.443
		c0.214,0.315,0.435,0.625,0.653,0.937c15.277,45.381,58.142,78.08,108.674,78.08c16.133,0,31.479-3.346,45.405-9.359
		c1.357,0.591,1.683,2.369,1.917,5.242c0.492,6.033,1.277,12.235,4.874,17.41c3.532,5.084,8.278,8.789,14.432,4.847
		c4.909-3.144,9.717-6.285,5.463-14.542c-5.394-10.466,0.056-18.994,10.986-24.57c9.464-4.828,19.925,1.066,29.249-4.51
		c2.815-1.684,4.123,3.738,2.869,5.483l-10.492,57.015c-2.967,19.034-5.385,38.158-7.789,57.277
		c-1.007,8.015,0.848,14.603,10.646,15.354c10.274,0.786,15.668-3.706,16.844-14.012c0.646-5.67,1.173-11.353,1.825-17.022
		c3.695-32.119,10.397-63.742,15.457-95.62c1.438-9.062,4.403-9.42,11.043-9.022c14.073,0.845,28.168,1.339,42.233,2.306
		c7.435,0.512,14.389-2.561,15.31-8.936C759.8,373.348,753.661,368.766,746.584,367.294 M548.604,370.429
		c-41.411,0-74.98-33.569-74.98-74.979c0-41.411,33.569-74.98,74.98-74.98c41.409,0,74.979,33.569,74.979,74.98
		C623.582,336.86,590.013,370.429,548.604,370.429"/>
	<path fill="#00A8E7" d="M977.634,470.485c-3.863-5.339-9.365-3.619-13.374,0.923c-2.812,3.184-5.91,2.731-9.104,1.549
		c-4.107-1.521-3.794-5.261-3.437-8.597c0.637-5.954,1.904-11.85,2.374-17.812c0.571-7.246-2.429-10.283-10.426-10.981
		c-15.046-1.317-22.43,8.507-30.331,18.081c-2.516,3.049-4.424,8.653-8.84,6.341c-4.786-2.505,0.053-6.914,0.756-10.482
		c0.14-0.713,0.916-1.427,0.812-2.042c-0.72-4.265,6.422-9.646-0.915-12.672c-5.924-2.441-12.258-0.884-16.359,4.299
		c-2.459,3.11-4.115,7.285-4.875,11.225c-2.066,10.694-3.485,21.517-5.117,32.296c-1.209,7.985-12.944,19.389-18.229,16.774
		c-8.32-4.116-3.889-11.89-2.937-17.928c1.93-12.247,5.138-24.287,7.382-36.493c1.723-9.369-2.257-12.692-11.317-10.229
		c-5.217,1.418-7.771,4.591-9.446,9.919c-4.389,13.953-8.196,28.179-15.984,40.873c-2.891,4.714-5.89,8.299-12.349,7.173
		c-0.542-15.654,3.745-30.526,6.704-45.599c0.853-4.345,5.019-10.153-2.301-12.383c-6.369-1.938-13.054-1.087-16.586,5.782
		c-2.559,4.975-5.797,10.373-5.921,15.649c-0.2,8.528-5.549,9.808-11.473,10.758c-7.315,1.171-5.697-5.448-6.96-9.153
		c-7.864-23.074-31.743-31.367-51.827-17.243c-17.264,12.14-21.03,29.797-18.808,49.777c2.128,19.139,20.868,34.349,41.041,29.568
		c14.381-3.409,24.03-12.518,27.62-26.724c1.414-5.6,3.134-9.184,8.923-9.264c7.371-0.103,6.335,5.879,7.021,10.547
		c0.547,3.723,0.807,7.574,1.992,11.098c2.487,7.402,6.317,13.882,15.155,14.864c8.639,0.961,13.919-4.27,18.734-10.421
		c2.521-3.221,1.769-8.227,5.91-10.511c3.838,24.895,16.729,27.95,45.021,10.537c2.291,6.337,5.447,11.04,13.543,10.575
		c7.979-0.458,8.453-6.883,9.955-11.677c4.278-13.671,8.655-27.23,16.486-39.352c1.728-2.674,3.674-6.899,7.559-5.247
		c3.12,1.326,1.276,5.366,1.235,8.22c-0.242,16.729,12.126,26.069,27.612,20.262c5.739-2.151,11.263-5.39,16.181-9.07
		C976.825,480.634,981.574,475.927,977.634,470.485 M755.852,494.018c-3.371,4.57-7.279,8.463-14.152,6.888
		c-7.211-1.654-9.421-6.435-9.783-12.959c-0.166-2.999-0.465-5.991-0.703-8.987c0.05-8.187,1.558-15.968,7.978-21.535
		c3.872-3.356,8.631-6.556,9.036,3.102c0.271,6.438,2.331,12.982,6.846,17.517C760.64,483.633,759.74,488.745,755.852,494.018"/>
	<path fill="#00A8E7" d="M1071.669,485.752c-0.805-6.706-3.742-9.076-9.515-4.379c-4.655,3.789-9.201,7.789-13.315,12.148
		c-5.088,5.388-8.41,2.901-8.529-2.613c-0.152-7.026-3.185-11.988-7.754-16.315c-11.175-10.583-13.894-22.403-6.28-36.17
		c0.644-1.161,0.791-2.598,1.172-3.919c-16.207-2.892-20.441-2.181-24.196,6.504c-8.461,19.567-17.481,38.653-32.178,54.563
		c-3.688,3.993-6.06,10.067-1.039,14.094c4.423,3.548,8.825-0.45,12.743-3.715c9.39-7.824,13.991-19.159,22.065-29.387
		c2.897,3.229,5.189,5.681,7.364,8.232c3.257,3.823,5.348,9,3.743,13.131c-1.356,3.49-6.807,3.697-11.076,3.522
		c-4.913-0.201-9.775-0.594-11.099,6.364c-1.262,6.641,1.464,11.167,6.671,14.003c8.114,4.422,16.934,4.305,24.896-0.063
		c8.636-4.734,17.849-7.49,27.13-10.271C1063.418,508.206,1072.845,495.552,1071.669,485.752"/>
</g>
</svg>
