<svg xmlns="http://www.w3.org/2000/svg" width="92" height="92" viewBox="0 0 92 92"><defs><style>.a{fill:#00c9e9;}.b{fill:#fff;}</style></defs><g transform="translate(-0.025)"><circle class="a" cx="46" cy="46" r="46" transform="translate(0.025 0)"/><path class="b" d="M80.394,118.183a37.76,37.76,0,1,1,37.76-37.76A37.685,37.685,0,0,1,80.394,118.183Z" transform="translate(-34.388 -34.411)"/><path d="M172.057,175.547V140.612c8.252,0,17.055-.275,19.805.55,3.576.825,7.152,4.126,7.152,10.178,0,12.653-12.378,11-19.805,11v13.2Zm7.152-29.158v9.9h3.851c2.751,0,8.527.275,8.527-4.951C191.863,145.564,185.536,146.389,179.209,146.389Z" transform="translate(-136.6 -111.33)"/><path class="a" d="M62.546,124.253l6.139,6.139,61.679-61.679-6.139-6.139Z" transform="translate(-50.449 -50.471)"/></g></svg>