<svg xmlns="http://www.w3.org/2000/svg" width="92" height="92" viewBox="0 0 92 92"><defs><style>.a{fill:#4b73e2;}.b{fill:#fff;}</style></defs><g transform="translate(-2634 -674)"><circle class="a" cx="46" cy="46" r="46" transform="translate(2634 674)"/><path class="b" d="M80.394,118.183a37.76,37.76,0,1,1,37.76-37.76A37.685,37.685,0,0,1,80.394,118.183Z" transform="translate(2599.588 639.589)"/><path d="M-1980.61-1440.72q-.471,4.547-.94,9.094c-.351,3.362-.438,5.661-.79,9.022q-.531,5.071-1.06,10.141c-.387,3.711-.243,2.455-.629,6.166-.069.659-.142,1.317-.215,2a7.386,7.386,0,0,0-3.827,1.661,7.154,7.154,0,0,0-.664,10.335,7.166,7.166,0,0,0,10.36.234,1.273,1.273,0,0,1,.8-.338q14.389-.027,28.777,0a1.264,1.264,0,0,1,.8.337,7.2,7.2,0,0,0,8.348,1.318,7.209,7.209,0,0,0,3.835-7.534,7.163,7.163,0,0,0-5.994-5.952,6.954,6.954,0,0,0-6.179,2.036,1.117,1.117,0,0,1-.87.354q-14.361-.013-28.722-.023a1.551,1.551,0,0,1-.761-.316c-.751-.495-1.468-1.043-2.233-1.514-.258-.159-.372-.269-.338-.579.547-5.106.56-5.245,1.093-10.351.573-5.493.868-9.925,1.439-15.418.252-2.425.515-4.848.779-7.321h4.264v-3.349Zm30.573,44.94h-26.285v-2.716h26.285Zm-33.437-5.211a3.854,3.854,0,0,1,3.875,3.807,3.876,3.876,0,0,1-3.8,3.888,3.862,3.862,0,0,1-3.9-3.842A3.848,3.848,0,0,1-1983.475-1400.991Zm40.5,0a3.837,3.837,0,0,1,3.911,3.763,3.866,3.866,0,0,1-3.755,3.928,3.87,3.87,0,0,1-3.944-3.743A3.856,3.856,0,0,1-1942.971-1400.989Z" transform="translate(4643.451 2132.493)"/><path class="a" d="M62.546,124.253l6.139,6.139,61.679-61.679-6.139-6.139Z" transform="translate(2583.527 623.529)"/></g></svg>