<svg xmlns="http://www.w3.org/2000/svg" width="92" height="92" viewBox="0 0 92 92"><defs><style>.a{fill:#bc00e9;}.b{fill:#fff;}</style></defs><circle class="a" cx="46" cy="46" r="46" transform="translate(0 0)"/><path class="b" d="M80.009,117.413a37.375,37.375,0,1,1,37.375-37.375A37.3,37.3,0,0,1,80.009,117.413Z" transform="translate(-34.016 -34.039)"/><path d="M172.057,177.127V140.614c8.625,0,17.825-.287,20.7.575,3.738.863,7.475,4.312,7.475,10.637,0,13.225-12.937,11.5-20.7,11.5v13.8Zm7.475-30.475V157h4.025c2.875,0,8.912.287,8.912-5.175C192.757,145.789,186.144,146.652,179.532,146.652Z" transform="translate(-137.276 -112.153)"/></svg>