<?xml version="1.0" encoding="utf-8"?>
<!-- Generator: Adobe Illustrator 16.0.0, SVG Export Plug-In . SVG Version: 6.00 Build 0)  -->
<!DOCTYPE svg PUBLIC "-//W3C//DTD SVG 1.1//EN" "http://www.w3.org/Graphics/SVG/1.1/DTD/svg11.dtd">
<svg version="1.1" xmlns="http://www.w3.org/2000/svg" xmlns:xlink="http://www.w3.org/1999/xlink" x="0px" y="0px" width="1200px"
	 height="1474px" viewBox="0 0 1200 1474" enable-background="new 0 0 1200 1474" xml:space="preserve">
<g id="Layer_1">
	<g>
		<defs>
			<rect id="SVGID_1_" width="1200" height="1200"/>
		</defs>
		<clipPath id="SVGID_2_">
			<use xlink:href="#SVGID_1_"  overflow="visible"/>
		</clipPath>
		<path clip-path="url(#SVGID_2_)" fill="var(--es--svg--fill--logo)" d="M368.694,492.808c-5.9-1.561-10.88-5.417-13.956-10.674
			c-3.031-5.279-3.857-11.546-2.296-17.422l20.268-75.541h-52.587l-74.922,202.293l-74.347-202.293H43v356.933h91.999V505.272
			l89.888,240.832h40.675l90.391-240.832v204.634c1.837-2.456,3.697-4.659,5.372-6.68c1.01-1.217,1.998-2.41,3.007-3.649
			c0.069-0.115,5.21-6.335,5.21-6.335c0.437-0.528,0.896-1.033,1.378-1.538c0,0,5.738-5.808,5.876-5.923
			c1.033-1.01,2.043-2.043,3.099-3.075c2.731-2.709,5.784-5.762,9.205-8.7c16.181-14.162,35.991-26.764,58.899-37.414V514.063
			L368.694,492.808z M442.927,737.749c-3.329,2.823-6.404,5.602-9.319,8.354h14.391v-12.211
			C446.255,735.155,444.579,736.441,442.927,737.749"/>
		<path clip-path="url(#SVGID_2_)" fill="var(--es--svg--fill--logo)" d="M1029.17,395.598l-74.922,202.293l-74.371-202.293H752.023v50.935
			l11.569,3.099c12.257,3.282,19.511,15.861,16.229,28.118l-25.364,94.662c-0.551,2.043-1.4,3.971-2.434,5.762v174.334h92.023
			v-240.81l89.887,240.81h40.629l90.438-240.81v240.81H1157V395.598H1029.17z"/>
		<path clip-path="url(#SVGID_2_)" d="M438.817,642.835h4.637v-2.364C441.917,641.183,440.355,641.985,438.817,642.835"/>
		<path clip-path="url(#SVGID_2_)" fill="var(--es--svg--fill--secondary)" d="M360.29,930.715c0.934,4.559,1.432,6.989,1.432,6.989
			s-1.219-2.161-3.505-6.215c-1.115-2.037-2.489-4.55-4.104-7.505c-0.787-1.488-1.721-3.039-2.554-4.784
			c-0.724-1.818-1.493-3.751-2.305-5.793c-1.6-4.109-3.51-8.702-5.359-13.798c-1.497-5.116-2.922-10.734-4.538-16.779
			c-1.498-6.062-2.094-12.673-3.256-19.653c-0.695-3.495-0.553-7.103-0.786-10.809c-0.146-3.723-0.296-7.532-0.449-11.422
			c-0.037-3.896,0.41-7.847,0.631-11.91c0.38-4.038,0.33-8.252,1.106-12.399c1.481-8.297,2.556-17.087,5.294-25.711
			c4.346-17.619,12.411-35.249,22.535-52.429c2.747-4.179,5.517-8.393,8.307-12.637c2.881-4.188,6.353-7.978,9.561-12.022l4.945-6
			l5.492-5.562c3.755-3.633,7.375-7.481,11.393-10.902c15.934-13.969,34.507-25.138,53.987-34.186l14.708-5.446
			c2.418-0.812,4.334-1.762,7.159-2.458l8.115-2.153l8.112-2.093l4.056-0.995l3.964-0.594c5.273-0.743,10.529-1.484,15.764-2.223
			c5.245-0.593,10.53-0.57,15.748-0.854l4.639-0.114l31.3-116.811l-197.056-52.801l22.361-83.452l252.22-242.838L768.424,176.3
			l-240.8,233.874l69.425,18.602l22.925-85.557l105.19,28.186l-22.925,85.557l55.403,14.845l-25.367,94.672l-55.403-14.846
			l-31.634,118.06c4.236,2.669,8.3,5.47,12.318,8.079c3.553,2.276,6.588,5.201,9.792,7.691c3.107,2.63,6.302,4.998,9.115,7.696
			c2.729,2.778,5.401,5.498,8.013,8.155c2.539,2.713,5.272,5.073,7.343,7.976c4.29,5.63,8.693,10.601,12.089,15.84
			c3.294,5.323,6.418,10.206,9.116,14.805c2.413,4.795,4.422,9.284,6.313,13.248c0.929,1.983,1.807,3.861,2.634,5.627
			c0.717,1.82,1.224,3.609,1.779,5.221c1.058,3.229,1.958,5.976,2.688,8.203c1.38,4.433,2.115,6.797,2.115,6.797
			s-1.436-2.032-4.127-5.843c-1.306-1.895-2.916-4.231-4.81-6.979c-0.953-1.358-1.925-2.842-3.05-4.364
			c-1.202-1.472-2.479-3.036-3.828-4.688c-2.714-3.275-5.595-6.944-8.887-10.766c-3.643-3.573-7.376-7.527-11.41-11.647
			c-4.115-4.046-8.982-7.857-13.762-12.092c-4.903-4.114-10.614-7.772-16.167-11.913c-2.906-1.914-6.042-3.629-9.114-5.504
			c-3.154-1.755-6.105-3.921-9.537-5.423c-6.812-3.058-13.399-6.942-20.924-9.336c-14.439-6.081-30.626-9.588-47.195-12.085
			c-16.701-2.333-34.072-1.744-51.414,0.146c-4.3,0.767-8.617,1.537-12.946,2.31l-3.236,0.578l-3.009,0.86l-6.046,1.625
			l-6.071,1.571c-1.952,0.406-4.481,1.612-6.696,2.38l-12.84,4.854c-16.144,7.374-31.486,16.392-45.168,27.321
			c-13.283,11.317-25.572,23.611-35.338,37.362c-9.527,13.791-18.062,27.987-23.525,42.68c-3.409,7.125-5.073,14.591-7.524,21.647
			c-1.253,3.531-1.694,7.167-2.574,10.669c-0.728,3.525-1.64,6.983-2.232,10.413c-0.782,6.885-2.017,13.553-2.383,19.945
			c-0.184,6.384-0.73,12.542-0.603,18.313c0.248,5.761,0.567,11.191,0.682,16.292c0.524,4.962,1.211,9.52,1.734,13.722
			c0.277,2.107,0.54,4.103,0.787,5.979c0.343,1.887,0.779,3.653,1.123,5.299C359.183,925.648,359.794,928.446,360.29,930.715"/>
		<path clip-path="url(#SVGID_2_)" fill="var(--es--svg--fill--secondary)" d="M599.197,701.161c-96.131-25.731-195.063,31.354-220.794,127.486
			c-25.778,96.245,31.309,195.063,127.486,220.793c96.2,25.801,195.017-31.24,220.817-127.439
			C752.437,825.823,695.396,726.938,599.197,701.161 M674.761,885.527L613.106,869c-11.592-3.122-23.574,3.787-26.696,15.402
			c-3.098,11.66,3.811,23.597,15.426,26.695l61.631,16.48c-21.669,46.275-70.193,74.302-121.128,69.918l16.527-61.631
			c3.098-11.546-3.742-23.551-15.402-26.651c-11.615-3.098-23.551,3.812-26.696,15.427l-16.481,61.563
			c-46.229-21.6-74.279-70.193-69.872-121.06l61.563,16.481c11.615,3.145,23.551-3.765,26.649-15.356
			c3.1-11.614-3.741-23.597-15.401-26.695l-61.54-16.481c21.623-46.229,70.193-74.278,121.036-69.94l-16.481,61.586
			c-3.168,11.66,3.788,23.596,15.403,26.695c11.614,3.099,23.55-3.742,26.649-15.402l16.527-61.585
			C651.05,786.113,679.075,834.684,674.761,885.527"/>
	</g>
</g>
<g id="HelveticaNeue_Bold">
	<g>
		<path fill="var(--es--svg--fill--logo)" d="M87.626,1377.875v-157.08h70.84c18.332,0,32.264,5.208,41.8,15.62c8.36,8.948,12.54,20.535,12.54,34.76
			c0,14.228-4.18,25.815-12.54,34.76c-9.536,10.416-23.468,15.62-41.8,15.62h-36.3v56.32H87.626z M122.167,1247.635v47.08h26.84
			c9.384,0,16.424-1.392,21.12-4.18c6.16-3.813,9.24-10.265,9.24-19.36c0-9.092-3.08-15.544-9.24-19.359
			c-4.696-2.785-11.736-4.181-21.12-4.181H122.167z"/>
		<path fill="var(--es--svg--fill--logo)" d="M217.645,1377.875l59.62-157.08h35.42l58.74,157.08h-35.86l-11.88-34.98h-58.74l-12.32,34.98H217.645z
			 M294.425,1259.515l-20.46,57.641h40.7l-19.8-57.641H294.425z"/>
		<path fill="var(--es--svg--fill--logo)" d="M385.064,1377.875v-157.08h84.7c13.785,0,25.004,4.256,33.66,12.76c8.212,8.216,12.32,18.408,12.32,30.58
			c0,19.508-8.288,32.636-24.86,39.38v0.44c13.784,3.52,21.412,15.768,22.88,36.74c0.44,6.308,0.88,12.615,1.32,18.92
			c0.88,8.508,2.64,14.596,5.28,18.26h-34.54c-1.616-3.96-2.86-9.9-3.74-17.82c-0.588-6.6-1.176-13.199-1.76-19.8
			c-1.176-8.504-3.706-14.592-7.59-18.26c-3.888-3.664-10.086-5.5-18.59-5.5h-34.54v61.38H385.064z M419.604,1247.635v44.221h37.84
			c15.84,0,23.76-7.48,23.76-22.44c0-14.521-7.92-21.78-23.76-21.78H419.604z"/>
		<path fill="var(--es--svg--fill--logo)" d="M578.661,1377.875v-128.04h-47.08v-29.04h128.7v29.04h-47.079v128.04H578.661z"/>
		<path fill="var(--es--svg--fill--logo)" d="M678.318,1377.875v-157.08h34.472l65.849,105.38v-105.38h32.34v157.08h-34.691l-65.629-105.16v105.16
			H678.318z"/>
		<path fill="var(--es--svg--fill--logo)" d="M841.338,1377.875v-157.08h117.48v29.04h-82.94v33.66h76.12v26.84h-76.12v38.5h84.7v29.04H841.338z"/>
		<path fill="var(--es--svg--fill--logo)" d="M983.897,1377.875v-157.08h84.7c13.784,0,25.005,4.256,33.66,12.76c8.212,8.216,12.32,18.408,12.32,30.58
			c0,19.508-8.288,32.636-24.86,39.38v0.44c13.784,3.52,21.412,15.768,22.88,36.74c0.44,6.308,0.88,12.615,1.32,18.92
			c0.88,8.508,2.64,14.596,5.28,18.26h-34.54c-1.616-3.96-2.86-9.9-3.74-17.82c-0.588-6.6-1.176-13.199-1.76-19.8
			c-1.176-8.504-3.706-14.592-7.591-18.26c-3.888-3.664-10.085-5.5-18.59-5.5h-34.54v61.38H983.897z M1018.438,1247.635v44.221
			h37.84c15.841,0,23.761-7.48,23.761-22.44c0-14.521-7.92-21.78-23.761-21.78H1018.438z"/>
	</g>
</g>
</svg>
