<svg xmlns="http://www.w3.org/2000/svg" width="92" height="92" viewBox="0 0 92 92"><defs><style>.a{fill:red;}.b{fill:#fff;}</style></defs><g transform="translate(-1023 -182)"><circle class="a" cx="46" cy="46" r="46" transform="translate(1023 182)"/><path class="b" d="M80.394,118.183a37.76,37.76,0,1,1,37.76-37.76A37.685,37.685,0,0,1,80.394,118.183Z" transform="translate(988.588 147.589)"/><g transform="translate(1046.312 204.333)"><g transform="translate(0)"><path d="M.89,5.2a1.3,1.3,0,0,1,2.1-.361L6.365,8.211a1.333,1.333,0,0,0,1.845,0,1.307,1.307,0,0,0,0-1.845L4.835,2.99A1.306,1.306,0,0,1,5.2.89,9.137,9.137,0,0,1,17.739,12.2l14.6,14.6A9.137,9.137,0,0,1,43.648,39.342a1.306,1.306,0,0,1-2.1.361l-3.375-3.375a1.3,1.3,0,0,0-1.845,1.845L39.7,41.547a1.306,1.306,0,0,1-.361,2.1A9.137,9.137,0,0,1,26.8,32.336l-14.6-14.6A9.137,9.137,0,0,1,.89,5.2Z" transform="translate(-0.001 0)"/></g></g></g></svg>