<?xml version="1.0" encoding="utf-8"?>
<!-- Generator: Adobe Illustrator 16.0.0, SVG Export Plug-In . SVG Version: 6.00 Build 0)  -->
<!DOCTYPE svg PUBLIC "-//W3C//DTD SVG 1.1//EN" "http://www.w3.org/Graphics/SVG/1.1/DTD/svg11.dtd">
<svg version="1.1" xmlns="http://www.w3.org/2000/svg" xmlns:xlink="http://www.w3.org/1999/xlink" x="0px" y="0px" width="432px"
	 height="137.455px" viewBox="0 0 432 137.455" enable-background="new 0 0 432 137.455" xml:space="preserve">
<g id="Guides_For_Artboard">
</g>
<g id="Layer_1">
	<rect fill="none" width="432" height="137.455"/>
	<g>
		<g>
			<g>
				<path d="M26.55,107.828h-2.152v-4.791l-4.825-7.359h2.517l3.402,5.381l3.437-5.381h2.447l-4.825,7.308V107.828z"/>
				<path d="M41.827,108.036c-3.731,0-6.335-2.83-6.335-6.267c0-3.436,2.638-6.3,6.37-6.3c3.731,0,6.335,2.829,6.335,6.266
					S45.559,108.036,41.827,108.036z M41.827,97.431c-2.412,0-4.096,1.927-4.096,4.305s1.718,4.339,4.131,4.339
					c2.412,0,4.096-1.926,4.096-4.305C45.958,99.393,44.24,97.431,41.827,97.431z"/>
				<path d="M64.813,102.568c0,3.628-2.048,5.45-5.225,5.45c-3.159,0-5.172-1.822-5.172-5.346v-6.995h2.135v6.908
					c0,2.256,1.163,3.472,3.072,3.472c1.892,0,3.054-1.146,3.054-3.385v-6.995h2.135V102.568z"/>
				<path d="M79.361,107.828l-2.985-4.235h-2.673v4.235h-2.135v-12.15h5.415c2.794,0,4.513,1.476,4.513,3.854
					c0,2.013-1.198,3.228-2.898,3.697l3.281,4.6H79.361z M76.81,97.622h-3.107v4.079h3.124c1.528,0,2.5-0.799,2.5-2.049
					C79.327,98.316,78.39,97.622,76.81,97.622z"/>
				<path d="M104.761,107.828l-2.985-4.235h-2.673v4.235h-2.135v-12.15h5.416c2.794,0,4.513,1.476,4.513,3.854
					c0,2.013-1.198,3.228-2.899,3.697l3.28,4.6H104.761z M102.209,97.622h-3.106v4.079h3.125c1.527,0,2.499-0.799,2.499-2.049
					C104.726,98.316,103.789,97.622,102.209,97.622z"/>
				<path d="M115.595,95.678v12.15h-2.134v-12.15H115.595z"/>
				<path d="M127.192,107.828h-4.53v-12.15h4.53c3.819,0,6.457,2.621,6.457,6.058S131.011,107.828,127.192,107.828z M127.192,97.622
					h-2.395v8.262h2.395c2.551,0,4.217-1.719,4.217-4.114C131.409,99.375,129.743,97.622,127.192,97.622z"/>
				<path d="M149.066,97.587h-6.873v3.159h6.092v1.909h-6.092v3.264h6.959v1.909h-9.095v-12.15h9.008V97.587z"/>
				<path d="M155.127,107.828v-2.378h2.309v2.378H155.127z"/>
				<path d="M169.032,107.828h-2.152v-4.791l-4.826-7.359h2.517l3.402,5.381l3.437-5.381h2.447l-4.825,7.308V107.828z"/>
				<path d="M184.31,108.036c-3.732,0-6.335-2.83-6.335-6.267c0-3.436,2.638-6.3,6.37-6.3c3.732,0,6.335,2.829,6.335,6.266
					S188.041,108.036,184.31,108.036z M184.31,97.431c-2.413,0-4.097,1.927-4.097,4.305s1.718,4.339,4.131,4.339
					c2.413,0,4.096-1.926,4.096-4.305C188.44,99.393,186.722,97.431,184.31,97.431z"/>
				<path d="M207.294,102.568c0,3.628-2.048,5.45-5.224,5.45c-3.159,0-5.172-1.822-5.172-5.346v-6.995h2.135v6.908
					c0,2.256,1.163,3.472,3.072,3.472c1.892,0,3.055-1.146,3.055-3.385v-6.995h2.135V102.568z"/>
				<path d="M221.844,107.828l-2.985-4.235h-2.673v4.235h-2.135v-12.15h5.416c2.794,0,4.513,1.476,4.513,3.854
					c0,2.013-1.198,3.228-2.899,3.697l3.28,4.6H221.844z M219.292,97.622h-3.106v4.079h3.125c1.527,0,2.499-0.799,2.499-2.049
					C221.809,98.316,220.872,97.622,219.292,97.622z"/>
				<path d="M246.705,95.643h1.805l2.985,9.044l2.898-9.009h2.239l-4.235,12.237h-1.84l-2.985-8.731l-2.985,8.731h-1.84
					l-4.235-12.237h2.308l2.898,9.009L246.705,95.643z"/>
				<path d="M272.711,107.828h-2.256l-1.232-2.934h-5.745l-1.25,2.934h-2.187l5.346-12.237h1.979L272.711,107.828z M266.341,98.143
					l-2.083,4.86h4.183L266.341,98.143z"/>
				<path d="M282.435,107.828h-2.152v-4.791l-4.825-7.359h2.517l3.402,5.381l3.437-5.381h2.447l-4.825,7.308V107.828z"/>
				<path d="M290.318,107.828v-2.378h2.309v2.378H290.318z"/>
			</g>
			<g>
				<path fill="#F78D1E" d="M36.328,52.326c-2.819-0.969-4.713-1.883-5.682-2.742c-0.99-0.88-1.486-2.114-1.486-3.699
					c0-1.52,0.49-2.763,1.469-3.732c0.979-0.969,2.24-1.454,3.781-1.454c1.628,0,2.911,0.468,3.846,1.404s1.502,2.34,1.701,4.211
					h9.513c-0.198-4.051-1.707-7.437-4.526-10.156c-2.819-2.72-6.221-4.08-10.207-4.08c-4.316,0-7.85,1.349-10.603,4.046
					c-2.752,2.698-4.128,6.16-4.128,10.388c0,3.678,0.935,6.618,2.806,8.819c1.871,2.202,5.03,4.063,9.477,5.582
					c3.61,1.233,6.032,2.411,7.265,3.534c1.253,1.146,1.88,2.73,1.88,4.756c0,1.85-0.644,3.358-1.932,4.525
					s-2.944,1.751-4.969,1.751c-1.959,0-3.517-0.567-4.673-1.702c-1.156-1.134-1.854-2.779-2.097-4.938h-9.711
					c0.352,4.536,2.031,8.214,5.038,11.032c3.006,2.819,6.756,4.229,11.249,4.229c4.757,0,8.655-1.498,11.694-4.492
					c3.04-2.995,4.56-6.838,4.56-11.528c0-3.942-1.088-7.112-3.264-9.513C45.148,56.168,41.481,54.088,36.328,52.326z"/>
				<path fill="#F78D1E" d="M76.024,52.557c2.07,0,3.87,0.462,5.4,1.387c1.53,0.925,2.725,2.268,3.584,4.03H95.05
					c-1.277-4.14-3.633-7.449-7.068-9.926c-3.435-2.478-7.388-3.716-11.858-3.716c-5.505,0-10.189,1.955-14.054,5.863
					c-3.865,3.909-5.797,8.638-5.797,14.187s1.932,10.268,5.797,14.153c3.865,3.887,8.549,5.83,14.054,5.83
					c4.426,0,8.34-1.223,11.742-3.667c3.402-2.443,5.731-5.714,6.986-9.81H84.811c-0.815,1.607-1.977,2.885-3.485,3.831
					c-1.508,0.947-3.132,1.421-4.872,1.421c-3.149,0-5.792-1.15-7.927-3.452c-2.136-2.301-3.204-5.157-3.204-8.571
					c0-3.215,1.041-5.945,3.122-8.191C70.525,53.68,73.052,52.557,76.024,52.557z"/>
				<path fill="#F78D1E" d="M164.708,44.332c-5.527,0-10.234,1.955-14.121,5.863c-3.887,3.909-5.83,8.638-5.83,14.187
					s1.943,10.268,5.83,14.153c3.886,3.887,8.593,5.83,14.121,5.83c5.549,0,10.267-1.943,14.153-5.83
					c3.886-3.886,5.83-8.604,5.83-14.153s-1.944-10.278-5.83-14.187C174.975,46.287,170.257,44.332,164.708,44.332z M172.503,72.771
					c-2.092,2.246-4.69,3.369-7.795,3.369c-3.083,0-5.67-1.123-7.762-3.369c-2.092-2.246-3.138-5.042-3.138-8.39
					s1.045-6.155,3.138-8.422c2.092-2.269,4.679-3.402,7.762-3.402c3.105,0,5.703,1.134,7.795,3.402
					c2.092,2.268,3.138,5.075,3.138,8.422S174.595,70.525,172.503,72.771z"/>
				<polygon fill="#F78D1E" points="202.493,33.003 193.476,33.003 193.476,45.587 189.149,45.587 189.149,53.515 193.476,53.515 
					193.476,83.11 202.493,83.11 202.493,53.515 207.943,53.515 207.943,45.587 202.493,45.587 				"/>
				<path fill="#F78D1E" d="M231.03,44.332c-5.417,0-10.036,1.955-13.856,5.863c-3.821,3.909-5.73,8.638-5.73,14.187
					s1.91,10.268,5.73,14.153c3.82,3.887,8.439,5.83,13.856,5.83c4.381,0,8.246-1.185,11.594-3.55
					c3.346-2.368,5.625-5.544,6.836-9.53h-9.512c-0.749,1.476-1.91,2.654-3.484,3.534c-1.575,0.881-3.309,1.321-5.203,1.321
					c-3.061,0-5.615-1.123-7.663-3.369c-1.189-1.321-2.037-2.796-2.544-4.426h29.265c0.22-1.299,0.33-2.62,0.33-3.963
					c0-5.549-1.91-10.278-5.73-14.187C241.099,46.287,236.469,44.332,231.03,44.332z M220.791,61.145
					c0.506-1.959,1.409-3.688,2.709-5.185c2.025-2.269,4.536-3.402,7.531-3.402c2.995,0,5.504,1.134,7.53,3.402
					c1.343,1.475,2.235,3.203,2.676,5.185H220.791z"/>
				<path fill="#F78D1E" d="M295.306,64.382c0-5.549-1.911-10.278-5.73-14.187c-3.821-3.908-8.451-5.863-13.889-5.863
					c-5.417,0-10.037,1.955-13.857,5.863c-3.82,3.909-5.73,8.638-5.73,14.187s1.91,10.268,5.73,14.153
					c3.82,3.887,8.439,5.83,13.857,5.83c4.381,0,8.246-1.185,11.593-3.55c3.347-2.368,5.625-5.544,6.837-9.53h-9.512
					c-0.749,1.476-1.911,2.654-3.485,3.534c-1.575,0.881-3.309,1.321-5.203,1.321c-3.061,0-5.615-1.123-7.663-3.369
					c-1.189-1.321-2.037-2.796-2.543-4.426h29.265C295.195,67.046,295.306,65.726,295.306,64.382z M265.446,61.145
					c0.506-1.959,1.409-3.688,2.708-5.185c2.025-2.269,4.536-3.402,7.531-3.402c2.994,0,5.504,1.134,7.53,3.402
					c1.343,1.475,2.235,3.203,2.675,5.185H265.446z"/>
				<path fill="#F78D1E" d="M120.052,44.332c-5.527,0-10.234,1.955-14.12,5.863c-3.887,3.909-5.83,8.638-5.83,14.187
					s1.943,10.268,5.83,14.153c3.886,3.887,8.593,5.83,14.12,5.83c5.549,0,10.267-1.943,14.154-5.83
					c3.886-3.886,5.83-8.604,5.83-14.153s-1.944-10.278-5.83-14.187C130.319,46.287,125.602,44.332,120.052,44.332z M113.663,80.304
					l6.913-14.518l-8.642,1.382l13.48-17.973l-5.53,13.48l9.332-1.382L113.663,80.304z"/>
			</g>
		</g>
		<path fill="#FBAD18" d="M322.485,88.794c-3.39-0.074-5.96,1.908-7.174,3.095c-1.928,1.887-3.125,4.285-3.125,6.255
			c0,1.154-0.936,2.087-2.09,2.087c-1.154,0-2.088-0.933-2.088-2.087c0-3.102,1.639-6.556,4.382-9.239
			c2.903-2.842,6.519-4.352,10.183-4.286c6.127,0.13,10.413,4.343,12.937,7.873l16.382-65.448h-33.932l-20.13,83.369h33.193
			l3.056-12.209C332.974,95.98,328.952,88.932,322.485,88.794z M322.725,105.597c-4.104,0-7.43-3.327-7.43-7.432
			c0-4.102,3.325-7.43,7.43-7.43c4.104,0,7.429,3.328,7.429,7.43C330.153,102.27,326.829,105.597,322.725,105.597z"/>
		<g>
			<path fill="#F47B20" d="M363.162,27.043h-11.269l-16.382,65.448c0.965,1.35,1.674,2.6,2.128,3.483h27.025l2.438-3.388
				l6.503-25.818l-10.382-39.344C363.189,27.299,363.171,27.171,363.162,27.043z"/>
			<path fill="#F47B20" d="M334.394,98.868c-0.006-0.016-0.112-0.261-0.313-0.665l-3.056,12.209h31.586l2.585-10.262h-28.875
				C335.479,100.15,334.72,99.645,334.394,98.868z"/>
			<polygon fill="#F47B20" points="374.348,27.043 367.818,28.468 375.715,58.393 383.611,27.043 			"/>
		</g>
		<g>
			<path fill="#F05123" d="M376.854,79.084l-3.25-12.315l-6.503,25.818l9.548-13.271C376.711,79.23,376.783,79.157,376.854,79.084z"
				/>
			<path fill="#F05123" d="M383.611,27.043l-7.896,31.35l8.537,32.353c4.015,0.104,7.239,3.383,7.239,7.42
				c0,4.104-3.326,7.432-7.431,7.432s-7.431-3.327-7.431-7.432c0-2.693,1.438-5.045,3.585-6.348l-1.989-7.538L367.43,99.282
				c-0.393,0.546-1.024,0.868-1.698,0.868h-0.536l-2.585,10.262h31.208l20.13-83.369H383.611z"/>
		</g>
	</g>
</g>
</svg>
