<svg xmlns="http://www.w3.org/2000/svg" width="92" height="92" viewBox="0 0 92 92"><defs><style>.a{fill:#ff8000;}.b{fill:#fff;}</style></defs><g transform="translate(-2776 -348)"><circle class="a" cx="46" cy="46" r="46" transform="translate(2776 348)"/><path class="b" d="M80.009,117.413a37.375,37.375,0,1,1,37.375-37.375A37.3,37.3,0,0,1,80.009,117.413Z" transform="translate(2742.096 313.961)"/><g transform="translate(2796 370.2)"><g transform="translate(0 0)"><path d="M196.63,124.1a2.054,2.054,0,0,1,2.608-.245c3.072,2.094,18.483,12.625,20.139,14.281a6.16,6.16,0,0,1-8.712,8.712c-1.656-1.656-12.186-17.067-14.281-20.139A2.054,2.054,0,0,1,196.63,124.1Zm16.94,19.844a2.053,2.053,0,0,0,2.9-2.9c-.644-.636-5.019-3.756-10.4-7.5C209.814,138.925,212.934,143.3,213.57,143.943Z" transform="translate(-188.739 -116.209)"/><path d="M28.826,88.331l2.535,1.236a22.072,22.072,0,0,0,1.384-18.659L29.84,72.3a2.053,2.053,0,1,1-1.776-3.7l2.868-1.376A22.2,22.2,0,0,0,14.066,56.7v3.088a2.053,2.053,0,0,1-4.107,0V56.7a21.921,21.921,0,0,0-7.06,1.86,2.053,2.053,0,1,1-1.69-3.743,26.083,26.083,0,0,1,10.8-2.316A26.246,26.246,0,0,1,33.842,93.371a2.053,2.053,0,0,1-2.607.7l-4.209-2.053a2.053,2.053,0,1,1,1.8-3.691Z" transform="translate(14.27 -52.499)"/><path d="M392.311,192.7a2.053,2.053,0,1,1,3.743,1.69,22.1,22.1,0,0,0,.883,19.916l2.646-1.26a2.053,2.053,0,0,1,1.766,3.708l-4.312,2.053a2.053,2.053,0,0,1-2.59-.713,26.22,26.22,0,0,1-2.137-25.393Z" transform="translate(-389.994 -177.224)"/></g></g></g></svg>