<svg xmlns="http://www.w3.org/2000/svg" width="16.916" height="15.516" viewBox="0 0 16.916 15.516">
  <g id="padlock" transform="translate(0 0)">
    <g id="Group_149" data-name="Group 149">
      <path id="Path_89" data-name="Path 89" d="M14.643,22.386a7.757,7.757,0,0,0-11.04.07.418.418,0,1,0,.6.585,6.921,6.921,0,1,1-1.966,4.831v-.087l.689.689a.419.419,0,0,0,.3.122.425.425,0,0,0,.3-.122.418.418,0,0,0,0-.592l-1.4-1.4a.418.418,0,0,0-.592,0l-1.4,1.4a.418.418,0,0,0,.3.714.425.425,0,0,0,.3-.122l.689-.689v.087a7.757,7.757,0,0,0,13.243,5.485,7.76,7.76,0,0,0,0-10.971Z" transform="translate(0 -20.113)" fill="#047480"/>
      <path id="Path_90" data-name="Path 90" d="M162.069,113.413a2.463,2.463,0,0,0-2.461,2.461v1.187h-.766a.419.419,0,0,0-.418.418v4.166a.419.419,0,0,0,.418.418H165.3a.419.419,0,0,0,.418-.418v-4.163a.419.419,0,0,0-.418-.418h-.766v-1.187A2.469,2.469,0,0,0,162.069,113.413Zm-1.625,2.464a1.625,1.625,0,0,1,3.251,0v1.187h-3.251v-1.187Zm4.438,5.35H159.26V117.9h5.621Z" transform="translate(-152.911 -110.166)" fill="#047480"/>
    </g>
  </g>
</svg>
