<svg xmlns="http://www.w3.org/2000/svg" width="450" height="512" viewBox="0 0 450 512">
  <g id="scooter_1_" data-name="scooter (1)" transform="translate(-31)">
    <path id="Path_1" data-name="Path 1" d="M211.35,262.209,162.455,362H91a30,30,0,0,0,0,60h90a29.84,29.84,0,0,0,26.836-16.582L258.089,304.9Z" fill="var(--es--db--man--leg)"/>
    <g id="Group_1" data-name="Group 1">
      <path id="Path_2" data-name="Path 2" d="M451,210a30.088,30.088,0,0,1-30,30H361a29.694,29.694,0,0,1-21.3-8.7l-30.6-30.6-29.4,59.1L331,294l16.5,13.1A29.848,29.848,0,0,1,361,332v90a30,30,0,0,1-60,0V348.2l-76.5-53.3a29.885,29.885,0,0,1-10.2-38.4l59.4-119.1c9.6-19.5,34.2-23.1,48.6-8.7l8.7,8.7L373.3,180H421A30.088,30.088,0,0,1,451,210Z" fill="var(--es--db--man)"/>
      <path id="Path_3" data-name="Path 3" d="M346,0a45,45,0,1,0,45,45A45.132,45.132,0,0,0,346,0Z" fill="var(--es--db--man)"/>
    </g>
    <path id="Path_4" data-name="Path 4" d="M451,437a14.854,14.854,0,0,1-15,15H226a15,15,0,0,1,0-30H436A14.853,14.853,0,0,1,451,437Z" fill="var(--es--db--vehicle)"/>
    <path id="Path_5" data-name="Path 5" d="M436,452a14.991,14.991,0,0,1-15-15V210a15,15,0,0,1,30,0V437A14.991,14.991,0,0,1,436,452Z" fill="var(--es--db--vehicle)"/>
    <path id="Path_6" data-name="Path 6" d="M380.395,258.105a15,15,0,0,1,0-21.211l75-75a15,15,0,0,1,21.211,21.211l-75,75A14.994,14.994,0,0,1,380.395,258.105Z" fill="var(--es--db--vehicle)"/>
    <g id="Group_2" data-name="Group 2">
      <path id="Path_7" data-name="Path 7" d="M196,120H46a15,15,0,0,1,0-30H196a15,15,0,0,1,0,30Z" fill="rgba(var(--es--db--side--bg),0.39)"/>
      <path id="Path_8" data-name="Path 8" d="M76,240H46a15,15,0,0,1,0-30H76a15,15,0,0,1,0,30Z" fill="rgba(var(--es--db--side--bg),0.39)"/>
      <path id="Path_9" data-name="Path 9" d="M136,180H46a15,15,0,0,1,0-30h90a15,15,0,0,1,0,30Z" fill="rgba(var(--es--db--side--bg),0.39)"/>
    </g>
    <path id="Path_11" data-name="Path 11" d="M226,422a45,45,0,1,0,45,45A44.938,44.938,0,0,0,226,422Z" fill="var(--es--db--vehicle)"/>
    <path id="Path_13" data-name="Path 13" d="M226,452a15,15,0,1,0,15,15A14.853,14.853,0,0,0,226,452Z" fill="#fff"/>
    <path id="Path_15" data-name="Path 15" d="M436,422a45,45,0,1,0,45,45A44.938,44.938,0,0,0,436,422Z" fill="var(--es--db--vehicle)"/>
    <path id="Path_17" data-name="Path 17" d="M436,452a15,15,0,1,0,15,15A14.853,14.853,0,0,0,436,452Z" fill="#fff"/>
  </g>
</svg>
