<?xml version="1.0" encoding="utf-8"?>
<!-- Generator: Adobe Illustrator 23.0.3, SVG Export Plug-In . SVG Version: 6.00 Build 0)  -->
<svg version="1.1" id="Layer_1" xmlns="http://www.w3.org/2000/svg" xmlns:xlink="http://www.w3.org/1999/xlink" x="0px" y="0px"
	 viewBox="0 0 43.9 38" style="enable-background:new 0 0 43.9 38;" xml:space="preserve">
<defs>
    <linearGradient id="linear-gradient" x1="0.5" x2="0.5" y2="1" gradientUnits="objectBoundingBox">
      <stop offset="0" stop-color="var(--es--svg--end)"/>
      <stop offset="1" stop-color="var(--es--svg--start)"/>
    </linearGradient>
</defs>
<g>
	<rect x="-0.2" y="3.5" transform="matrix(0.7431 -0.6691 0.6691 0.7431 -2.1893 5.2856)" width="12" height="4" fill="url(#linear-gradient)"/>
	<path d="M22,2C12,2,4,10,4,20c0,0,0,0,0,0c0,9.9,8,18,18,18c9.9,0,18-8,18-18C40,10,31.9,2,22,2z M8,20c0-7.7,6.3-14,14-14
		c3.2,0,6.1,1.1,8.5,2.9L23,17v-6h-4v10.3l-7.5,8C9.3,26.8,8,23.5,8,20z M22,34C22,34,22,34,22,34c-3.4,0-6.6-1.3-9-3.3l7.1-7.7H29
		v-4h-5.1l8.2-8.8c2.5,2.5,4,6,4,9.8C36,27.7,29.7,34,22,34z" fill="url(#linear-gradient)"/>
	<rect x="36.2" y="-0.5" transform="matrix(0.6695 -0.7428 0.7428 0.6695 8.5293 30.1589)" width="4" height="12" fill="url(#linear-gradient)"/>
</g>
</svg>
