<?xml version="1.0" encoding="utf-8"?>
<!-- Generator: Adobe Illustrator 23.0.3, SVG Export Plug-In . SVG Version: 6.00 Build 0)  -->
<svg version="1.1" id="Layer_1" xmlns="http://www.w3.org/2000/svg" xmlns:xlink="http://www.w3.org/1999/xlink" x="0px" y="0px"
	 viewBox="0 0 43.9 38" style="enable-background:new 0 0 43.9 38;" xml:space="preserve">
<style type="text/css">
	.st0{fill:url(#SVGID_1_);}
	.st1{fill:url(#SVGID_2_);}
	.st2{fill:url(#SVGID_3_);}
	.st3{fill:url(#SVGID_4_);}
</style>
<defs>
    <linearGradient id="linear-gradient" x1="0.5" x2="0.5" y2="1" gradientUnits="objectBoundingBox">
      <stop offset="0" stop-color="var(--es--svg--end)"/>
      <stop offset="1" stop-color="var(--es--svg--start)"/>
    </linearGradient>
</defs>
<g>
	<linearGradient id="SVGID_1_" gradientUnits="userSpaceOnUse" x1="5.79" y1="10.989" x2="5.79" y2="-1.525879e-05">
		<stop  offset="0" style="stop-color:var(--es--svg--end)"/>
		<stop  offset="1" style="stop-color:var(--es--svg--start)"/>
	</linearGradient>
	<polygon class="st0" points="8.9,0 0,8 2.7,11 11.6,3 	"/>
	<linearGradient id="SVGID_2_" gradientUnits="userSpaceOnUse" x1="24.9725" y1="23.976" x2="24.9725" y2="11.986">
		<stop  offset="0" style="stop-color:var(--es--svg--end)"/>
		<stop  offset="1" style="stop-color:var(--es--svg--start)"/>
	</linearGradient>
	<polygon class="st1" points="24,12 20,12 20,24 30,24 30,20 24,20 	"/>
	<linearGradient id="SVGID_3_" gradientUnits="userSpaceOnUse" x1="21.973" y1="37.955" x2="21.973" y2="1.999">
		<stop  offset="0" style="stop-color:var(--es--svg--end)"/>
		<stop  offset="1" style="stop-color:var(--es--svg--start)"/>
	</linearGradient>
	<path class="st2" d="M22,2C12,2,4,10,4,20c0,0,0,0,0,0c0,9.9,8,18,18,18c9.9,0,18-8,18-18C40,10,31.9,2,22,2z M22,34
		C22,34,22,34,22,34c-7.7,0-14-6.3-14-14c0-7.7,6.3-14,14-14s14,6.3,14,14S29.7,34,22,34z"/>
	<linearGradient id="SVGID_4_" gradientUnits="userSpaceOnUse" x1="38.1555" y1="10.989" x2="38.1555" y2="-1.525879e-05">
		<stop  offset="0" style="stop-color:var(--es--svg--end)"/>
		<stop  offset="1" style="stop-color:var(--es--svg--start)"/>
	</linearGradient>
	<polygon class="st3" points="35,0 32.4,3 41.3,11 43.9,8 	"/>
</g>
</svg>
