<svg xmlns="http://www.w3.org/2000/svg" width="46.285" height="39.842" viewBox="0 0 46.285 39.842">
<defs>
    <linearGradient id="linear-gradient" x1="0.5" x2="0.5" y2="1" gradientUnits="objectBoundingBox">
      <stop offset="0" stop-color="var(--es--svg--end)"/>
      <stop offset="1" stop-color="var(--es--svg--start)"/>
    </linearGradient>
</defs>
<path class="a" d="M17.825-1282.441a20.107,20.107,0,0,1-8.018-5.067l-4.39,4.708-1.463-1.365,4.529-4.856a20.177,20.177,0,0,1-3.3-19.03,20.192,20.192,0,0,1,1.653-3.639l-2.7,1.255L0-1312.5l12.993-6.611,2.414,14.634-4.141-2.064-.539-3.453A15.944,15.944,0,0,0,9.17-1306.7a15.966,15.966,0,0,0,2.223,14.557l9.464-10.149v-5.407l3.278,1.892L37.372-1320l1.463,1.364-12.922,13.857,6.36,3.672-11.416,6.592v-4.841l-8.176,8.768a15.918,15.918,0,0,0,6.494,4.165,15.988,15.988,0,0,0,20.275-10.006,15.979,15.979,0,0,0-2.928-15.454l1.179-1.48,1.483-1.862a20.191,20.191,0,0,1,4.249,20.147,20.2,20.2,0,0,1-19.122,13.715A20.2,20.2,0,0,1,17.825-1282.441Z" 
transform="translate(1.112 1320.707)" fill="url(#linear-gradient)"/></svg>