<svg id="Layer_1" data-name="Layer 1" xmlns="http://www.w3.org/2000/svg" xmlns:xlink="http://www.w3.org/1999/xlink" viewBox="0 0 45.61 35.8">
<defs>
<linearGradient id="linear-gradient" x1="-465.06" y1="505.56" x2="-465.06" y2="504.56" gradientTransform="matrix(45.61, 0, 0, -35.8, 21235.63, 18099.2)" gradientUnits="userSpaceOnUse">
<stop offset="0" stop-color="var(--es--svg--end)"/>
<stop offset="1" stop-color="var(--es--svg--start)"/>
</linearGradient></defs>
<title>bat-lock-status</title>
<rect x="30" y="18.5" width="2.5" height="13.1" fill="url(#linear-gradient)"/>
<path class="cls-1" d="M44.4,19.4H43.1V16.5a1.9,1.9,0,0,0-1.9-1.9H29A14.5,14.5,0,1,0,10.6,28.5v5.4a1.9,1.9,0,0,0,1.9,1.9H41.1A1.9,1.9,0,0,0,43,33.9h0V31h1.3a1.32,1.32,0,0,0,1.3-1.3h0v-9A1.09,1.09,0,0,0,44.4,19.4ZM10.6,25.9h0A12,12,0,0,1,14.5,2.5h0a12,12,0,0,1,12,12h0a10.9,10.9,0,0,1-.3,2.6,5.73,5.73,0,0,1-.4,1.4,12.15,12.15,0,0,1-.9,2,13,13,0,0,1-2.6,3.1,13.79,13.79,0,0,1-2.5,1.7,11.42,11.42,0,0,1-2.6.9,10.68,10.68,0,0,1-2.5.3H13.5A13.56,13.56,0,0,1,10.6,25.9Zm28.5,7.3H14.6a1.11,1.11,0,0,1-1.1-1.1h0V29c.3,0,.7.1,1,.1h.2v2.6h2.5V28.9a12.94,12.94,0,0,0,2.6-.8v3.6h2.5V26.8a17.09,17.09,0,0,0,2.6-2.1v7h2.5V21.1a14.66,14.66,0,0,0,1.4-4H39.1a1.11,1.11,0,0,1,1.1,1.1V32A1.13,1.13,0,0,1,39.1,33.2Z"
fill="url(#linear-gradient)"/>
<path d="M19.53,11.33H18.27V8.45a3.78,3.78,0,0,0-7.56,0v2.88H9.45a2.1,2.1,0,0,0-2.1,2.1v7.14a2.1,2.1,0,0,0,2.1,2.1H19.53a2.1,2.1,0,0,0,2.1-2.1V13.43A2.1,2.1,0,0,0,19.53,11.33ZM12.11,8.45a2.38,2.38,0,0,1,4.76,0v2.88H12.11V8.45Zm8.12,12.11a.7.7,0,0,1-.7.7H9.45a.7.7,0,0,1-.7-.7V13.43a.7.7,0,0,1,.7-.7H19.53a.7.7,0,0,1,.7.7Z"
fill="url(#linear-gradient)"/>
<path d="M14.49,14.75a1.29,1.29,0,0,0-.7,2.38v1.54a.7.7,0,0,0,1.4,0V17.14a1.29,1.29,0,0,0-.7-2.38Z"
fill="url(#linear-gradient)"/></svg>