<svg xmlns="http://www.w3.org/2000/svg" width="45.749" height="35.825" viewBox="0 0 45.749 35.825">
<defs>
    <linearGradient id="linear-gradient" x1="0.5" x2="0.5" y2="1" gradientUnits="objectBoundingBox">
      <stop offset="0" stop-color="var(--es--svg--end)"/>
      <stop offset="1" stop-color="var(--es--svg--start)"/>
    </linearGradient>
</defs>
<g transform="translate(1402.498 1007.809)">
<rect width="2.501" height="13.06" transform="translate(-1372.507 -989.27)" fill="url(#linear-gradient)"/>
<path d="M-1358.058-988.45h-1.325v-2.911a1.936,1.936,0,0,0-1.935-1.936h-12.157a14.512,14.512,0,0,0-14.512-14.512A14.512,14.512,0,0,0-1402.5-993.3a14.505,14.505,0,0,0,10.607,13.965v5.414a1.936,1.936,0,0,0,1.936,1.935h28.637a1.935,1.935,0,0,0,1.935-1.935v-2.911h1.325a1.308,1.308,0,0,0,1.308-1.309v-9A1.308,1.308,0,0,0-1358.058-988.45Zm-33.834,6.517a12.022,12.022,0,0,1-8.122-11.365,12.026,12.026,0,0,1,12.027-12.026,12.025,12.025,0,0,1,12.026,12.026,11.7,11.7,0,0,1-.305,2.611,12.255,12.255,0,0,1-.4,1.416,12.065,12.065,0,0,1-.919,1.991,12.077,12.077,0,0,1-2.577,3.1,12.028,12.028,0,0,1-2.5,1.65,11.882,11.882,0,0,1-2.578.927,12.036,12.036,0,0,1-2.5.315c-.083,0-.163.012-.245.012-.339,0-.672-.023-1-.05A11.947,11.947,0,0,1-1391.891-981.932Zm29.607,6.22a1.118,1.118,0,0,1-1.118,1.118h-24.469a1.118,1.118,0,0,1-1.119-1.118v-3.124c.333.023.664.051,1,.051.083,0,.163-.011.245-.013v2.588h2.5v-2.842a14.437,14.437,0,0,0,2.578-.754v3.6h2.5v-4.877a14.59,14.59,0,0,0,2.577-2.1v6.979h2.5v-10.465a14.529,14.529,0,0,0,1.372-4.011h10.31a1.119,1.119,0,0,1,1.118,1.119Z" 
transform="translate(0 0)" fill="url(#linear-gradient)"/>
<path d="M-1380.482-986.732v-6.906a1.733,1.733,0,0,0-1.732-1.732h-.412v-2.307a4.623,4.623,0,0,0-4.622-4.622,4.622,4.622,0,0,0-4.622,4.622v2.307h-.412a1.733,1.733,0,0,0-1.732,1.732v6.906a1.732,1.732,0,0,0,1.732,1.732h10.068A1.732,1.732,0,0,0-1380.482-986.732Zm-10.14-11.021a3.378,3.378,0,0,1,3.374-3.374,3.378,3.378,0,0,1,3.373,3.374v2.382h-6.747Zm-1.329,11.618a.867.867,0,0,1-.868-.868v-6.365a.868.868,0,0,1,.868-.868h9.406a.868.868,0,0,1,.868.868V-987a.867.867,0,0,1-.868.868Z"
 transform="translate(-0.772 -0.501)" fill="url(#linear-gradient)"/>
</g>
</svg>