<?xml version="1.0" encoding="utf-8"?>
<!-- Generator: Adobe Illustrator 23.0.3, SVG Export Plug-In . SVG Version: 6.00 Build 0)  -->
<svg version="1.1" id="Layer_1" xmlns="http://www.w3.org/2000/svg" xmlns:xlink="http://www.w3.org/1999/xlink" x="0px" y="0px"
	 viewBox="0 0 45.7 35.8" style="enable-background:new 0 0 45.7 35.8;" xml:space="preserve">
<defs>
    <linearGradient id="linear-gradient" x1="0.5" x2="0.5" y2="1" gradientUnits="objectBoundingBox">
      <stop offset="0" stop-color="var(--es--svg--end)"/>
      <stop offset="1" stop-color="var(--es--svg--start)"/>
    </linearGradient>
</defs>
<g>
	<rect x="30" y="18.5" class="st0" width="2.5" height="13.1"/>
	<path class="st0" d="M44.4,19.4h-1.3v-2.9c0-1.1-0.9-1.9-1.9-1.9H29C29,6.5,22.5,0,14.5,0C6.5,0,0,6.5,0,14.5
		c0,6.5,4.3,12.2,10.6,14v5.4c0,1.1,0.9,1.9,1.9,1.9h28.6c1.1,0,1.9-0.9,1.9-1.9v0V31h1.3c0.7,0,1.3-0.6,1.3-1.3c0,0,0,0,0,0v-9
		C45.7,19.9,45.2,19.4,44.4,19.4z M10.6,25.9L10.6,25.9c-4.9-1.7-8.1-6.2-8.1-11.4c0-6.6,5.4-12,12-12c0,0,0,0,0,0
		c6.6,0,12,5.4,12,12c0,0,0,0,0,0c0,0.9-0.1,1.8-0.3,2.6c-0.1,0.5-0.2,1-0.4,1.4c-0.2,0.7-0.6,1.4-0.9,2c-0.7,1.2-1.6,2.2-2.6,3.1
		c-0.8,0.7-1.6,1.2-2.5,1.7c-0.8,0.4-1.7,0.7-2.6,0.9c-0.8,0.2-1.7,0.3-2.5,0.3c-0.1,0-0.2,0-0.2,0c-0.3,0-0.7,0-1,0
		C12.5,26.4,11.5,26.2,10.6,25.9z M39.1,33.2H14.6c-0.6,0-1.1-0.5-1.1-1.1c0,0,0,0,0,0V29c0.3,0,0.7,0.1,1,0.1c0.1,0,0.2,0,0.2,0
		v2.6h2.5v-2.8c0.9-0.2,1.7-0.4,2.6-0.8v3.6h2.5v-4.9c0.9-0.6,1.8-1.3,2.6-2.1v7h2.5V21.1c0.7-1.3,1.1-2.6,1.4-4h10.3
		c0.6,0,1.1,0.5,1.1,1.1l0,13.8C40.2,32.7,39.7,33.2,39.1,33.2z" fill="url(#linear-gradient)"/>
	<path class="st0" d="M22,19.6v-4.9c0-1.4-1.1-2.4-2.5-2.4H12V9.9c0.1-1.8,1.5-3.2,3.2-3.2c1.8-0.1,3.4,1.4,3.4,3.2h1.7
		c0-2.7-2.3-4.9-5-4.9c-2.7,0-5,2.1-5,4.9v2.4H9.5c-1.4,0-2.5,1.1-2.5,2.4v4.9C7,20.9,8.1,22,9.5,22h10C20.9,22,22,20.9,22,19.6z
		 M8.7,19.6v-4.9c0-0.5,0.4-0.8,0.8-0.8h10c0,0,0,0,0,0c0.5,0,0.8,0.4,0.8,0.8v4.9c0,0.5-0.4,0.8-0.8,0.8h-10
		C9,20.4,8.7,20,8.7,19.6z" fill="url(#linear-gradient)"/>
</g>
</svg>
