<svg xmlns="http://www.w3.org/2000/svg" width="42.951" height="37.955" viewBox="0 0 42.951 37.955">
<defs>
    <linearGradient id="linear-gradient" x1="0.5" x2="0.5" y2="1" gradientUnits="objectBoundingBox">
      <stop offset="0" stop-color="var(--es--svg--end)"/>
      <stop offset="1" stop-color="var(--es--svg--start)"/>
    </linearGradient>
</defs>
<path d="M-1349.149,212.912a5.45,5.45,0,0,0-5.45,5.45,5.45,5.45,0,0,0,5.45,5.45,5.45,5.45,0,0,0,5.45-5.45A5.45,5.45,0,0,0-1349.149,212.912Zm0,8.6a3.152,3.152,0,0,1-3.152-3.152,3.152,3.152,0,0,1,3.152-3.152,3.152,3.152,0,0,1,3.152,3.152A3.152,3.152,0,0,1-1349.149,221.514Z" 
transform="translate(1367.375 -200.514)" fill="url(#linear-gradient)"/>
<path d="M-1338.485,200.789a2.572,2.572,0,0,0-2.572,2.572,2.562,2.562,0,0,0,1.324,2.236v17.575h-2.688v-1.446h-6.715a18.187,18.187,0,0,0,6.724-14.135,18.227,18.227,0,0,0-18.226-18.226,18.226,18.226,0,0,0-18.226,18.226,18.187,18.187,0,0,0,6.724,14.135h-6.664v5.593h36.383v-1.651h5.184V205.6a2.561,2.561,0,0,0,1.324-2.236A2.572,2.572,0,0,0-1338.485,200.789Zm-22.153,20.784a13.983,13.983,0,0,1-13.983-13.983,13.983,13.983,0,0,1,13.983-13.983,13.983,13.983,0,0,1,13.983,13.983A13.984,13.984,0,0,1-1360.638,221.574Z" 
transform="translate(1378.864 -189.364)" fill="url(#linear-gradient)"/></svg>