<svg xmlns="http://www.w3.org/2000/svg" width="43.951" height="38.955" viewBox="0 0 43.951 38.955">
<defs>
    <linearGradient id="linear-gradient" x1="0.5" x2="0.5" y2="1" gradientUnits="objectBoundingBox">
      <stop offset="0" stop-color="var(--es--svg--end)"/>
      <stop offset="1" stop-color="var(--es--svg--start)"/>
    </linearGradient>
</defs>
<path class="a" d="M.06-1282.046v-5.593H6.724l-.217-.179-.044.047L5-1289.134l.048-.052A18.159,18.159,0,0,1,0-1301.774,18.226,18.226,0,0,1,18.226-1320a18.226,18.226,0,0,1,18.226,18.227,18.187,18.187,0,0,1-6.724,14.135h6.715v1.446h2.688v-17.575A2.562,2.562,0,0,1,37.807-1306a2.571,2.571,0,0,1,2.572-2.571A2.571,2.571,0,0,1,42.951-1306a2.56,2.56,0,0,1-1.324,2.236v20.07H36.443v1.651Zm18.166-5.745a13.984,13.984,0,0,0,13.983-13.983,13.935,13.935,0,0,0-3.776-9.557l-5.7,6.113a5.425,5.425,0,0,1,.943,3.066,5.45,5.45,0,0,1-5.45,5.449,5.425,5.425,0,0,1-2.744-.74L9.4-1290.924A13.926,13.926,0,0,0,18.226-1287.79ZM4.243-1301.774a13.933,13.933,0,0,0,3.7,9.48l6.021-6.457a5.427,5.427,0,0,1-1.191-3.4,5.45,5.45,0,0,1,5.45-5.45,5.425,5.425,0,0,1,3.1.964l5.643-6.052a13.924,13.924,0,0,0-8.74-3.067A13.983,13.983,0,0,0,4.243-1301.774ZM18.226-1299a3.152,3.152,0,0,0,3.153-3.152,3.142,3.142,0,0,0-.284-1.309L17.12-1299.2A3.146,3.146,0,0,0,18.226-1299Zm-3.152-3.152a3.138,3.138,0,0,0,.49,1.689l4.162-4.463a3.139,3.139,0,0,0-1.5-.379A3.151,3.151,0,0,0,15.074-1302.151Z" 
transform="translate(0.5 1320.5)" fill="url(#linear-gradient)"/></svg>