<svg id="Layer_1" data-name="Layer 1" xmlns="http://www.w3.org/2000/svg" xmlns:xlink="http://www.w3.org/1999/xlink" viewBox="0 0 489.58 505.4">
<defs>
<style>.cls-1{fill:url(#linear-gradient);}</style>
<linearGradient id="linear-gradient" x1="-213.85" y1="729.61" x2="-213.85" y2="723.9" gradientTransform="matrix(15, 0, 0, -17, 3409, 12631)" gradientUnits="userSpaceOnUse">
<stop offset="0" stop-color="var(--es--svg--end)"/>
<stop offset="1" stop-color="var(--es--svg--start)"/>
</linearGradient>
</defs>
<title>cable-lock</title>
<path d="M470.16,408.53a7.4,7.4,0,0,0-7.42,12.81,40.06,40.06,0,1,1-33.61-3l2.76,17.18a23.22,23.22,0,1,0,14.62-2.35l-7.83-48.7c1.33-.07,2.66-.12,4-.12a71.73,71.73,0,0,1,21.54,3.29,7.4,7.4,0,0,0,4.44-14.12,86.59,86.59,0,0,0-26-4q-3.22,0-6.37.24L380.93,25.07A23.12,23.12,0,0,0,358,5.53H324A23.23,23.23,0,1,0,324,52h46.26L387,155.87h-4.39a23.23,23.23,0,0,0-22.93,26.91l32.62,203a86.83,86.83,0,0,0-32.92,47H347.75a7.4,7.4,0,0,0,0,14.81h8.42V456a8.43,8.43,0,0,1-8.43,8.42H84.52a23.17,23.17,0,0,0,0-16.84H316.1a7.4,7.4,0,0,0,0-14.81H146.24A86.56,86.56,0,0,0,19.61,381.1,7.4,7.4,0,0,0,27,393.92a71.77,71.77,0,0,1,103.74,38.9H112.6a54.88,54.88,0,1,0,0,46.46H347.74A23.26,23.26,0,0,0,371,456a71.84,71.84,0,0,1,53.1-69.26l2.69,16.73a54.89,54.89,0,1,0,43.41,5ZM324,20.33a8.42,8.42,0,1,1-8.42,8.42A8.43,8.43,0,0,1,324,20.33Zm21.64,16.84a23.17,23.17,0,0,0,0-16.84H358a8.39,8.39,0,0,1,8.31,7.09l1.57,9.76ZM71.3,456a8.42,8.42,0,1,1-8.42-8.42A8.43,8.43,0,0,1,71.3,456Zm-8.42,40.07a40.07,40.07,0,1,1,32.66-63.3H62.88a23.23,23.23,0,1,0,0,46.46H95.54A40.16,40.16,0,0,1,62.88,496.12ZM406,377.72,374.25,180.44a8.42,8.42,0,0,1,8.31-9.76h6.77L421.71,372.1A85.59,85.59,0,0,0,406,377.72ZM451.12,456a8.42,8.42,0,1,1-8.42-8.42A8.43,8.43,0,0,1,451.12,456Z" 
transform="translate(-8 -5.53)" fill="url(#linear-gradient)"/>
<path class="cls-1" d="M244.09,311V283c0-8-6.29-13.72-14.29-13.72H186.92V255.57c.57-10.29,8.58-18.29,18.29-18.29a18.68,18.68,0,0,1,19.44,18.29h9.72c0-15.44-13.15-28-28.59-28s-28.59,12-28.59,28v13.72h-4.57A14,14,0,0,0,158.33,283v28a14,14,0,0,0,14.29,13.72H229.8A14,14,0,0,0,244.09,311Zm-76,0V283a4.51,4.51,0,0,1,4.57-4.57H229.8a4.51,4.51,0,0,1,4.57,4.57v28a4.51,4.51,0,0,1-4.57,4.57H172.63A4.51,4.51,0,0,1,168.05,311Z" 
transform="translate(-8 -5.53)" fill="url(#linear-gradient)"/>
<path d="M69.5,254.07H36.24V131.81h77.63c.06,1,.18,2,.18,3,0,12.88,0,25.77,0,38.65a14.2,14.2,0,0,1-1,5,37.44,37.44,0,0,0,0,28.81,9.55,9.55,0,0,1,1,3.27c.07,14.38,0,28.76,0,43.51H80.83c-.08,1.25-.18,2.14-.18,3,0,12,0,23.91,0,35.87a61.15,61.15,0,0,0,61.17,61.46q48.23.2,96.45,0c38.3-.2,71.71-30.62,75.79-68.72,4.53-42.35-23.33-79.18-65.33-86.32a27.48,27.48,0,0,0-4.49-.5c-13.55,0-27.09,0-40.9,0v10.5h-77.9v-33h21.9v9.87l.77.47c2.8-2.79,5.46-5.74,8.45-8.29a8.73,8.73,0,0,1,5.06-2.13c13.69-.17,27.38-.1,41.45-.1v11.14c1.72,0,3.07,0,4.41,0,13,.19,26.05-.43,39,.74,37.65,3.4,69.6,32.41,77.29,69.29,10.3,49.35-20.15,96.13-69.46,106.46a85.15,85.15,0,0,1-16.92,1.73c-31.8.16-63.61.09-95.41.08A72.41,72.41,0,0,1,69.5,293.17C69.47,280.31,69.5,267.44,69.5,254.07Z" 
transform="translate(-8 -5.53)" fill="url(#linear-gradient)"/>
<path d="M89.06,98.46c-.39,5.9,1.78,12.56-5.68,15.93,2.63,3.72,7.62,5.84,5.17,11.39H61.23V98.12c-5.77,0-11.28,0-16.8,0-6.93,0-8.36-1.44-8.37-8.31,0-6.15,0-12.3,0-18.45,0-5.14,2.35-9,7.06-11q31.85-13.76,63.77,0c4.74,2,7.09,5.85,7.15,11,.08,6.84.05,13.69,0,20.54,0,4.25-2.15,6.26-6.53,6.3-5.8,0-11.6,0-17.4.06A6.08,6.08,0,0,0,89.06,98.46ZM52.94,81.16H97.19c.28-8.32,1.13-6.63-5.82-8.66a56.88,56.88,0,0,0-32.28-.07C51.56,74.62,52.73,73,52.94,81.16Z" 
transform="translate(-8 -5.53)" fill="url(#linear-gradient)"/></svg>