<svg xmlns="http://www.w3.org/2000/svg" width="36.412" height="36.412" viewBox="0 0 36.412 36.412">
<defs>
    <linearGradient id="linear-gradient" x1="0.5" x2="0.5" y2="1" gradientUnits="objectBoundingBox">
      <stop offset="0" stop-color="var(--es--svg--end)"/>
      <stop offset="1" stop-color="var(--es--svg--start)"/>
    </linearGradient>
</defs>
<g transform="translate(1455.091 1004.228)"  fill="url(#linear-gradient)">
<path d="M-1418.679-982.909v-6.226h-4.166a14.245,14.245,0,0,0-1.9-4.628l2.93-2.93-4.4-4.4-2.905,2.906a14.273,14.273,0,0,0-4.654-1.944v-4.093H-1440v4.093a14.258,14.258,0,0,0-4.654,1.944l-2.906-2.906-4.4,4.4,2.93,2.93a14.246,14.246,0,0,0-1.9,4.628h-4.166v6.226h4.218a14.263,14.263,0,0,0,1.919,4.554l-3.005,3.005,4.4,4.4,3.03-3.03a14.235,14.235,0,0,0,4.53,1.869v4.292h6.226v-4.292a14.222,14.222,0,0,0,4.529-1.869l3.03,3.03,4.4-4.4-3.006-3.005a14.263,14.263,0,0,0,1.919-4.554Zm-8.381,2.309h0a11.438,11.438,0,0,1-.811,1.231c-.037.049-.073.1-.11.147a11.337,11.337,0,0,1-2.058,2.044c-.082.062-.164.125-.248.185a11.2,11.2,0,0,1-1.2.771h0a11.159,11.159,0,0,1-2.309.936,11.693,11.693,0,0,1-1.187.266c-.172.029-.346.058-.521.079-.13.017-.262.032-.393.044-.326.028-.655.049-.988.049s-.661-.021-.988-.049c-.132-.012-.264-.027-.394-.044-.175-.021-.348-.049-.52-.079a11.564,11.564,0,0,1-1.193-.268,11.2,11.2,0,0,1-2.3-.934h0a11.3,11.3,0,0,1-1.2-.771c-.083-.061-.165-.123-.247-.184a11.352,11.352,0,0,1-2.059-2.046c-.037-.047-.072-.1-.108-.144a11.323,11.323,0,0,1-.811-1.233h0a11.2,11.2,0,0,1-1.187-3.113c-.031-.143-.054-.288-.08-.432-.036-.2-.067-.4-.092-.607-.015-.12-.03-.241-.041-.363-.029-.333-.05-.667-.05-1.007s.021-.651.048-.973c.012-.137.027-.273.044-.408.019-.153.045-.3.07-.455a11.564,11.564,0,0,1,.255-1.17,11.163,11.163,0,0,1,.958-2.393h0a11.07,11.07,0,0,1,.771-1.2c.06-.083.121-.164.183-.245a11.333,11.333,0,0,1,2.046-2.06c.047-.037.1-.072.145-.108a11.27,11.27,0,0,1,1.232-.811h0a11.161,11.161,0,0,1,2.427-1.01,11.5,11.5,0,0,1,1.193-.268c.172-.03.345-.058.52-.079.13-.017.262-.032.394-.044.326-.028.654-.049.988-.049s.662.021.988.049c.131.012.263.027.393.044.175.021.348.05.521.079a11.627,11.627,0,0,1,1.187.266,11.184,11.184,0,0,1,2.435,1.013,11.223,11.223,0,0,1,1.229.81c.049.036.1.073.148.11a11.382,11.382,0,0,1,2.044,2.058c.063.082.124.164.185.247a11.088,11.088,0,0,1,.771,1.2h0a11.14,11.14,0,0,1,.955,2.384h0a11.8,11.8,0,0,1,.259,1.184c.024.148.049.3.068.446s.032.274.044.412c.028.321.049.644.049.972s-.021.675-.051,1.007c-.011.122-.025.243-.04.363-.025.2-.057.405-.092.606-.026.145-.049.292-.081.434-.056.258-.123.51-.2.761,0,.014-.006.028-.011.041h0A11.207,11.207,0,0,1-1427.06-980.6Z"
 fill="url(#linear-gradient)"/>
<circle cx="5.318" cy="5.318" r="5.318" transform="translate(-1442.203 -991.433)"/>
</g>
</svg>