<?xml version="1.0" encoding="utf-8"?>
<!-- Generator: Adobe Illustrator 23.0.3, SVG Export Plug-In . SVG Version: 6.00 Build 0)  -->
<svg version="1.1" id="Layer_1" xmlns="http://www.w3.org/2000/svg" xmlns:xlink="http://www.w3.org/1999/xlink" x="0px" y="0px"
	 viewBox="0 0 31.4 38" style="enable-background:new 0 0 31.4 38;" xml:space="preserve">
<style type="text/css">
	.st0{fill:url(#SVGID_1_);}
	.st1{fill:url(#SVGID_2_);}
</style>
<g>
	<linearGradient id="SVGID_1_" gradientUnits="userSpaceOnUse" x1="16.2" y1="23.188" x2="16.2" y2="9.212">
		<stop  offset="0" style="stop-color:var(--es--svg--end)"/>
		<stop  offset="1" style="stop-color:var(--es--svg--start)"/>
	</linearGradient>
	<path class="st0" d="M16.2,9.2c-3.9,0-7,3.1-7,7s3.1,7,7,7s7-3.1,7-7S20.1,9.2,16.2,9.2z M16.2,19.7c-1.9,0-3.5-1.6-3.5-3.5
		s1.6-3.5,3.5-3.5s3.5,1.6,3.5,3.5C19.7,18.1,18.1,19.7,16.2,19.7z"/>
	<linearGradient id="SVGID_2_" gradientUnits="userSpaceOnUse" x1="15.7245" y1="37.955" x2="15.7245" y2="7.077090e-05">
		<stop  offset="0" style="stop-color:var(--es--svg--end)"/>
		<stop  offset="1" style="stop-color:var(--es--svg--start)"/>
	</linearGradient>
	<path class="st1" d="M26.6,4.3c-6.3-6-16.2-5.7-22.2,0.5c-6,6.3-5.7,16.2,0.5,22.2L16.3,38l10.8-11.4C33.1,20.3,32.9,10.3,26.6,4.3
		z M24.6,24.2C24.6,24.2,24.6,24.2,24.6,24.2L24.6,24.2L16.1,33l-8.9-8.4C2.4,19.9,2.2,12.2,6.9,7.3c4.7-4.9,12.4-5.1,17.3-0.4
		C29,11.5,29.2,19.3,24.6,24.2z"/>
</g>
</svg>
