<svg xmlns="http://www.w3.org/2000/svg" width="44.819" height="45.309" viewBox="0 0 44.819 45.309">
<defs>
    <linearGradient id="linear-gradient" x1="0.5" x2="0.5" y2="1" gradientUnits="objectBoundingBox">
      <stop offset="0" stop-color="var(--es--svg--end)"/>
      <stop offset="1" stop-color="var(--es--svg--start)"/>
    </linearGradient>
</defs>
<g transform="translate(-102.448 -116.339)">
<path d="M142.541,130.706a1.328,1.328,0,0,1-.679-1.3,11.82,11.82,0,0,0-21.388-8.1,1.326,1.326,0,0,1-1.38.522,9.209,9.209,0,0,0-11.254,7.889,1.292,1.292,0,0,1-.653.979,9.143,9.143,0,0,0,4.452,17.152h6.6a1.313,1.313,0,0,0,1.313-1.313h0a1.313,1.313,0,0,0-1.313-1.313h-6.6a6.527,6.527,0,0,1-2.092-12.723h0a1.313,1.313,0,0,0,.872-1.317h0a6.521,6.521,0,0,1,2.835-5.812,6.785,6.785,0,0,1,6.788-.46h0a1.313,1.313,0,0,0,1.732-.641h0a9.193,9.193,0,0,1,17.525,3.882,9.1,9.1,0,0,1-.372,2.6,1.308,1.308,0,0,0,.678,1.516,3.636,3.636,0,0,0,.495.212,6.529,6.529,0,0,1-2.114,12.746h-8.154a1.313,1.313,0,0,0-1.313,1.313h0a1.313,1.313,0,0,0,1.313,1.313h8.154a9.142,9.142,0,0,0,4.553-17.146Z"
fill="url(#linear-gradient)"/>
<path d="M208.976,298.7a1.46,1.46,0,0,0-2.064,0l-4.338,4.339v-13.6a1.576,1.576,0,0,0-3.151,0v13.6l-4.338-4.339a1.459,1.459,0,1,0-2.064,2.064l6.946,6.946a1.459,1.459,0,0,0,2.064,0l6.946-6.946A1.459,1.459,0,0,0,208.976,298.7Z"
transform="translate(-76.988 -146.488)" fill="url(#linear-gradient)"/></g></svg>