<?xml version="1.0" encoding="utf-8"?>
<!-- Generator: Adobe Illustrator 23.0.3, SVG Export Plug-In . SVG Version: 6.00 Build 0)  -->
<svg version="1.1" id="Layer_1" xmlns="http://www.w3.org/2000/svg" xmlns:xlink="http://www.w3.org/1999/xlink" x="0px" y="0px"
	 viewBox="0 0 44.3 45.6" style="enable-background:new 0 0 44.3 45.6;" xml:space="preserve">
<defs>
    <linearGradient id="linear-gradient" x1="0.5" x2="0.5" y2="1" gradientUnits="objectBoundingBox">
      <stop offset="0" stop-color="var(--es--svg--end)"/>
      <stop offset="1" stop-color="var(--es--svg--start)"/>
    </linearGradient>
</defs>
<g>
	<path d="M37,15.1c2.4-2.8,2.1-7.1-0.7-9.5c-2.8-2.4-7.1-2.1-9.5,0.7c0,0,0,0,0,0L11.7,23.7l-1.4-1.2l-7.8,9l0.7,0.6l-1.4,3.8
		l9.4,8.2l3.6-2l0.7,0.6l7.8-9l-1.4-1.2L37,15.1z M11.5,42.1l-7.7-6.7l0.8-2.1l8.9,7.7L11.5,42.1z M15.3,40.2L5,31.3l2.5-2.9
		l10.2,8.9L15.3,40.2z M13.7,25.4L28.8,8c1.5-1.7,4.1-2,5.8-0.5s2,4.1,0.5,5.8c0,0-0.1,0.1-0.1,0.1L19.9,30.8L13.7,25.4z" fill="url(#linear-gradient)"/>
	<path d="M35.3,27v8c0,0.6,0.4,1,1,1s1-0.4,1-1v-8c0-0.6-0.4-1-1-1S35.3,26.4,35.3,27z" fill="url(#linear-gradient)"/>
	<path d="M42,30.3l-1.4,1.4c0,0,0,0,0,0c2.3,2.3,2.3,6.1,0,8.5s-6.1,2.3-8.5,0c-2.3-2.3-2.3-6.1,0-8.5l-1.4-1.4
		c-1.5,1.5-2.3,3.5-2.3,5.7c0,2.1,0.8,4.2,2.3,5.7c3.1,3.1,8.2,3.1,11.3,0C45.1,38.5,45.1,33.4,42,30.3z" fill="url(#linear-gradient)"/>
</g>
</svg>
