<svg xmlns="http://www.w3.org/2000/svg" width="40.625" height="40.407" viewBox="0 0 40.625 40.407">
<defs>
    <linearGradient id="linear-gradient" x1="0.5" x2="0.5" y2="1" gradientUnits="objectBoundingBox">
      <stop offset="0" stop-color="var(--es--svg--end)"/>
      <stop offset="1" stop-color="var(--es--svg--start)"/>
    </linearGradient>
</defs>
<g transform="translate(2.763)">
<path d="M26.918,18.52a10.941,10.941,0,0,0-2.307.246V16.449a4.538,4.538,0,0,0-4.532-4.532h-.737v-3.5a8.418,8.418,0,1,0-16.836,0v3.5H1.769a4.537,4.537,0,0,0-4.532,4.532v12.4a4.537,4.537,0,0,0,4.532,4.532H16.7A10.943,10.943,0,1,0,26.918,18.52ZM5.031,8.418a5.893,5.893,0,1,1,11.785,0v3.5H5.031Zm11.032,22.44H1.769A2.009,2.009,0,0,1-.238,28.851v-12.4a2.009,2.009,0,0,1,2.007-2.007H20.079a2.009,2.009,0,0,1,2.007,2.007v3.2a10.95,10.95,0,0,0-6.022,11.211Zm10.855,7.024a8.418,8.418,0,1,1,8.418-8.418A8.426,8.426,0,0,1,26.918,37.882Z" 
transform="translate(0 0)" fill="url(#linear-gradient)"/>
<path d="M305.867,318.3a1.266,1.266,0,0,0-1.783.118l-5,5.718-2.414-2.413a1.263,1.263,0,1,0-1.786,1.786l3.367,3.367a1.26,1.26,0,0,0,.892.37h.042a1.281,1.281,0,0,0,.911-.429l5.893-6.734A1.263,1.263,0,0,0,305.867,318.3Z"
 transform="translate(-273.812 -292.89)" fill="url(#linear-gradient)"/></g></svg>