<?xml version="1.0" encoding="utf-8"?>
<!-- Generator: Adobe Illustrator 23.0.3, SVG Export Plug-In . SVG Version: 6.00 Build 0)  -->
<svg version="1.1" id="Layer_1" xmlns="http://www.w3.org/2000/svg" xmlns:xlink="http://www.w3.org/1999/xlink" x="0px" y="0px"
	 viewBox="0 0 32.5 38" style="enable-background:new 0 0 32.5 38;" xml:space="preserve">
<linearGradient id="SVGID_1_" gradientUnits="userSpaceOnUse" x1="16.266" y1="37.954" x2="16.266" y2="-1.525879e-05">
	<stop offset="0" stop-color="var(--es--svg--end)"/>
      <stop offset="1" stop-color="var(--es--svg--start)"/>
</linearGradient>
<path class="st0" d="M27.1,16.3v-5.4c0-6-4.9-10.8-10.8-10.8c-6,0-10.8,4.9-10.8,10.8v5.4c-3,0-5.4,2.4-5.4,5.4v10.8
	c0,3,2.4,5.4,5.4,5.4h21.7c3,0,5.4-2.4,5.4-5.4V21.7C32.5,18.7,30.1,16.3,27.1,16.3z M9,10.8c0-4,3.2-7.2,7.2-7.2
	c4,0,7.2,3.2,7.2,7.2c0,0,0,0,0,0v5.4H9V10.8z M28.9,32.5c0,1-0.8,1.8-1.8,1.8H5.4c0,0,0,0,0,0c-1,0-1.8-0.8-1.8-1.8V21.7
	c0-1,0.8-1.8,1.8-1.8h21.7c1,0,1.8,0.8,1.8,1.8V32.5z" fill="url(#linear-gradient)"/>
</svg>
