<svg xmlns="http://www.w3.org/2000/svg" width="36.58" height="36.955" viewBox="0 0 36.58 36.955">
<defs>
    <linearGradient id="linear-gradient" x1="0.5" x2="0.5" y2="1" gradientUnits="objectBoundingBox">
      <stop offset="0" stop-color="var(--es--svg--end)"/>
      <stop offset="1" stop-color="var(--es--svg--start)"/>
    </linearGradient>
</defs>
<path d="M-1432.857-517.915a15.826,15.826,0,0,1-13.951-8.347l1.988-1.035-5.735-3.294-.591,6.587,1.994-1.038a18.469,18.469,0,0,0,16.3,9.77,18.484,18.484,0,0,0,17.58-12.777h-2.805A15.838,15.838,0,0,1-1432.857-517.915Z" 
transform="translate(1451.147 552.225)" fill="url(#linear-gradient)"/>
<rect width="2.855" height="9.622" transform="translate(16.862 7.95)" fill="url(#linear-gradient)"/>
<path d="M-1395.4-595.805l-2.042-2.042-.22.237a10.368,10.368,0,0,0-2.769,7.065,10.414,10.414,0,0,0,10.4,10.4,10.414,10.414,0,0,0,10.4-10.4,10.368,10.368,0,0,0-2.769-7.065l-.22-.237-2.042,2.042.2.219a7.5,7.5,0,0,1,1.943,5.041,7.521,7.521,0,0,1-7.513,7.512,7.521,7.521,0,0,1-7.513-7.512,7.5,7.5,0,0,1,1.942-5.041Z" 
transform="translate(1408.316 609.023)" fill="url(#linear-gradient)"/>
<path d="M-1412.705-659.938a18.47,18.47,0,0,0-16.3-9.77,18.485,18.485,0,0,0-17.58,12.777h2.805A15.837,15.837,0,0,1-1429-667.063a15.826,15.826,0,0,1,13.951,8.347l-1.988,1.035,5.735,3.293.591-6.587Z" 
transform="translate(1447.291 669.708)" fill="url(#linear-gradient)"/></svg>