<svg xmlns="http://www.w3.org/2000/svg" width="42.988" height="35.424" viewBox="0 0 42.988 35.424">
<defs>
    <linearGradient id="linear-gradient" x1="0.5" x2="0.5" y2="1" gradientUnits="objectBoundingBox">
      <stop offset="0" stop-color="var(--es--svg--end)"/>
      <stop offset="1" stop-color="var(--es--svg--start)"/>
    </linearGradient>
</defs>
<path d="M-1491.333,509.3l-6.691,6.862c-.039,0-.078-.006-.118-.006a3.391,3.391,0,0,0-3.391,3.391,3.391,3.391,0,0,0,3.391,3.391,3.391,3.391,0,0,0,3.391-3.391c0-.04,0-.078-.006-.117l6.691-6.862Z" 
transform="translate(1519.636 -498.058)" fill="url(#linear-gradient)"/>
<path d="M-1560.624,463.76a21.494,21.494,0,0,0-21.494,21.494,21.407,21.407,0,0,0,4.928,13.7l3.329-2.792a17.079,17.079,0,0,1-3.912-10.9,17.15,17.15,0,0,1,17.15-17.149,17.15,17.15,0,0,1,17.15,17.149,17.076,17.076,0,0,1-4.113,11.136l3.332,2.794a21.408,21.408,0,0,0,5.126-13.93A21.494,21.494,0,0,0-1560.624,463.76Z" 
transform="translate(1582.118 -463.76)" fill="url(#linear-gradient)"/></svg>