<svg xmlns="http://www.w3.org/2000/svg" width="31.854" height="42.302" viewBox="0 0 31.854 42.302">
<defs>
    <linearGradient id="linear-gradient" x1="0.5" x2="0.5" y2="1" gradientUnits="objectBoundingBox">
      <stop offset="0" stop-color="var(--es--svg--end)"/>
      <stop offset="1" stop-color="var(--es--svg--start)"/>
    </linearGradient>
</defs>
<path d="M-1468.9-983.641a3.768,3.768,0,0,0-2.934.141,3.557,3.557,0,0,0-2.015-1.806,4.032,4.032,0,0,0-2.942.153,3.438,3.438,0,0,0-1.96-1.795,11.166,11.166,0,0,0,2.676-7.263,11.221,11.221,0,0,0-11.221-11.221,11.222,11.222,0,0,0-11.222,11.221,11.218,11.218,0,0,0,9.912,11.138q0,.811,0,1.62v3.359l-.173-.159c-.425-.389-.828-.756-1.215-1.138a3.922,3.922,0,0,0-3.408-1.113,3.567,3.567,0,0,0-3.108,2.594,3.156,3.156,0,0,0,1.035,3.55q2.2,2,4.378,4.031,1.7,1.571,3.4,3.136c.872.8,1.61,1.432,2.323,1.989a9.522,9.522,0,0,0,4.842,1.882c.391.048.781.089,1.173.131l.574.06,2.666,0,.131-.022a1.8,1.8,0,0,1,.222-.031,15.36,15.36,0,0,0,3.491-.59,6.938,6.938,0,0,0,4.661-3.881,9.937,9.937,0,0,0,.862-3.826c.063-2.63.091-5.439.089-9.107A3.225,3.225,0,0,0-1468.9-983.641Zm-27.222-10.57a8.826,8.826,0,0,1,8.827-8.826,8.826,8.826,0,0,1,8.826,8.826,8.793,8.793,0,0,1-2.927,6.551v-.058c0-.641,0-1.281,0-1.922a3.4,3.4,0,0,0-.471-1.817,3.477,3.477,0,0,0-2.519-1.638l1.935-1.117-7.748-4.473v8.946l1.775-1.024a3.634,3.634,0,0,0-.183,1.141q0,2.066,0,4.128A8.82,8.82,0,0,1-1496.118-994.211ZM-1468.955-978c0,1.95,0,3.966-.036,5.947a12.494,12.494,0,0,1-.328,2.576,4.785,4.785,0,0,1-3.735,3.668,17.624,17.624,0,0,1-5.7.468,11.859,11.859,0,0,1-3.469-.647,7.654,7.654,0,0,1-2.6-1.588q-4.4-4.07-8.8-8.135c-.624-.577-.761-1.046-.469-1.618a1.627,1.627,0,0,1,1.454-.871,1.767,1.767,0,0,1,.292.026,1.681,1.681,0,0,1,.876.457q1.691,1.575,3.392,3.142l1.078.995c.049.045.1.088.163.141l.548.47,0-5.076c0-1.664-.005-3.329-.005-4.994q0-1.2,0-2.4c0-1.282,0-2.563-.005-3.844a1.327,1.327,0,0,1,.534-1.077,1.39,1.39,0,0,1,1.235-.216,1.156,1.156,0,0,1,.825,1.015c.011.142.011.285.011.458l0,2.951,0,2.566,0,4.355a1.193,1.193,0,0,0,.332.871,1.171,1.171,0,0,0,.837.312,1.1,1.1,0,0,0,1.125-1.182l0-1.745q0-1.163,0-2.326a1.375,1.375,0,0,1,.5-1.129,1.383,1.383,0,0,1,1.226-.175,1.107,1.107,0,0,1,.877,1.168q.006,1.653,0,3.307l0,2.206a1.119,1.119,0,0,0,1.146,1.207h.007a1.119,1.119,0,0,0,.811-.315,1.218,1.218,0,0,0,.337-.884v-1.293c0-.861,0-1.722.006-2.583a1.213,1.213,0,0,1,1.077-1.208,1.408,1.408,0,0,1,1.516.935,1.95,1.95,0,0,1,.033.417l.005,4.744a1.119,1.119,0,0,0,1.137,1.181,1.149,1.149,0,0,0,.808-.307,1.194,1.194,0,0,0,.336-.867l0-.539c0-.9.009-1.8,0-2.7a1.191,1.191,0,0,1,.635-1.179,1.446,1.446,0,0,1,1.469.042.948.948,0,0,1,.48.743,2.266,2.266,0,0,1,.018.314Z" 
transform="translate(1498.513 1005.432)" fill="url(#linear-gradient)"/></svg>