<svg xmlns="http://www.w3.org/2000/svg" width="37.056" height="41.118" viewBox="0 0 37.056 41.118">
<defs>
    <linearGradient id="linear-gradient" x1="0.5" x2="0.5" y2="1" gradientUnits="objectBoundingBox">
      <stop offset="0" stop-color="var(--es--svg--end)"/>
      <stop offset="1" stop-color="var(--es--svg--start)"/>
    </linearGradient>
</defs>
<path d="M-1462.442-980.793a4.653,4.653,0,0,0-3.62.173,4.392,4.392,0,0,0-2.486-2.228,4.982,4.982,0,0,0-3.63.189,4.235,4.235,0,0,0-2.452-2.229,4.713,4.713,0,0,0-3.23.032v-.967c0-.791,0-1.58,0-2.371a4.193,4.193,0,0,0-.581-2.242,4.475,4.475,0,0,0-5.115-1.9,4.246,4.246,0,0,0-3.2,4.164q-.006,5.04,0,10.078v4.145l-.214-.2c-.525-.479-1.021-.932-1.5-1.4a4.834,4.834,0,0,0-4.205-1.371,4.4,4.4,0,0,0-3.835,3.2,3.893,3.893,0,0,0,1.277,4.38q2.712,2.473,5.4,4.973,2.1,1.938,4.2,3.869c1.077.988,1.986,1.767,2.866,2.454a11.735,11.735,0,0,0,5.974,2.322c.482.059.964.11,1.447.162l.708.073,3.289,0,.162-.026a2.505,2.505,0,0,1,.274-.038,18.808,18.808,0,0,0,4.308-.727,8.558,8.558,0,0,0,5.75-4.789,12.274,12.274,0,0,0,1.064-4.72c.077-3.245.111-6.71.109-11.234A3.98,3.98,0,0,0-1462.442-980.793Zm-21.464,13.165,0-6.262c0-4.623.008-9.247-.017-13.87a1.638,1.638,0,0,1,.659-1.328,1.715,1.715,0,0,1,1.525-.266,1.426,1.426,0,0,1,1.017,1.253c.014.175.014.352.014.565l.013,12.18a1.473,1.473,0,0,0,.41,1.074,1.444,1.444,0,0,0,1.032.385,1.351,1.351,0,0,0,1.388-1.459l0-2.153q0-1.435.005-2.868a1.7,1.7,0,0,1,.619-1.394,1.705,1.705,0,0,1,1.513-.216,1.365,1.365,0,0,1,1.082,1.441q.008,2.04.005,4.08l0,2.721a1.381,1.381,0,0,0,1.415,1.489h.009a1.381,1.381,0,0,0,1-.388,1.5,1.5,0,0,0,.415-1.089v-1.6c0-1.061,0-2.124.008-3.187a1.5,1.5,0,0,1,1.328-1.49,1.737,1.737,0,0,1,1.87,1.154,2.385,2.385,0,0,1,.041.515l.006,5.853a1.381,1.381,0,0,0,1.4,1.458,1.419,1.419,0,0,0,1-.378,1.473,1.473,0,0,0,.415-1.07l0-.665c.005-1.111.011-2.222,0-3.334a1.471,1.471,0,0,1,.783-1.455,1.785,1.785,0,0,1,1.812.052,1.17,1.17,0,0,1,.592.917,2.83,2.83,0,0,1,.023.387l0,2.74c0,2.406,0,4.894-.044,7.338a15.42,15.42,0,0,1-.4,3.178,5.9,5.9,0,0,1-4.608,4.525,21.739,21.739,0,0,1-7.034.577,14.621,14.621,0,0,1-4.28-.8,9.422,9.422,0,0,1-3.208-1.958q-5.428-5.021-10.861-10.036c-.771-.712-.939-1.29-.579-2a2.007,2.007,0,0,1,1.794-1.073,2.055,2.055,0,0,1,.36.032,2.066,2.066,0,0,1,1.082.563q2.086,1.943,4.185,3.876l1.33,1.228c.061.054.123.108.2.173Z"
 transform="translate(1496.738 996.605)"  fill="url(#linear-gradient)"/>
 <path d="M-1488.94-980.93v-1.552c0-.793,0-1.538-.006-2.282a2.015,2.015,0,0,0-.145-.72,5.121,5.121,0,0,1,.024-4.065,6.2,6.2,0,0,1,7.711-3.172,5.586,5.586,0,0,1,3.883,5.674c-.011.186-.036.372-.057.516l-.048.395,2.334.956.1-.024a.411.411,0,0,0,.275-.344,7.515,7.515,0,0,0-1.592-6.979,8.841,8.841,0,0,0-8.144-3.153,8.438,8.438,0,0,0-7.693,7.566,7.91,7.91,0,0,0,2.828,6.693Z"
 transform="translate(1497.909 995.748)" fill="url(#linear-gradient)"/></svg>