<svg xmlns="http://www.w3.org/2000/svg" width="39.464" height="40.913" viewBox="0 0 39.464 40.913">
<defs>
    <linearGradient id="linear-gradient" x1="0.5" x2="0.5" y2="1" gradientUnits="objectBoundingBox">
      <stop offset="0" stop-color="var(--es--svg--end)"/>
      <stop offset="1" stop-color="var(--es--svg--start)"/>
    </linearGradient>
</defs>
<g transform="translate(0)">
<path d="M-1472.143-984.109a3.336,3.336,0,0,0-2.6.124,3.15,3.15,0,0,0-1.783-1.6,3.573,3.573,0,0,0-2.6.135,3.037,3.037,0,0,0-1.758-1.6,3.38,3.38,0,0,0-2.316.023v-.693c0-.567,0-1.133,0-1.7a3.008,3.008,0,0,0-.417-1.608,3.209,3.209,0,0,0-3.668-1.362,3.045,3.045,0,0,0-2.3,2.986q0,3.615,0,7.228v2.972l-.153-.141c-.376-.344-.732-.669-1.075-1.007a3.466,3.466,0,0,0-3.016-.983,3.154,3.154,0,0,0-2.75,2.295,2.792,2.792,0,0,0,.915,3.141q1.945,1.773,3.873,3.567,1.5,1.39,3.009,2.774c.772.709,1.425,1.268,2.055,1.76a8.417,8.417,0,0,0,4.284,1.665c.346.043.691.079,1.038.116l.508.053,2.359,0,.116-.019a1.844,1.844,0,0,1,.2-.027,13.484,13.484,0,0,0,3.089-.522,6.137,6.137,0,0,0,4.124-3.434,8.8,8.8,0,0,0,.763-3.385c.055-2.327.08-4.812.078-8.057A2.854,2.854,0,0,0-1472.143-984.109Zm-15.393,9.441,0-4.491c0-3.315.005-6.632-.012-9.947a1.174,1.174,0,0,1,.473-.953,1.23,1.23,0,0,1,1.093-.19,1.022,1.022,0,0,1,.729.9c.01.125.01.252.01.406l.009,8.735a1.056,1.056,0,0,0,.294.77,1.035,1.035,0,0,0,.74.276.969.969,0,0,0,1-1.046l0-1.544q0-1.029,0-2.057a1.217,1.217,0,0,1,.444-1,1.223,1.223,0,0,1,1.085-.155.979.979,0,0,1,.776,1.033q.005,1.463,0,2.926l0,1.952a.99.99,0,0,0,1.014,1.068h.006a.99.99,0,0,0,.718-.279,1.073,1.073,0,0,0,.3-.781v-1.145c0-.761,0-1.523.005-2.286a1.073,1.073,0,0,1,.953-1.069,1.246,1.246,0,0,1,1.341.827,1.708,1.708,0,0,1,.029.369l0,4.2a.99.99,0,0,0,1.006,1.045,1.017,1.017,0,0,0,.715-.271,1.056,1.056,0,0,0,.3-.768l0-.477c0-.8.008-1.593,0-2.391a1.055,1.055,0,0,1,.562-1.043,1.28,1.28,0,0,1,1.3.037.838.838,0,0,1,.425.658,2.028,2.028,0,0,1,.016.278l0,1.965c0,1.726,0,3.51-.032,5.262a11.046,11.046,0,0,1-.29,2.279,4.233,4.233,0,0,1-3.3,3.245,15.593,15.593,0,0,1-5.045.414,10.485,10.485,0,0,1-3.07-.572,6.755,6.755,0,0,1-2.3-1.4q-3.893-3.6-7.789-7.2c-.553-.511-.673-.926-.416-1.432a1.439,1.439,0,0,1,1.287-.769,1.475,1.475,0,0,1,.259.023,1.482,1.482,0,0,1,.776.4q1.5,1.394,3,2.78l.953.881c.044.039.088.077.144.124Z" 
transform="translate(1496.738 995.449)" fill="url(#linear-gradient)"/>
<path d="M-1489.9-985.122v-1.113c0-.569,0-1.1,0-1.637a1.441,1.441,0,0,0-.1-.516,3.674,3.674,0,0,1,.017-2.915,4.443,4.443,0,0,1,5.53-2.275,4.006,4.006,0,0,1,2.785,4.069c-.008.133-.026.267-.041.37l-.034.283,1.674.686.072-.017a.3.3,0,0,0,.2-.247,5.389,5.389,0,0,0-1.141-5,6.34,6.34,0,0,0-5.84-2.261,6.051,6.051,0,0,0-5.517,5.426,5.673,5.673,0,0,0,2.028,4.8Z" 
transform="translate(1496.329 995.748)" fill="url(#linear-gradient)"/>
<path d="M-1963.155-1445.972q.293,2.833.586,5.667.328,3.142.659,6.284.331,3.159.66,6.319.361,3.468.721,6.937c.043.41.088.821.134,1.247a4.606,4.606,0,0,1,2.385,1.035,4.457,4.457,0,0,1,.414,6.44,4.465,4.465,0,0,1-6.455.146.793.793,0,0,0-.5-.211q-8.966-.017-17.932,0a.789.789,0,0,0-.5.21,4.487,4.487,0,0,1-5.2.821,4.492,4.492,0,0,1-2.39-4.695,4.464,4.464,0,0,1,3.735-3.709,4.333,4.333,0,0,1,3.85,1.269.7.7,0,0,0,.542.221q8.949-.008,17.9-.014a.967.967,0,0,0,.474-.2c.468-.308.915-.65,1.392-.944.161-.1.232-.167.211-.361q-.511-4.772-1.01-9.546-.536-5.134-1.063-10.269c-.157-1.511-.321-3.021-.485-4.562h-2.657v-2.087Zm-18.555,31.761h16.379v-1.692h-16.379Zm20.836-3.247a2.4,2.4,0,0,0-2.414,2.372,2.415,2.415,0,0,0,2.37,2.423,2.407,2.407,0,0,0,2.43-2.394A2.4,2.4,0,0,0-1960.875-1417.458Zm-25.239,0a2.391,2.391,0,0,0-2.437,2.344,2.409,2.409,0,0,0,2.34,2.448,2.411,2.411,0,0,0,2.457-2.333A2.4,2.4,0,0,0-1986.114-1417.457Z" 
transform="translate(1995.878 1451.501)" fill="url(#linear-gradient)"/></g></svg>