<svg xmlns="http://www.w3.org/2000/svg" width="41.486" height="41.485" viewBox="0 0 41.486 41.485">
<defs>
    <linearGradient id="linear-gradient" x1="0.5" x2="0.5" y2="1" gradientUnits="objectBoundingBox">
      <stop offset="0" stop-color="var(--es--svg--end)"/>
      <stop offset="1" stop-color="var(--es--svg--start)"/>
    </linearGradient>
</defs>
<path class="a" d="M0-1299.758A20.243,20.243,0,0,1,20.243-1320a20.243,20.243,0,0,1,20.243,20.243,20.243,20.243,0,0,1-20.243,20.242A20.243,20.243,0,0,1,0-1299.758Zm20.243,15.53a15.53,15.53,0,0,0,15.53-15.53,15.47,15.47,0,0,0-3.673-10.03l-7.764,8.326,2.951,1.7-9.833,5.677-6.389,6.851A15.462,15.462,0,0,0,20.243-1284.228Zm-15.53-15.53a15.483,15.483,0,0,0,4.644,11.076l6.734-7.221v-10.319l6.255,3.612,8.187-8.78a15.472,15.472,0,0,0-10.29-3.9A15.531,15.531,0,0,0,4.712-1299.758Z" 
transform="translate(0.5 1320.5)" fill="url(#linear-gradient)"/></svg>