<svg id="Layer_1" data-name="Layer 1" xmlns="http://www.w3.org/2000/svg" xmlns:xlink="http://www.w3.org/1999/xlink" viewBox="0 0 492.58 499.65">
<defs>
<linearGradient id="linear-gradient" x1="0.5" x2="0.5" y2="1" gradientUnits="objectBoundingBox">
<stop offset="0" stop-color="var(--es--svg--end)"/>
<stop offset="1" stop-color="var(--es--svg--start)"/>
</linearGradient>
</defs>
<title>wheel-lock</title>
<path d="M456.59,396.69a7.19,7.19,0,0,0-7.2,12.44,38.88,38.88,0,1,1-32.62-2.94l2.68,16.67a22.54,22.54,0,1,0,14.19-2.28L426,373.31c1.29-.07,2.59-.11,3.89-.11a69.63,69.63,0,0,1,20.91,3.19,7.19,7.19,0,0,0,4.31-13.71,84,84,0,0,0-25.22-3.85q-3.12,0-6.18.23L370,24.49a22.45,22.45,0,0,0-22.26-19h-33a22.55,22.55,0,1,0,0,45.09h44.9l16.21,100.84h-4.26a22.55,22.55,0,0,0-22.26,26.12l31.67,197a84.28,84.28,0,0,0-32,45.66H337.77a7.19,7.19,0,1,0,0,14.37h8.17v8.17a8.18,8.18,0,0,1-8.18,8.17H82.28a22.49,22.49,0,0,0,0-16.35H307a7.19,7.19,0,1,0,0-14.37H142.18a84,84,0,0,0-122.91-50.2,7.19,7.19,0,0,0,7.2,12.44,69.66,69.66,0,0,1,100.69,37.76H109.53a53.27,53.27,0,1,0,0,45.1H337.76a22.58,22.58,0,0,0,22.55-22.55,69.73,69.73,0,0,1,51.54-67.22l2.61,16.24a53.27,53.27,0,1,0,42.13,4.86ZM314.72,19.9a8.17,8.17,0,1,1-8.17,8.17A8.18,8.18,0,0,1,314.72,19.9Zm21,16.35a22.49,22.49,0,0,0,0-16.35h12a8.14,8.14,0,0,1,8.07,6.88l1.52,9.47ZM69.44,442.82a8.17,8.17,0,1,1-8.17-8.17A8.18,8.18,0,0,1,69.44,442.82Zm-8.17,38.9A38.9,38.9,0,1,1,93,420.27H61.27a22.55,22.55,0,1,0,0,45.09H93A39,39,0,0,1,61.27,481.71Zm333-114.93L363.49,175.3a8.18,8.18,0,0,1,8.07-9.47h6.57l31.42,195.5A83.08,83.08,0,0,0,394.27,366.79Zm43.83,76a8.17,8.17,0,1,1-8.17-8.17A8.18,8.18,0,0,1,438.1,442.82Z" 
transform="translate(-8 -5.53)" fill="url(#linear-gradient)"/>
<circle cx="428.81" cy="435.89" r="63.77" fill="url(#linear-gradient)"/>
<circle class="cls-1" cx="428.81" cy="435.89" r="53.58" fill="url(#linear-gradient)"/>
<path class="cls-2" d="M467.63,464V443.13c0-6-4.69-10.22-10.65-10.22H425V422.68c.43-7.67,6.39-13.63,13.63-13.63a13.92,13.92,0,0,1,14.48,13.63h7.24c0-11.5-9.8-20.87-21.3-20.87a21,21,0,0,0-21.3,20.87v10.22h-3.41a10.46,10.46,0,0,0-10.65,10.22V464a10.46,10.46,0,0,0,10.65,10.22H457A10.46,10.46,0,0,0,467.63,464ZM411,464V443.13a3.36,3.36,0,0,1,3.41-3.41H457a3.36,3.36,0,0,1,3.41,3.41V464a3.36,3.36,0,0,1-3.41,3.41H414.38A3.36,3.36,0,0,1,411,464Z" 
transform="translate(-8 -5.53)" fill="url(#linear-gradient)"/></svg>