<svg id="Layer_1" data-name="Layer 1" xmlns="http://www.w3.org/2000/svg" viewBox="0 0 492.58 499.65">
<defs>
    <linearGradient id="linear-gradient" x1="0.5" x2="0.5" y2="1" gradientUnits="objectBoundingBox">
      <stop offset="0" stop-color="var(--es--svg--end)"/>
      <stop offset="1" stop-color="var(--es--svg--start)"/>
    </linearGradient>
</defs>
<title>wheel-lock-status</title>
<path d="M456.59,396.69a7.19,7.19,0,0,0-7.2,12.44,38.88,38.88,0,1,1-32.62-2.94l2.68,16.67a22.54,22.54,0,1,0,14.19-2.28L426,373.31c1.29-.07,2.59-.11,3.89-.11a69.63,69.63,0,0,1,20.91,3.19,7.19,7.19,0,0,0,4.31-13.71,84,84,0,0,0-25.22-3.85q-3.12,0-6.18.23L370,24.49a22.45,22.45,0,0,0-22.26-19h-33a22.55,22.55,0,1,0,0,45.09h44.9l16.21,100.84h-4.26a22.55,22.55,0,0,0-22.26,26.12l31.67,197a84.28,84.28,0,0,0-32,45.66H337.77a7.19,7.19,0,1,0,0,14.37h8.17v8.17a8.18,8.18,0,0,1-8.18,8.17H82.28a22.49,22.49,0,0,0,0-16.35H307a7.19,7.19,0,1,0,0-14.37H142.18a84,84,0,0,0-122.91-50.2,7.19,7.19,0,0,0,7.2,12.44,69.66,69.66,0,0,1,100.69,37.76H109.53a53.27,53.27,0,1,0,0,45.1H337.76a22.58,22.58,0,0,0,22.55-22.55,69.73,69.73,0,0,1,51.54-67.22l2.61,16.24a53.27,53.27,0,1,0,42.13,4.86ZM314.72,19.9a8.17,8.17,0,1,1-8.17,8.17A8.18,8.18,0,0,1,314.72,19.9Zm21,16.35a22.49,22.49,0,0,0,0-16.35h12a8.14,8.14,0,0,1,8.07,6.88l1.52,9.47ZM69.44,442.82a8.17,8.17,0,1,1-8.17-8.17A8.18,8.18,0,0,1,69.44,442.82Zm-8.17,38.9A38.9,38.9,0,1,1,93,420.27H61.27a22.55,22.55,0,1,0,0,45.09H93A39,39,0,0,1,61.27,481.71Zm333-114.93L363.49,175.3a8.18,8.18,0,0,1,8.07-9.47h6.57l31.42,195.5A83.08,83.08,0,0,0,394.27,366.79Zm43.83,76a8.17,8.17,0,1,1-8.17-8.17A8.18,8.18,0,0,1,438.1,442.82Z" 
transform="translate(-8 -5.53)" fill="url(#linear-gradient)"/>
<circle cx="428.81" cy="435.89" r="63.77" fill="url(#linear-gradient)"/>
<circle class="cls-1" cx="428.81" cy="435.89" r="53.58" fill="url(#linear-gradient)"/>
<path d="M461.76,426.78h-5.95V413.21a17.83,17.83,0,0,0-35.65,0v13.57h-5.94a9.91,9.91,0,0,0-9.9,9.9v33.67a9.91,9.91,0,0,0,9.9,9.9h47.53a9.91,9.91,0,0,0,9.9-9.9V436.68A9.91,9.91,0,0,0,461.76,426.78Zm-35-13.57a11.23,11.23,0,0,1,22.44,0v13.57H426.77V413.21Zm38.29,57.14a3.3,3.3,0,0,1-3.3,3.3H414.24a3.3,3.3,0,0,1-3.3-3.3V436.68a3.3,3.3,0,0,1,3.3-3.3h47.53a3.3,3.3,0,0,1,3.3,3.3Z" 
transform="translate(-8 -5.53)" fill="url(#linear-gradient)"/>
<path d="M438,443a6.11,6.11,0,0,0-3.31,11.24v7.25a3.3,3.3,0,0,0,6.6,0V454.2A6.11,6.11,0,0,0,438,443Z" 
transform="translate(-8 -5.53)" fill="url(#linear-gradient)"/></svg>