<svg version="1.1" id="Capa_1" xmlns="http://www.w3.org/2000/svg" xmlns:xlink="http://www.w3.org/1999/xlink" x="0px" y="0px"
     viewBox="0 0 454.914 454.914" style="enable-background:new 0 0 454.914 454.914;" xml:space="preserve">
<g>
	<path d="M348.963,107.661c-2.688-3.151-7.421-3.527-10.573-0.839c-3.151,2.688-3.527,7.422-0.839,10.573
		c56.819,66.61,77.111,139.395,47.201,169.305c-15.83,15.83-43.949,18.08-79.176,6.338c-36.979-12.327-76.664-38.434-111.743-73.513
		c-35.079-35.079-61.187-74.764-73.513-111.744c-11.743-35.228-9.492-63.346,6.338-79.175
		c29.91-29.911,102.695-9.619,169.305,47.201c3.152,2.688,7.886,2.312,10.573-0.839c2.688-3.151,2.313-7.885-0.839-10.573
		c-73.803-62.957-153.555-82.47-189.636-46.404c-0.003,0.003-0.006,0.005-0.009,0.008C48.928,85.123,40.324,188.935,90.22,265.476
		c-8.706,13.233-8.984,30.323-1.09,43.787l-11.955,45.347H62.954c-4.142,0-7.5,3.358-7.5,7.5s3.358,7.5,7.5,7.5h0.11L41.833,445.39
		c-0.633,2.26-0.172,4.686,1.246,6.555c1.418,1.87,3.629,2.968,5.976,2.968h140c2.347,0,4.558-1.098,5.976-2.968
		c1.418-1.87,1.879-4.295,1.246-6.555l-21.231-75.781h0.11c4.142,0,7.5-3.358,7.5-7.5s-3.358-7.5-7.5-7.5h-14.21l-7.266-27.767
		c30.471,18.45,65.489,28.311,102.024,28.311c52.754,0,102.351-20.544,139.654-57.847
		C431.437,261.229,411.925,181.471,348.963,107.661z M116.052,297.307c5.667,5.667,11.621,10.941,17.823,15.821
		c-9.387,3.378-20.287,1.277-27.723-6.159c-7.453-7.453-9.544-18.385-6.133-27.786C104.932,285.467,110.271,291.525,116.052,297.307
		z M101.208,322.293c3.232,2.244,6.717,3.983,10.348,5.206v27.111H92.688L101.208,322.293z M179.165,439.914H58.945l19.697-70.304
		h4.287c0.01,0,0.02,0.002,0.03,0.002c0.008,0,0.016-0.002,0.023-0.002h72.145c0.008,0,0.016,0.002,0.023,0.002
		c0.01,0,0.021-0.002,0.031-0.002h4.287L179.165,439.914z M126.555,354.609v-24.957c3.988-0.158,7.959-0.894,11.781-2.198
		l7.105,27.155H126.555z M255.705,340.153c-48.748,0-94.577-18.983-129.047-53.453C66.899,226.941,57.337,135.714,97.951,65.872
		c-0.206,13.998,2.485,29.693,8.139,46.653c13.049,39.146,40.443,80.914,77.137,117.607c36.694,36.694,78.461,64.088,117.606,77.137
		c16.36,5.453,31.548,8.159,45.167,8.159c0.542,0,1.071-0.022,1.608-0.03C320.011,331.538,288.522,340.153,255.705,340.153z"/>
    <path d="M250.401,152.35c-2.929,2.929-2.929,7.678,0,10.606c1.465,1.465,3.384,2.197,5.304,2.197c1.919,0,3.839-0.732,5.304-2.197
		l84.006-84.006c2.989,1.429,6.274,2.208,9.685,2.208c6.01,0,11.66-2.34,15.91-6.59c8.771-8.773,8.771-23.047,0-31.82
		c-4.25-4.25-9.9-6.59-15.91-6.59s-11.66,2.341-15.909,6.59c-4.25,4.25-6.591,9.9-6.591,15.911c0,3.411,0.779,6.696,2.208,9.685
		L250.401,152.35z M349.398,53.355c1.416-1.417,3.3-2.197,5.303-2.197s3.887,0.78,5.303,2.197c2.925,2.924,2.925,7.683,0,10.607
		c-1.416,1.417-3.299,2.196-5.303,2.196c-2.003,0-3.884-0.779-5.301-2.194c-0.001-0.001-0.001-0.001-0.002-0.002
		c-0.001-0.001-0.002-0.002-0.003-0.003c-1.415-1.416-2.194-3.299-2.194-5.301C347.2,56.655,347.981,54.772,349.398,53.355z"/>
</g>
    <g>
</g>
    <g>
</g>
    <g>
</g>
    <g>
</g>
    <g>
</g>
    <g>
</g>
    <g>
</g>
    <g>
</g>
    <g>
</g>
    <g>
</g>
    <g>
</g>
    <g>
</g>
    <g>
</g>
    <g>
</g>
    <g>
</g>
</svg>
