<svg version="1.1" id="Capa_1" xmlns="http://www.w3.org/2000/svg" xmlns:xlink="http://www.w3.org/1999/xlink" x="0px" y="0px"
     viewBox="0 0 454.9 454.9" style="enable-background:new 0 0 454.9 454.9;" xml:space="preserve">
<style type="text/css">
	.st0{fill:none;stroke:#f5222d;stroke-width:10;stroke-miterlimit:10;}
	.st1{fill:none;stroke:#FFFFFF;stroke-width:25;stroke-linejoin:round;stroke-miterlimit:10;}
	.st2{fill:none;stroke:#f5222d;stroke-width:10;stroke-linejoin:round;stroke-miterlimit:10;}
</style>
    <g>
	<path d="M327.9,148.1c-1.9-2.2-5.2-2.5-7.4-0.6c-2.2,1.9-2.5,5.2-0.6,7.4c39.9,46.8,54.1,97.9,33.1,118.9
		c-11.1,11.1-30.9,12.7-55.6,4.5c-26-8.7-53.8-27-78.5-51.6c-24.6-24.6-43-52.5-51.6-78.5c-8.2-24.7-6.7-44.5,4.5-55.6
		c21-21,72.1-6.8,118.9,33.1c2.2,1.9,5.5,1.6,7.4-0.6c1.9-2.2,1.6-5.5-0.6-7.4c-51.8-44.2-107.8-57.9-133.2-32.6c0,0,0,0,0,0
		c-47.1,47.1-53.2,120-18.1,173.8c-6.1,9.3-6.3,21.3-0.8,30.7l-8.4,31.8h-10c-2.9,0-5.3,2.4-5.3,5.3s2.4,5.3,5.3,5.3h0.1l-14.9,53.2
		c-0.4,1.6-0.1,3.3,0.9,4.6c1,1.3,2.5,2.1,4.2,2.1h98.3c1.6,0,3.2-0.8,4.2-2.1c1-1.3,1.3-3,0.9-4.6L205.8,332h0.1
		c2.9,0,5.3-2.4,5.3-5.3s-2.4-5.3-5.3-5.3h-10l-5.1-19.5c21.4,13,46,19.9,71.6,19.9c37,0,71.9-14.4,98.1-40.6
		C385.8,255.9,372.1,199.9,327.9,148.1z M164.4,281.3c4,4,8.2,7.7,12.5,11.1c-6.6,2.4-14.2,0.9-19.5-4.3c-5.2-5.2-6.7-12.9-4.3-19.5
		C156.6,272.9,160.3,277.2,164.4,281.3z M153.9,298.8c2.3,1.6,4.7,2.8,7.3,3.7v19H148L153.9,298.8z M208.7,381.4h-84.4l13.8-49.4h3
		c0,0,0,0,0,0c0,0,0,0,0,0h50.7c0,0,0,0,0,0c0,0,0,0,0,0h3L208.7,381.4z M171.7,321.5V304c2.8-0.1,5.6-0.6,8.3-1.5l5,19.1H171.7z
		 M262.4,311.3c-34.2,0-66.4-13.3-90.6-37.5c-42-42-48.7-106-20.2-155.1c-0.1,9.8,1.7,20.8,5.7,32.8c9.2,27.5,28.4,56.8,54.2,82.6
		c25.8,25.8,55.1,45,82.6,54.2c11.5,3.8,22.2,5.7,31.7,5.7c0.4,0,0.8,0,1.1,0C307.6,305.3,285.5,311.3,262.4,311.3z"/>
        <path d="M258.7,179.5c-2.1,2.1-2.1,5.4,0,7.4c1,1,2.4,1.5,3.7,1.5c1.3,0,2.7-0.5,3.7-1.5l59-59c2.1,1,4.4,1.6,6.8,1.6
		c4.2,0,8.2-1.6,11.2-4.6c6.2-6.2,6.2-16.2,0-22.3c-3-3-7-4.6-11.2-4.6s-8.2,1.6-11.2,4.6c-3,3-4.6,7-4.6,11.2
		c0,2.4,0.5,4.7,1.6,6.8L258.7,179.5z M328.2,110c1-1,2.3-1.5,3.7-1.5s2.7,0.5,3.7,1.5c2.1,2.1,2.1,5.4,0,7.4c-1,1-2.3,1.5-3.7,1.5
		c-1.4,0-2.7-0.5-3.7-1.5c0,0,0,0,0,0s0,0,0,0c-1-1-1.5-2.3-1.5-3.7C326.7,112.3,327.2,111,328.2,110z"/>
</g>
    <circle class="st0" cx="227.5" cy="227.5" r="218.3"/>
    <line class="st1" x1="81.3" y1="381.4" x2="367.3" y2="72.6"/>
    <line class="st2" x1="77.3" y1="385.8" x2="373.8" y2="65.6"/>
</svg>
