<?xml version="1.0" encoding="utf-8"?>
<!-- Generator: Adobe Illustrator 21.0.0, SVG Export Plug-In . SVG Version: 6.00 Build 0)  -->
<svg version="1.1" id="Layer_1" xmlns="http://www.w3.org/2000/svg" xmlns:xlink="http://www.w3.org/1999/xlink" x="0px" y="0px"
	 viewBox="0 0 40 32" style="enable-background:new 0 0 40 32;" xml:space="preserve">
<style type="text/css">
	.st0{fill:url(#SVGID_1_);}
</style>
<g id="Gradient_outline">
	
		<linearGradient id="SVGID_1_" gradientUnits="userSpaceOnUse" x1="7.6936" y1="25.625" x2="13.1175" y2="25.625" gradientTransform="matrix(8 0 0 -8 -63 221)">
		<stop  offset="0" style="stop-color:#4FDED1"/>
		<stop  offset="1" style="stop-color:#E992EB"/>
	</linearGradient>
	<path class="st0" d="M33.2,15l-2-7.2H33v2c0,0.4,0.3,0.7,0.7,0.7h2.6c0.4,0,0.7-0.3,0.7-0.7V5.9c0-1.1-0.9-2-2-2H24.5
		c-0.4,0-0.7,0.3-0.7,0.7v2.6c0,0.4,0.3,0.7,0.7,0.7h2.8l0.3,1.2l-2.4,2.7H15.2l-0.7-1.3h0.2c1.1,0,2-0.9,2-2s-0.9-2-2-2H9.6
		c-1.1,0-2,0.9-2,2s0.9,2,2,2h0.9l4.5,9.1h-1.8c-1.1-3.4-4.7-5.3-8.2-4.3s-5.3,4.7-4.3,8.2s4.7,5.3,8.2,4.3c2-0.6,3.6-2.2,4.3-4.3
		h2.1c1.1,1.9,3.4,2.5,5.3,1.4c1.5-0.9,2.3-2.6,1.8-4.3l6.3-7.4l0.8,2.9c-3,1.9-3.9,5.9-2,9c1.9,3,5.9,3.9,9,2c3-1.9,3.9-5.9,2-9
		C37.3,16.2,35.4,15.1,33.2,15L33.2,15z M7,26.7c-2.9,0-5.2-2.3-5.2-5.2c0-2.9,2.3-5.2,5.2-5.2c2.1,0,4,1.3,4.8,3.3h-1.4
		c-1.1-1.9-3.5-2.5-5.3-1.4c-1.9,1.1-2.5,3.5-1.4,5.3c1.1,1.9,3.5,2.5,5.3,1.4c0.6-0.3,1.1-0.8,1.4-1.4h1.4C11,25.4,9.1,26.7,7,26.7
		z M7,23.5h1.7C7.6,24.4,6,24.3,5,23.2c-0.9-1.1-0.8-2.7,0.2-3.7c1-0.9,2.5-0.9,3.4,0H7c-0.4,0-0.7,0.3-0.7,0.7v2.6
		C6.3,23.2,6.6,23.5,7,23.5z M14.9,22.2H7.6v-1.3h7.2C14.8,21.3,14.8,21.7,14.9,22.2z M25.2,6.6V5.3h9.8c0.4,0,0.7,0.3,0.7,0.7v3.3
		h-1.3v-2c0-0.4-0.3-0.7-0.7-0.7H25.2z M24.1,13.1L23,14.4h-6.5l-0.7-1.3H24.1z M21.8,15.7l-1.9,2.2c-0.4-0.1-0.8-0.2-1.2-0.2
		c-0.2,0-0.4,0-0.6,0l-1-2H21.8z M9.6,9.2c-0.4,0-0.7-0.3-0.7-0.7s0.3-0.7,0.7-0.7h5.2c0.4,0,0.7,0.3,0.7,0.7s-0.3,0.7-0.7,0.7H9.6z
		 M12,10.5h1.1l3.8,7.6c-0.3,0.2-0.6,0.4-0.8,0.6L12,10.5z M18.7,24.1c-1.4,0-2.6-1.1-2.6-2.6c0-0.6,0.2-1.1,0.5-1.6l0,0l0,0
		c0.9-1.1,2.5-1.3,3.6-0.4s1.3,2.5,0.4,3.6C20.2,23.8,19.5,24.1,18.7,24.1z M21.9,19.3c-0.2-0.3-0.5-0.6-0.8-0.8l6.9-7.9l0.3,1.1
		L21.9,19.3z M28.7,7.9h1.3l3.5,13h-1.3L28.7,7.9z M34.9,21.4l-0.6-2c1.2,0.8,1.6,2.4,0.8,3.6c-0.8,1.2-2.4,1.6-3.6,0.8
		c-1.2-0.7-1.6-2.2-0.9-3.4l0.4,1.4c0.1,0.3,0.3,0.5,0.6,0.5h2.6c0.4,0,0.7-0.3,0.7-0.6C35,21.5,34.9,21.4,34.9,21.4z M33,26.7
		c-2.9,0-5.2-2.3-5.2-5.2c0-1.6,0.8-3.2,2.1-4.2l0.4,1.4c-0.8,0.7-1.2,1.7-1.2,2.8c0,2.2,1.7,3.9,3.9,3.9c2.2,0,3.9-1.7,3.9-3.9
		c0-1.8-1.2-3.4-3-3.8l-0.4-1.4c2.9,0.3,4.9,2.9,4.6,5.7C37.9,24.7,35.6,26.7,33,26.7z"/>
</g>
</svg>
