<?xml version="1.0" encoding="utf-8"?>
<!-- Generator: Adobe Illustrator 24.0.0, SVG Export Plug-In . SVG Version: 6.00 Build 0)  -->
<svg version="1.1" id="Capa_1" xmlns="http://www.w3.org/2000/svg" xmlns:xlink="http://www.w3.org/1999/xlink" x="0px" y="0px"
	 width="14.6px" height="16.4px" viewBox="0 0 14.4 16.4" style="enable-background:new 0 0 14.4 16.4;" xml:space="preserve">
<style type="text/css">
	.st0{fill:url(#SVGID_1_);}
	.st1{fill:url(#SVGID_2_);}
</style>
<g>
	<linearGradient id="SVGID_1_" gradientUnits="userSpaceOnUse" x1="10.1269" y1="0.8901" x2="9.5063" y2="11.5108">
		<stop  offset="0" style="stop-color:var(--es--svg--end)"/>
		<stop  offset="1" style="stop-color:var(--es--svg--start)"/>
	</linearGradient>
	<path class="st0" d="M9.3,4.4c0.6,0.4,1.4,0.2,1.7-0.4c0.4-0.6,0.2-1.4-0.4-1.7C10,1.8,9.3,2,8.9,2.6C8.5,3.2,8.7,4,9.3,4.4z"/>
	<linearGradient id="SVGID_2_" gradientUnits="userSpaceOnUse" x1="7.8247" y1="0.7556" x2="7.2041" y2="11.3763">
		<stop  offset="0" style="stop-color:var(--es--svg--end)"/>
		<stop  offset="1" style="stop-color:var(--es--svg--start)"/>
	</linearGradient>
	<path class="st1" d="M11.4,8.7c-0.1,0-0.1,0-0.2,0l-0.4-2l0.1-0.1c0.3-0.1,0.5-0.5,0.3-0.8c-0.1-0.3-0.5-0.5-0.8-0.3L9,6.1L9,5.5
		c0.2-0.4,0.2-0.9-0.1-1.2C8.2,3.6,7.5,4,7.2,4.2L4.2,6.6l0,0C4.1,6.7,4,6.8,4,7c-0.1,0.2-0.1,0.3,0,0.5c-0.2,0-0.4,0.2-0.4,0.5
		c0,0.3,0.2,0.5,0.5,0.5L3.8,8.8C3.5,8.7,3.3,8.7,3,8.7c-1.6,0-2.8,1.3-2.8,2.8c0,1.6,1.3,2.8,2.8,2.8c1.6,0,2.8-1.3,2.8-2.8
		c0-1-0.6-1.9-1.4-2.4l0.3-0.7h0.5L7,9.1L6,10.6c-0.2,0.4-0.1,0.9,0.3,1.1c0.1,0.1,0.3,0.1,0.4,0.1c0.3,0,0.6-0.1,0.7-0.4l0.8-1.4
		l0.5,0.3c-0.2,0.3-0.2,0.7-0.2,1.1c0,1.6,1.3,2.8,2.8,2.8c1.6,0,2.8-1.3,2.8-2.8C14.2,10,13,8.7,11.4,8.7z M3,13.6
		c-1.2,0-2.1-0.9-2.1-2.1S1.8,9.4,3,9.4c0.2,0,0.3,0,0.5,0.1l-0.6,1.4c-0.3,0-0.6,0.3-0.6,0.7c0,0.4,0.3,0.7,0.7,0.7
		c0.3,0,0.5-0.1,0.6-0.3h1.5C4.9,12.9,4,13.6,3,13.6z M5.1,11.2H3.6c0,0,0,0,0,0l0.6-1.4C4.6,10.1,5,10.6,5.1,11.2z M8.7,9.5
		l0.2-0.4C9,8.9,9,8.6,9,8.4C8.9,8.2,8.7,8,8.5,7.9L7,7.3l0.9-0.8L7.9,7c0,0.2,0.1,0.3,0.3,0.4c0.1,0.1,0.2,0.1,0.3,0.1
		c0.1,0,0.1,0,0.2,0l1.4-0.5l0.4,1.9C10,9,9.5,9.4,9.2,9.8L8.7,9.5z M10.9,10.8l-1.1-0.7c0.2-0.3,0.5-0.5,0.8-0.6L10.9,10.8z
		 M11.4,13.6c-1.2,0-2.1-0.9-2.1-2.1c0-0.3,0.1-0.5,0.2-0.8l1.3,0.8c0,0,0,0,0,0c0,0.4,0.3,0.7,0.7,0.7c0.4,0,0.7-0.3,0.7-0.7
		c0-0.3-0.2-0.6-0.5-0.6l-0.3-1.5c0,0,0,0,0.1,0c1.2,0,2.1,0.9,2.1,2.1C13.5,12.7,12.6,13.6,11.4,13.6z"/>
</g>
</svg>
