<svg id="icons" xmlns="http://www.w3.org/2000/svg" viewBox="0 0 512.26 371.56"><defs><style>.cls-1{fill:#e6e9ed;}.cls-2{fill:#fff;}.cls-3{fill:#08828e;}.cls-4{fill:#ccd1d9;}.cls-5{fill:#2fafbc;}.cls-6{fill:#7cd0d8;}</style></defs><title>cancled</title><path class="cls-1" d="M248,128v28.16A204.82,204.82,0,0,0,208,152c-5.36,0-10.72.25-16,.64s-10.72,1-16,1.77V128Z" transform="translate(0.26)"/><path class="cls-2" d="M416,24a64,64,0,1,1-55.44,32A64,64,0,0,1,416,24Z" transform="translate(0.26)"/><path class="cls-3" d="M248,163.89a8,8,0,0,1-8-8v-20.2H184v18.38a8,8,0,0,1-16,0V127.69a8,8,0,0,1,8-8h72a8,8,0,0,1,8,8v28.2A8,8,0,0,1,248,163.89Z" transform="translate(0.26)"/><path class="cls-4" d="M408,23.69v-8a8,8,0,0,1,16,0v8" transform="translate(0.26)"/><path class="cls-4" d="M424,151.69v8a8,8,0,1,1-16,0v-8" transform="translate(0.26)"/><path class="cls-4" d="M356.56,62.59l-6.92-4a8,8,0,0,1,7.42-14.18q.3.16.58.34l6.92,4" transform="translate(0.26)"/><path class="cls-4" d="M475.42,112.75l6.93,4a8,8,0,0,1-8,13.86l-6.93-4" transform="translate(0.26)"/><path class="cls-4" d="M364.56,126.61l-6.92,4a8,8,0,0,1-8-13.86l6.92-4" transform="translate(0.26)"/><path class="cls-4" d="M467.42,48.75l6.93-4a8,8,0,0,1,8,13.86l-6.92,4" transform="translate(0.26)"/><path class="cls-3" d="M192,152.33v63.36l-87.92-40.25C128.24,164.69,158.72,154.8,192,152.33Z" transform="translate(0.26)"/><path class="cls-3" d="M208,151.69c88,0,160,64,160,64H192V152.33C197.28,151.92,202.64,151.69,208,151.69Z" transform="translate(0.26)"/><path class="cls-5" d="M496,287.69a8,8,0,0,1-8-8c0-19.64-14-44.23-33.34-47.46a8,8,0,1,1,2.49-15.8l.15,0C484.37,221,504,252.26,504,279.69A8,8,0,0,1,496,287.69Z" transform="translate(0.26)"/><path class="cls-5" d="M496,303.69a8,8,0,0,1-8-8v-16a8,8,0,0,1,16,0v16A8,8,0,0,1,496,303.69Z" transform="translate(0.26)"/><path class="cls-5" d="M504,335.69a8,8,0,0,1-8-8v-16h-8a8,8,0,0,1,0-16h16a8,8,0,0,1,8,8v24A8,8,0,0,1,504,335.69Z" transform="translate(0.26)"/><path class="cls-5" d="M353.38,335.69H158.61a8,8,0,0,1,0-16H353.38a8,8,0,0,1,0,16Z" transform="translate(0.26)"/><path class="cls-5" d="M40,335.69a8,8,0,0,1-4.79-1.59l-32-24a8,8,0,1,1,9.05-13.19q.28.19.54.4l32,24A8,8,0,0,1,40,335.69Z" transform="translate(0.26)"/><path class="cls-5" d="M8,311.69a8,8,0,0,1-8-8v-96a8,8,0,0,1,16,0v96A8,8,0,0,1,8,311.69Z" transform="translate(0.26)"/><path class="cls-5" d="M48,215.69H8a8,8,0,0,1,0-16H48a8,8,0,0,1,0,16Z" transform="translate(0.26)"/><path class="cls-5" d="M368,223.69a8,8,0,0,1-5.3-2c-.7-.62-70.9-62-154.74-62-84.31,0-154.33,53.78-155,54.33a8,8,0,0,1-10.25-12.28l.43-.34c3-2.34,75.1-57.7,164.86-57.7,90,0,162.34,63.36,165.37,66a8,8,0,0,1-5.37,14Z" transform="translate(0.26)"/><path class="cls-5" d="M456,232.39a6.78,6.78,0,0,1-.79,0l-88-8.67a8,8,0,0,1,1.57-15.92l88,8.67a8,8,0,0,1-.78,16Z" transform="translate(0.26)"/><path class="cls-5" d="M57.4,335.69H40a8,8,0,0,1,0-16H57.4a8,8,0,0,1,0,16Z" transform="translate(0.26)"/><path class="cls-5" d="M504,335.69H454.59a8,8,0,0,1,0-16H504a8,8,0,0,1,0,16Z" transform="translate(0.26)"/><path class="cls-6" d="M56,315.69a49.3,49.3,0,0,0,1.44,12H40l-32-24v-96H48s21.76-17,56.08-32.25L192,215.69H368l88,8.72c22.72,3.75,40,31.53,40,55.28v16h8v32H454.56a49.3,49.3,0,0,0,1.44-12,52,52,0,0,0-104,0,49.3,49.3,0,0,0,1.44,12H158.56a49.3,49.3,0,0,0,1.44-12,52,52,0,0,0-104,0Z" transform="translate(0.26)"/><path class="cls-5" d="M192,223.69a8,8,0,0,1-8-8V152.35a8,8,0,1,1,16,0v63.34A8,8,0,0,1,192,223.69Z" transform="translate(0.26)"/><path class="cls-3" d="M488,279.69a8,8,0,0,0,0,16h16v-16Z" transform="translate(0.26)"/><path class="cls-3" d="M108,259.69a56,56,0,0,0-56,56,53.21,53.21,0,0,0,1.54,12.92,56,56,0,0,0,108.91,0A53.3,53.3,0,0,0,164,315.69,56,56,0,0,0,108,259.69Z" transform="translate(0.26)"/><circle class="cls-2" cx="108.26" cy="315.69" r="20"/><path class="cls-3" d="M404,259.69a56,56,0,0,0-56,56,53.2,53.2,0,0,0,1.54,12.92,56,56,0,0,0,108.91,0A53.3,53.3,0,0,0,460,315.69,56,56,0,0,0,404,259.69Z" transform="translate(0.26)"/><path class="cls-2" d="M404,295.69a20,20,0,1,1-20,20A20,20,0,0,1,404,295.69Z" transform="translate(0.26)"/><path class="cls-3" d="M328,88a88,88,0,1,1,88,88A88,88,0,0,1,328,88ZM471.44,56A64.09,64.09,0,1,0,480,88,64.09,64.09,0,0,0,471.44,56Z" transform="translate(0.26)"/><path class="cls-6" d="M424.49,88.18l25.42-25.79a3.82,3.82,0,0,0,0-5.34l-2.23-2.26a3.69,3.69,0,0,0-5.22,0l0,0L417,78.58,391.58,54.79a3.69,3.69,0,0,0-5.22,0l0,0-2.23,2.26a3.81,3.81,0,0,0,0,5.34l25.42,25.79L384.09,114a3.82,3.82,0,0,0,0,5.34l2.23,2.26a3.69,3.69,0,0,0,5.22,0l0,0L417,95.78l25.42,25.79a3.66,3.66,0,0,0,2.63,1.1h0a3.66,3.66,0,0,0,2.63-1.1l2.23-2.26a3.82,3.82,0,0,0,0-5.34Z" transform="translate(0.26)"/></svg>