<svg id="icons" xmlns="http://www.w3.org/2000/svg" viewBox="0 0 512.41 371.56"><defs><style>.cls-1{fill:#e6e9ed;}.cls-2{fill:#fff;}.cls-3{fill:#08828e;}.cls-4{fill:#ccd1d9;}.cls-5{fill:#2fafbc;}.cls-6{fill:#7cd0d8;}</style></defs><title>completed-taxi</title><path class="cls-1" d="M248.26,128v28.16a204.82,204.82,0,0,0-40-4.16c-5.36,0-10.72.25-16,.64s-10.72,1-16,1.77V128Z" transform="translate(0.15)"/><path class="cls-2" d="M416.26,24a64,64,0,1,1-55.44,32A64,64,0,0,1,416.26,24Z" transform="translate(0.15)"/><path class="cls-3" d="M248.26,163.89a8,8,0,0,1-8-8v-20.2h-56v18.38a8,8,0,0,1-16,0V127.69a8,8,0,0,1,8-8h72a8,8,0,0,1,8,8v28.2A8,8,0,0,1,248.26,163.89Z" transform="translate(0.15)"/><path class="cls-4" d="M408.26,23.69v-8a8,8,0,0,1,16,0v8" transform="translate(0.15)"/><path class="cls-4" d="M424.26,151.69v8a8,8,0,1,1-16,0v-8" transform="translate(0.15)"/><path class="cls-4" d="M356.82,62.59l-6.92-4a8,8,0,1,1,7.42-14.18q.3.16.58.34l6.92,4" transform="translate(0.15)"/><path class="cls-4" d="M475.68,112.75l6.93,4a8,8,0,0,1-8,13.86l-6.93-4" transform="translate(0.15)"/><path class="cls-4" d="M364.82,126.61l-6.92,4a8,8,0,0,1-8-13.86l6.92-4" transform="translate(0.15)"/><path class="cls-4" d="M467.68,48.75l6.93-4a8,8,0,0,1,8,13.86l-6.92,4" transform="translate(0.15)"/><path class="cls-3" d="M192.26,152.33v63.36l-87.92-40.25C128.5,164.69,159,154.8,192.26,152.33Z" transform="translate(0.15)"/><path class="cls-3" d="M208.26,151.69c88,0,160,64,160,64h-176V152.33C197.54,151.92,202.9,151.69,208.26,151.69Z" transform="translate(0.15)"/><path class="cls-5" d="M496.26,287.69a8,8,0,0,1-8-8c0-19.64-14-44.23-33.34-47.46a8,8,0,1,1,2.1-15.86l.39.06h.15c27.07,4.57,46.7,35.83,46.7,63.26A8,8,0,0,1,496.26,287.69Z" transform="translate(0.15)"/><path class="cls-5" d="M496.26,303.69a8,8,0,0,1-8-8v-16a8,8,0,0,1,16,0v16A8,8,0,0,1,496.26,303.69Z" transform="translate(0.15)"/><path class="cls-5" d="M504.26,335.69a8,8,0,0,1-8-8v-16h-8a8,8,0,0,1,0-16h16a8,8,0,0,1,8,8v24A8,8,0,0,1,504.26,335.69Z" transform="translate(0.15)"/><path class="cls-5" d="M353.64,335.69H158.87a8,8,0,0,1,0-16H353.64a8,8,0,0,1,0,16Z" transform="translate(0.15)"/><path class="cls-5" d="M40.26,335.69a8,8,0,0,1-4.79-1.59l-32-24a8,8,0,0,1,8.76-13.39l.29.2q.28.19.54.4l32,24a8,8,0,0,1-4.8,14.38Z" transform="translate(0.15)"/><path class="cls-5" d="M8.26,311.69a8,8,0,0,1-8-8v-96a8,8,0,1,1,16,0v96A8,8,0,0,1,8.26,311.69Z" transform="translate(0.15)"/><path class="cls-3" d="M48.26,215.69h-40a8,8,0,0,1,0-16h40a8,8,0,1,1,0,16Z" transform="translate(0.15)"/><path class="cls-5" d="M368.26,223.69a8,8,0,0,1-5.3-2c-.7-.62-70.9-62-154.74-62-84.31,0-154.33,53.78-155,54.33A8,8,0,0,1,43,201.74l.43-.34c3-2.34,75.1-57.7,164.86-57.7,90,0,162.34,63.36,165.37,66a8,8,0,0,1-5.37,14Z" transform="translate(0.15)"/><path class="cls-5" d="M456.26,232.39a6.78,6.78,0,0,1-.79,0l-88-8.67A8,8,0,0,1,369,207.8l88,8.67a8,8,0,0,1-.78,16Z" transform="translate(0.15)"/><path class="cls-5" d="M57.66,335.69H40.26a8,8,0,1,1,0-16h17.4a8,8,0,0,1,0,16Z" transform="translate(0.15)"/><path class="cls-5" d="M504.26,335.69H454.85a8,8,0,0,1,0-16h49.41a8,8,0,0,1,0,16Z" transform="translate(0.15)"/><path class="cls-6" d="M56.26,315.69a49.3,49.3,0,0,0,1.44,12H40.26l-32-24v-96h40s21.76-17,56.08-32.25l87.92,40.25h176l88,8.72c22.72,3.75,40,31.53,40,55.28v16h8v32H454.82a49.3,49.3,0,0,0,1.44-12,52,52,0,0,0-104,0,49.3,49.3,0,0,0,1.44,12H158.82a49.3,49.3,0,0,0,1.44-12,52,52,0,0,0-104,0Z" transform="translate(0.15)"/><path class="cls-5" d="M192.26,223.69a8,8,0,0,1-8-8V152.35a8,8,0,1,1,16,0v63.34A8,8,0,0,1,192.26,223.69Z" transform="translate(0.15)"/><path class="cls-3" d="M488.26,279.69a8,8,0,0,0,0,16h16v-16Z" transform="translate(0.15)"/><path class="cls-3" d="M108.26,259.69a56,56,0,0,0-56,56,53.21,53.21,0,0,0,1.54,12.92,56,56,0,0,0,108.91,0,53.3,53.3,0,0,0,1.55-12.92A56,56,0,0,0,108.26,259.69Z" transform="translate(0.15)"/><circle class="cls-2" cx="108.41" cy="315.69" r="20"/><path class="cls-3" d="M404.26,259.69a56,56,0,0,0-56,56,53.2,53.2,0,0,0,1.54,12.92,56,56,0,0,0,108.91,0,53.3,53.3,0,0,0,1.55-12.92A56,56,0,0,0,404.26,259.69Z" transform="translate(0.15)"/><path class="cls-2" d="M404.26,295.69a20,20,0,1,1-20,20A20,20,0,0,1,404.26,295.69Z" transform="translate(0.15)"/><path class="cls-5" d="M328.26,88a88,88,0,1,1,88,88A88,88,0,0,1,328.26,88ZM471.7,56a64.09,64.09,0,1,0,8.56,32A64.09,64.09,0,0,0,471.7,56Z" transform="translate(0.15)"/><path class="cls-3" d="M410.52,114.25a3.54,3.54,0,0,1-5,.14l-.14-.14L384.87,93a5.8,5.8,0,0,1,0-8l2.57-2.67a5.31,5.31,0,0,1,7.51-.2h0l.2.2L408,95.58l34.59-35.89a5.31,5.31,0,0,1,7.51-.2h0l.2.2,2.57,2.67a5.8,5.8,0,0,1,0,8Z" transform="translate(0.15)"/></svg>