<svg id="dashboard" xmlns="http://www.w3.org/2000/svg" width="36" height="24.545" viewBox="0 0 36 24.545">
  <path id="Path_1" data-name="Path 1" d="M38.494,34.514H5.5l-.225-.552a17.226,17.226,0,0,1,5.829-20.423,18.4,18.4,0,0,1,21.784,0,17.226,17.226,0,0,1,5.829,20.423ZM6.7,32.763H37.3a15.473,15.473,0,0,0-4.276-16.729A16.542,16.542,0,0,0,15.559,13.12,15.757,15.757,0,0,0,5.8,27.509a15.266,15.266,0,0,0,.9,5.254Z" transform="translate(-3.999 -9.968)" />
  <path id="Path_2" data-name="Path 2" d="M34.318,28.234a.843.843,0,0,1-.849-.837,11.761,11.761,0,0,0-9.455-11.471,11.927,11.927,0,0,0-13.323,6.783A11.4,11.4,0,0,0,9.7,27.4a.849.849,0,0,1-1.7,0,13.072,13.072,0,0,1,1.138-5.358,13.63,13.63,0,0,1,15.221-7.747A13.442,13.442,0,0,1,35.167,27.4.843.843,0,0,1,34.318,28.234Zm-9.339,5.861a.843.843,0,0,1-.849-.837,2.547,2.547,0,0,0-5.094,0,.849.849,0,0,1-1.7,0,4.245,4.245,0,0,1,8.49,0A.843.843,0,0,1,24.979,34.095Z" transform="translate(-3.583 -9.549)" />
  <path id="Path_3" data-name="Path 3" d="M26.649,32.478a.848.848,0,0,1-.661-1.374l5.426-6.783a.854.854,0,1,1,1.34,1.06l-5.426,6.783A.848.848,0,0,1,26.649,32.478Z" transform="translate(-6.364 -11.348)" />
  <path id="Path_4" data-name="Path 4" d="M32.395,15.16a15.969,15.969,0,0,1,2.935,15.046,1.769,1.769,0,0,1-1.7,1.217H5.45a15.985,15.985,0,0,0,.8,2.59h31.3A16.062,16.062,0,0,0,32.395,15.16Z" transform="translate(-3.848 -9.906)"  opacity="0.35"/>
</svg>
