<svg xmlns="http://www.w3.org/2000/svg" width="12.063" height="14.853" viewBox="0 0 12.063 14.853">
  <g id="delete" transform="translate(0 0)">
    <path id="Path_84" data-name="Path 84" d="M222.746,154.7a.348.348,0,0,0-.348.348v6.574a.348.348,0,0,0,.7,0v-6.574A.348.348,0,0,0,222.746,154.7Zm0,0" transform="translate(-214.662 -149.322)" fill="var(--es--svg--fill--contrast)"/>
    <path id="Path_85" data-name="Path 85" d="M104.746,154.7a.348.348,0,0,0-.348.348v6.574a.348.348,0,0,0,.7,0v-6.574A.348.348,0,0,0,104.746,154.7Zm0,0" transform="translate(-100.766 -149.322)" fill="var(--es--svg--fill--contrast)"/>
    <path id="Path_86" data-name="Path 86" d="M.985,4.42v8.57a1.919,1.919,0,0,0,.51,1.324,1.713,1.713,0,0,0,1.243.537H9.319a1.713,1.713,0,0,0,1.243-.537,1.919,1.919,0,0,0,.51-1.324V4.42a1.329,1.329,0,0,0-.341-2.613H8.95V1.373A1.366,1.366,0,0,0,7.573,0H4.484A1.366,1.366,0,0,0,3.106,1.373v.435H1.326A1.329,1.329,0,0,0,.985,4.42Zm8.334,9.735H2.738A1.1,1.1,0,0,1,1.68,12.99V4.451h8.7v8.54a1.1,1.1,0,0,1-1.057,1.165ZM3.8,1.373A.67.67,0,0,1,4.484.694H7.573a.67.67,0,0,1,.682.678v.435H3.8ZM1.326,2.5h9.406a.626.626,0,1,1,0,1.252H1.326a.626.626,0,1,1,0-1.252Zm0,0" transform="translate(0.003 0.002)" fill="var(--es--svg--fill--contrast)"/>
    <path id="Path_87" data-name="Path 87" d="M163.746,154.7a.348.348,0,0,0-.348.348v6.574a.348.348,0,1,0,.7,0v-6.574A.348.348,0,0,0,163.746,154.7Zm0,0" transform="translate(-157.714 -149.322)" fill="var(--es--svg--fill--contrast)"/>
  </g>
</svg>
