<svg xmlns="http://www.w3.org/2000/svg" width="32.369" height="24.545" viewBox="0 0 32.369 24.545">
  <g id="Dispute" transform="translate(-61.5 -812)">
    <path id="Path_38" data-name="Path 38" d="M46.4,25.578l-5.329,6.131a.542.542,0,0,0,.408.9l2.966.008-4.631,4.561a.542.542,0,0,0,.761.773l5.57-5.485a.542.542,0,0,0-.379-.928l-3.1-.008L47.22,26.29a.542.542,0,0,0-.819-.711Z" transform="translate(34.293 789.988)" />
    <path id="Path_39" data-name="Path 39" d="M35.478,16.039H18.141a2.09,2.09,0,0,0-2.106,2.069v4.982L7.32,23.1A2.09,2.09,0,0,0,5.214,25.17v9.09A2.089,2.089,0,0,0,7.32,36.328H9.173v3.715a.542.542,0,0,0,.9.406l4.654-4.12h9.553a2.089,2.089,0,0,0,2.105-2.067V29.266h1.681l4.654,4.12a.542.542,0,0,0,.9-.406V29.266h1.853A2.089,2.089,0,0,0,37.583,27.2v-9.09A2.089,2.089,0,0,0,35.478,16.039ZM36.5,27.2a1,1,0,0,1-1.022.983h-2.4a.542.542,0,0,0-.542.542v3.053l-3.906-3.459a.542.542,0,0,0-.359-.136H25.845a.542.542,0,0,0-.542.542V34.26a1,1,0,0,1-1.021.983H14.523a.542.542,0,0,0-.359.136l-3.906,3.458V35.786a.542.542,0,0,0-.542-.542h-2.4A1,1,0,0,1,6.3,34.26V25.17a1,1,0,0,1,1.022-.985l9-.01h.261a.542.542,0,0,0,.542-.542V18.109a1,1,0,0,1,1.022-.985H35.478a1,1,0,0,1,1.022.985V27.2Z" transform="translate(56.286 795.961)" />
  </g>
</svg>
