<svg xmlns="http://www.w3.org/2000/svg" width="12.896" height="12.895" viewBox="0 0 12.896 12.895">
  <g id="edit" transform="translate(0 0)">
    <path id="Path_83" data-name="Path 83" d="M12.061.863a2.844,2.844,0,0,0-4.026,0L.655,8.241a.369.369,0,0,0-.1.212L0,12.5a.368.368,0,0,0,.1.311.375.375,0,0,0,.261.11.3.3,0,0,0,.049,0l2.44-.33a.372.372,0,0,0-.1-.736L.8,12.118l.382-2.825,2.973,2.973a.375.375,0,0,0,.261.11.364.364,0,0,0,.261-.11l7.381-7.378a2.843,2.843,0,0,0,0-4.026Zm-3.883.907L9.418,3.009,2.683,9.744,1.444,8.5ZM4.422,11.48,3.211,10.269,9.946,3.534l1.212,1.212Zm7.252-7.265L8.709,1.25a2.106,2.106,0,0,1,2.965,2.965Z" transform="translate(0 -0.028)" fill="var(--es--svg--fill--contrast)"/>
  </g>
</svg>
