<svg xmlns="http://www.w3.org/2000/svg" width="13" height="14.358" viewBox="0 0 13 14.358">
  <path id="funnel" d="M30.263.59A15.29,15.29,0,0,0,25.809,0a15.29,15.29,0,0,0-4.454.59c-1.338.426-2.046,1.02-2.046,1.719a7.187,7.187,0,0,0,2.015,4.407,21.869,21.869,0,0,0,3.152,3v4.3a.352.352,0,0,0,.352.352h.006l.1,0a3.025,3.025,0,0,0,2.1-.893.352.352,0,0,0,.1-.248v-3.5a21.868,21.868,0,0,0,3.152-3,7.186,7.186,0,0,0,2.015-4.407c0-.7-.707-1.293-2.046-1.719Zm-8.695.67A14.58,14.58,0,0,1,25.809.7a14.58,14.58,0,0,1,4.241.556c.945.3,1.556.712,1.556,1.048s-.611.748-1.556,1.048a14.58,14.58,0,0,1-4.241.556,14.58,14.58,0,0,1-4.241-.556c-.945-.3-1.556-.712-1.556-1.048S20.623,1.561,21.568,1.26Zm5.006,8a.352.352,0,0,0-.136.278v3.524a2.32,2.32,0,0,1-1.258.571V9.54a.352.352,0,0,0-.136-.278c-1.288-1-4.029-3.345-4.816-5.716a5.622,5.622,0,0,0,1.127.481,15.289,15.289,0,0,0,4.454.59,15.289,15.289,0,0,0,4.454-.59,5.624,5.624,0,0,0,1.127-.481C30.6,5.917,27.862,8.262,26.574,9.262Z" transform="translate(-19.309)" fill="var(--es--svg--fill--primary)"/>
</svg>
