<svg version="1.0" xmlns="http://www.w3.org/2000/svg"
 width="1024.000000pt" height="1024.000000pt" viewBox="0 0 1024.000000 1024.000000"
 preserveAspectRatio="xMidYMid meet">
<metadata>
Created by potrace 1.14, written by Peter Selinger 2001-2017
</metadata>
<g transform="translate(0.000000,1024.000000) scale(0.100000,-0.100000)"
fill="#000000" stroke="none">
<path d="M0 5120 l0 -5120 5120 0 5120 0 0 5120 0 5120 -5120 0 -5120 0 0
-5120z m656 2240 c15 -6 54 -32 88 -59 63 -49 338 -240 385 -267 14 -8 64 -39
111 -69 76 -50 262 -162 440 -266 175 -101 688 -359 717 -359 12 0 162 -79
214 -112 188 -122 382 -450 443 -751 16 -76 46 -540 46 -709 0 -73 -3 -89 -17
-96 -10 -5 -67 -12 -128 -16 -96 -6 -181 -21 -387 -67 -123 -28 -377 -7 -523
42 -174 59 -337 181 -430 321 -32 49 -36 63 -31 93 4 19 11 35 16 35 6 0 10 5
10 10 0 6 -13 10 -28 10 -37 0 -132 25 -202 54 -159 64 -336 228 -477 441 -82
125 -108 181 -108 236 0 83 38 97 136 50 61 -30 61 -26 -1 16 -206 138 -411
496 -411 718 0 126 38 148 134 79 29 -21 68 -50 87 -63 l35 -26 -35 40 c-81
91 -155 244 -186 381 -14 66 -15 89 -5 163 18 128 37 181 67 181 7 0 25 -5 40
-10z m9062 -22 c7 -15 19 -74 28 -132 15 -104 15 -106 -10 -205 -35 -138 -101
-268 -185 -365 -24 -27 -22 -27 29 9 30 21 64 47 75 57 12 9 36 23 54 29 47
16 62 -2 68 -85 6 -66 -12 -182 -28 -192 -5 -3 -9 -13 -9 -23 0 -46 -104 -248
-176 -342 -58 -76 -138 -154 -199 -195 -27 -19 -44 -34 -38 -34 7 0 14 4 18 9
3 5 28 17 56 26 66 22 95 11 105 -40 24 -128 -283 -530 -501 -656 -86 -51
-186 -85 -272 -95 -48 -6 -52 -8 -39 -23 29 -32 29 -66 0 -112 -156 -248 -445
-390 -791 -391 -67 0 -144 5 -170 11 -206 46 -292 61 -388 67 -60 4 -117 10
-126 15 -9 5 -19 21 -22 36 -9 49 31 704 49 783 51 232 193 506 337 653 77 77
164 129 377 223 170 74 511 247 625 315 17 10 51 30 76 43 72 39 257 151 449
274 172 110 257 168 421 287 130 94 163 103 187 53z m-4098 -803 c9 -11 -3
-105 -64 -467 -126 -755 -195 -1182 -191 -1186 2 -2 40 6 84 17 44 12 91 21
105 21 47 0 49 -13 29 -226 l-18 -197 -45 -33 c-56 -42 -189 -107 -255 -125
-30 -8 -97 -14 -170 -14 -146 0 -201 20 -269 96 -93 103 -93 192 -2 784 36
237 70 457 76 490 21 125 120 785 120 801 0 10 7 26 17 36 15 17 37 18 293 18
232 0 280 -2 290 -15z m-732 -115 c3 -62 -72 -525 -89 -546 -12 -15 -49 -16
-415 -12 l-402 5 -7 -68 c-11 -110 11 -103 -311 -100 -191 2 -283 6 -293 14
-17 14 -14 47 34 347 19 124 40 259 46 300 19 122 -62 111 738 108 l696 -3 3
-45z m1391 -384 c8 -9 18 -160 31 -437 11 -233 23 -453 26 -489 6 -60 7 -63
19 -40 57 110 188 522 250 785 21 88 45 168 53 178 14 16 38 17 291 15 l276
-3 3 -49 c7 -110 -205 -728 -369 -1074 -228 -482 -502 -795 -848 -969 -149
-75 -386 -142 -504 -143 -51 0 -58 3 -66 23 -4 12 -30 120 -57 240 -36 164
-45 222 -38 235 13 19 27 23 184 51 183 32 365 99 356 130 -2 9 -53 356 -112
772 -93 644 -107 759 -95 773 12 14 47 16 301 16 233 0 290 -3 299 -14z
m-1635 -392 c22 -8 20 -45 -10 -209 -14 -77 -32 -180 -41 -230 -8 -49 -20 -96
-27 -104 -9 -12 -67 -13 -358 -8 -192 3 -348 4 -348 1 0 -3 -25 -156 -55 -339
-30 -184 -55 -342 -55 -352 0 -9 -7 -25 -17 -35 -15 -17 -37 -18 -288 -18
-236 0 -274 2 -286 16 -14 17 -20 -29 116 859 30 198 58 371 63 385 l7 25 415
5 c755 10 868 10 884 4z"/>
<path d="M609 7263 c-7 -32 -13 -92 -13 -133 1 -159 96 -373 220 -492 168
-161 889 -505 1289 -615 66 -18 74 -93 9 -93 -38 0 -387 120 -514 177 -30 14
-73 32 -95 41 -83 33 -377 183 -505 257 -127 73 -322 202 -399 263 l-34 27 6
-90 c15 -231 188 -527 392 -669 61 -43 81 -53 195 -99 272 -109 682 -228 900
-262 71 -11 98 -47 67 -89 -12 -16 -20 -17 -83 -8 -281 43 -896 237 -1136 358
-26 13 -52 24 -58 24 -21 0 -8 -53 33 -132 69 -132 132 -215 251 -333 153
-151 277 -222 421 -240 28 -4 61 -9 75 -13 14 -3 161 -7 328 -8 217 -2 307 -6
318 -15 18 -15 18 -53 0 -68 -20 -16 -333 -25 -496 -13 -74 5 -139 6 -144 1
-13 -12 7 -46 63 -113 219 -258 559 -354 948 -265 76 17 199 36 272 42 l135
12 -2 60 c-11 274 -35 629 -48 688 -50 243 -178 494 -328 643 -73 73 -186 142
-311 192 -116 46 -450 213 -659 329 -323 179 -751 451 -983 624 -50 38 -93 69
-96 69 -3 0 -11 -26 -18 -57z"/>
<path d="M9608 7277 c-66 -54 -314 -226 -424 -294 -10 -7 -82 -51 -159 -99
-77 -48 -156 -97 -175 -109 -40 -25 -87 -53 -145 -85 -22 -13 -92 -52 -154
-87 -135 -75 -457 -235 -589 -292 -237 -102 -342 -181 -451 -340 -68 -101
-110 -181 -158 -305 -57 -147 -71 -237 -88 -543 -8 -153 -17 -308 -21 -344
l-6 -66 119 -7 c74 -5 176 -21 273 -42 130 -29 175 -35 280 -36 262 -1 480 84
645 251 64 65 117 139 112 155 -2 7 -39 9 -108 6 -57 -3 -198 -5 -312 -4 -194
1 -210 2 -228 21 -17 17 -18 23 -8 46 7 15 15 27 18 27 3 0 143 2 311 4 168 1
316 5 330 9 14 3 48 8 75 11 197 25 425 198 598 453 83 122 139 253 109 253
-5 0 -45 -16 -88 -36 -148 -68 -473 -186 -654 -237 -199 -56 -385 -101 -473
-113 -53 -7 -77 5 -77 41 0 31 28 52 80 60 79 12 428 97 472 114 13 5 50 17
83 26 70 20 245 82 360 128 261 103 437 305 550 632 9 28 19 88 22 135 l6 84
-49 -37 c-296 -223 -730 -454 -1164 -620 -118 -45 -312 -107 -335 -107 -30 0
-49 24 -41 53 5 20 29 31 176 80 461 153 1046 448 1184 597 109 118 198 327
198 467 1 70 -20 193 -32 193 -5 0 -32 -19 -62 -43z"/>
<path d="M5218 6502 l-146 -3 -11 -67 c-6 -37 -36 -229 -66 -427 -30 -198 -84
-553 -121 -790 -93 -596 -93 -675 -1 -773 84 -88 298 -98 473 -21 68 31 174
98 174 112 0 7 7 75 15 152 8 77 15 152 15 167 l0 27 -42 -15 c-37 -13 -200
-46 -204 -41 -2 2 23 153 166 1022 55 330 102 614 106 632 l6 32 -108 -2 c-60
-1 -175 -3 -256 -5z"/>
<path d="M3628 6423 l-117 -4 -5 -27 c-12 -55 -96 -611 -96 -631 0 -21 1 -21
252 -19 l252 3 8 35 c4 19 10 56 13 83 l6 47 415 0 c324 0 414 3 414 13 0 6
18 120 39 252 21 132 37 243 34 248 -4 7 -956 7 -1215 0z"/>
<path d="M5720 5988 c0 -14 207 -1462 216 -1514 5 -29 3 -31 -73 -67 -99 -46
-221 -81 -359 -103 -60 -9 -111 -19 -113 -20 -3 -3 89 -426 95 -432 6 -8 227
40 301 64 43 14 132 52 198 84 457 221 774 681 1071 1555 48 139 134 423 134
439 0 3 -112 6 -249 6 -229 0 -250 -1 -255 -17 -3 -10 -25 -101 -50 -203 -79
-326 -188 -644 -291 -850 l-43 -85 -5 85 c-4 47 -11 202 -17 345 -6 143 -16
365 -22 493 l-12 232 -263 0 c-204 0 -263 -3 -263 -12z"/>
<path d="M4418 5605 c-3 -3 -235 -5 -516 -5 -301 0 -513 -4 -517 -10 -5 -8
-185 -1155 -185 -1179 0 -8 79 -11 250 -11 138 0 250 2 250 6 0 3 12 76 26
162 14 86 40 251 59 366 19 114 35 209 37 210 2 2 160 -1 351 -6 192 -5 351
-7 353 -5 6 6 84 427 84 455 0 21 -3 22 -93 22 -52 0 -96 -2 -99 -5z"/>
</g>
</svg>