<svg version="1.0" xmlns="http://www.w3.org/2000/svg"
 width="146.000000pt" height="125.000000pt" viewBox="0 0 146.000000 125.000000"
 preserveAspectRatio="xMidYMid meet">
<metadata>
Created by potrace 1.14, written by Peter Selinger 2001-2017
</metadata>
<g transform="translate(0.000000,125.000000) scale(0.100000,-0.100000)"
fill="#000000" stroke="none">
<path d="M0 650 l0 -600 24 11 c31 15 43 43 67 157 23 113 23 122 4 122 -9 0
-15 9 -15 25 0 18 5 25 20 25 11 0 23 8 26 18 20 62 30 75 62 89 22 9 48 12
69 8 37 -7 37 -8 22 -36 -7 -14 -16 -18 -30 -14 -26 9 -69 -20 -69 -45 0 -16
7 -20 36 -20 29 0 35 -3 30 -16 -3 -9 -6 -19 -6 -24 0 -5 -17 -10 -37 -12
l-37 -3 -22 -116 c-30 -158 -50 -193 -117 -209 -17 -4 298 -8 701 -9 l732 -1
-1 243 -1 242 -28 -135 c-16 -74 -29 -159 -29 -187 -1 -50 -3 -53 -26 -53 -16
0 -25 6 -25 15 0 14 -3 13 -25 -1 -29 -19 -89 -21 -110 -4 -24 20 -33 72 -24
131 14 91 70 144 149 143 l49 0 6 49 c6 43 11 51 36 60 l29 11 0 368 0 368
-327 0 c-320 0 -326 0 -309 -19 10 -10 18 -34 18 -52 1 -33 1 -33 -96 -112
-23 -19 -40 -45 -52 -80 -22 -70 -36 -84 -69 -69 -33 15 -32 43 4 84 43 50 54
77 62 146 4 38 13 70 24 82 18 20 15 20 -348 20 l-367 0 0 -600z m667 153 c56
-23 83 -28 153 -27 50 0 108 7 141 17 64 20 97 13 123 -25 35 -49 9 -119 -50
-134 -13 -3 -55 1 -91 10 -92 23 -177 22 -244 -4 -128 -49 -194 -45 -229 13
-32 51 -26 103 14 143 43 43 89 45 183 7z m-236 -411 c12 -5 14 -13 8 -30 -7
-17 -14 -21 -32 -17 -17 5 -33 -1 -55 -20 -33 -28 -44 -55 -63 -152 -11 -59
-13 -63 -39 -63 l-27 0 23 118 c13 64 26 127 29 139 5 19 12 23 45 21 22 -1
43 2 47 5 8 9 43 8 64 -1z m202 -23 c21 -27 22 -58 1 -88 -15 -21 -22 -23 -90
-19 l-73 3 -6 -31 c-11 -63 22 -93 83 -73 20 6 42 16 49 21 12 9 15 6 26 -24
13 -38 -118 -68 -171 -39 -56 30 -53 153 5 222 51 61 138 74 176 28z m241 10
c32 -25 36 -77 6 -104 -15 -14 -32 -17 -89 -13 l-70 4 -6 -33 c-7 -37 7 -69
33 -77 20 -7 77 8 97 24 13 11 17 8 28 -22 13 -38 -118 -67 -171 -39 -33 18
-47 75 -33 138 26 113 134 178 205 122z m251 -4 c30 -29 31 -57 7 -175 -17
-81 -19 -85 -46 -88 -23 -3 -27 0 -22 15 15 54 38 194 33 207 -15 39 -78 -3
-101 -67 -8 -23 -20 -68 -26 -99 -10 -52 -14 -58 -36 -58 -29 0 -29 -4 1 150
14 69 25 127 25 129 0 2 15 1 33 -2 19 -3 40 -1 48 4 25 16 59 10 84 -16z"/>
<path d="M520 332 l-24 -19 36 -7 c43 -8 70 1 66 23 -5 23 -51 25 -78 3z"/>
<path d="M770 332 l-24 -19 36 -7 c43 -8 70 1 66 23 -5 23 -51 25 -78 3z"/>
<path d="M1292 334 c-12 -8 -29 -28 -37 -44 -16 -32 -23 -100 -11 -118 13 -22
54 -13 79 17 26 32 53 121 43 146 -7 20 -46 19 -74 -1z"/>
</g>
</svg>