<svg xmlns="http://www.w3.org/2000/svg" width="25.026" height="25.026" viewBox="0 0 25.026 25.026">
  <g id="Heat_Map" data-name="Heat Map" transform="translate(-65.5 -468)">
    <path id="Path_21" data-name="Path 21" d="M318.608,208.842a1.976,1.976,0,1,0,1.976,1.976A1.975,1.975,0,0,0,318.608,208.842Zm0,2.964a.988.988,0,1,1,.988-.988A.989.989,0,0,1,318.608,211.806Z" transform="translate(-235.656 269.366)" fill="var(--es--svg--fill--secondary)"/>
    <g id="heatmap" transform="translate(65.5 468)">
      <path id="Path_22" data-name="Path 22" d="M12.514,0A12.442,12.442,0,0,0,7.239,1.171,4.305,4.305,0,0,0,4.282,0,4.245,4.245,0,0,0,0,4.2,6.3,6.3,0,0,0,1.192,7.192,12.511,12.511,0,1,0,12.514,0ZM.989,4.2A3.252,3.252,0,0,1,4.282.988,3.252,3.252,0,0,1,7.575,4.2c0,1.773-3.293,5.351-3.293,5.351S.989,5.971.989,4.2Zm0,8.314a11.452,11.452,0,0,1,.862-4.364,25.673,25.673,0,0,0,1.7,2.07l.727.79.727-.79C5.6,9.573,8.562,6.252,8.562,4.2A4.111,4.111,0,0,0,7.9,1.959,11.445,11.445,0,0,1,10.4,1.184l-.268.481a1.514,1.514,0,0,0-.179.734,1.571,1.571,0,0,0,.27.9h0l.751,1.055a1.037,1.037,0,0,1,.132.3,1.463,1.463,0,0,1,.057.383.719.719,0,0,1-.01.127h0l-.195,1.062a.952.952,0,0,1-.438.565L9.2,7.4A1.155,1.155,0,0,0,8.64,8.935L9.2,10.149a1.307,1.307,0,0,1,.084.289,2.1,2.1,0,0,1,.035.372,1.265,1.265,0,0,1-.024.263l-.007.027-.152.659a1.168,1.168,0,0,1-.479.625l-.976.518a.643.643,0,0,1-.284.057.706.706,0,0,1-.352-.083l-.8-.514a1.582,1.582,0,0,0-.85-.232,1.559,1.559,0,0,0-.79.2l-.8.473a1.067,1.067,0,0,0-.374.366.969.969,0,0,0-.139.5,1.029,1.029,0,0,0,.3.714h0l.447.467a.746.746,0,0,1,.14.246,1.01,1.01,0,0,1,.062.331.509.509,0,0,1-.009.1l-.089.427a1.642,1.642,0,0,1-.184.439,1.652,1.652,0,0,1-.287.379l-.4.363a10.422,10.422,0,0,0-.866.9A11.476,11.476,0,0,1,.989,12.513Zm8.28,9.112L8.752,23.4a11.578,11.578,0,0,1-5.808-4.476l.144-.178a9.479,9.479,0,0,1,.838-.879l.4-.363a2.835,2.835,0,0,0,.779-1.35l.09-.432a1.5,1.5,0,0,0,.029-.3,1.975,1.975,0,0,0-.123-.67,1.689,1.689,0,0,0-.354-.59L4.3,13.7h0l-.017-.024.024-.019.8-.473h0a.6.6,0,0,1,.285-.063.624.624,0,0,1,.315.075l.8.514a1.657,1.657,0,0,0,.887.241,1.605,1.605,0,0,0,.747-.172l.976-.518a2.129,2.129,0,0,0,.979-1.276l.159-.693a2.237,2.237,0,0,0,.048-.478,3.085,3.085,0,0,0-.051-.552,2.236,2.236,0,0,0-.158-.522L9.537,8.522h0l-.014-.065a.168.168,0,0,1,.1-.153l1.321-.61a1.918,1.918,0,0,0,.995-1.284l.195-1.062h0a1.717,1.717,0,0,0,.026-.3,2.418,2.418,0,0,0-.1-.655,1.986,1.986,0,0,0-.277-.6l-.751-1.055h0a.61.61,0,0,1-.086-.331A.549.549,0,0,1,11,2.148l.623-1.12c.3-.024.591-.04.892-.04a11.542,11.542,0,0,1,11.376,9.686l-.441-.245a2.253,2.253,0,0,0-.586-.214,2.876,2.876,0,0,0-.627-.073,1.928,1.928,0,0,0-.337.027l-.091.016a4.938,4.938,0,0,0-9.294,2.328c0,1.665,1.634,4.071,2.894,5.678l-.754.848a.863.863,0,0,1-.291.192.987.987,0,0,1-.364.087h-.031l-1.44-.111-.036-.008h0v0l0-.03v0l.257-.856a1.263,1.263,0,0,0,.052-.362,1.448,1.448,0,0,0-.164-.661,1.33,1.33,0,0,0-.468-.518l-.578-.361a1.193,1.193,0,0,0-.635-.179,1.219,1.219,0,0,0-.976.48L8.233,19.035a1.154,1.154,0,0,0,.23,1.613l.64.48a.43.43,0,0,1,.121.163.594.594,0,0,1,.056.241A.346.346,0,0,1,9.269,21.624ZM21.4,12.513c0,2.182-3.951,6.585-3.951,6.585s-3.951-4.4-3.951-6.585a3.951,3.951,0,1,1,7.9,0ZM12.514,24.038A11.5,11.5,0,0,1,9.7,23.688l.519-1.79a1.324,1.324,0,0,0,.05-.366,1.571,1.571,0,0,0-.147-.655,1.407,1.407,0,0,0-.426-.54l-.64-.48a.163.163,0,0,1-.065-.133.158.158,0,0,1,.032-.1l1.751-2.335a.235.235,0,0,1,.186-.085.21.21,0,0,1,.111.029l.577.361a.351.351,0,0,1,.115.135.468.468,0,0,1,.053.206.278.278,0,0,1-.01.078l-.256.854a1.084,1.084,0,0,0-.048.319.99.99,0,0,0,.272.687,1.041,1.041,0,0,0,.678.312l1.44.111c.036,0,.071,0,.107,0a1.947,1.947,0,0,0,.755-.167,1.818,1.818,0,0,0,.638-.442l.645-.726c.3.362.544.637.681.789l.735.819.735-.82c.7-.782,4.2-4.809,4.2-7.245a4.918,4.918,0,0,0-.2-1.382l.044,0a1.909,1.909,0,0,1,.408.048,1.305,1.305,0,0,1,.326.115l1.051.584c.012.211.019.423.019.637A11.539,11.539,0,0,1,12.514,24.038Z" transform="translate(-0.001 0)" fill="var(--es--svg--fill--secondary)"/>
      <path id="Path_23" data-name="Path 23" d="M94.172,252.305h0Z" transform="translate(-89.569 -239.973)" fill="var(--es--svg--fill--secondary)"/>
    </g>
    <path id="Path_24" data-name="Path 24" d="M57.225,47.151A1.646,1.646,0,1,0,58.872,48.8,1.645,1.645,0,0,0,57.225,47.151Zm0,2.3a.659.659,0,1,1,.659-.659A.659.659,0,0,1,57.225,49.456Z" transform="translate(12.638 423.154)" fill="var(--es--svg--fill--secondary)"/>
  </g>
</svg>
