<svg xmlns="http://www.w3.org/2000/svg" xmlns:xlink="http://www.w3.org/1999/xlink" width="18.333" height="9.747" viewBox="0 0 18.333 9.747">
  <defs>
    <linearGradient id="linear-gradient" x1="0.5" x2="0.5" y2="1" gradientUnits="objectBoundingBox">
      <stop offset="0" stop-color="var(--es--svg--end)"/>
      <stop offset="1" stop-color="var(--es--svg--start)"/>
    </linearGradient>
  </defs>
  <g id="kms" transform="translate(0 -55.477)">
    <path id="Path_145" data-name="Path 145" d="M15.7,58.218a.6.6,0,0,0-.048-.056.6.6,0,0,0-.056-.048,9.136,9.136,0,0,0-6.425-2.636h0a9.136,9.136,0,0,0-6.425,2.636.574.574,0,0,0-.056.048.584.584,0,0,0-.048.056A9.136,9.136,0,0,0,0,64.644a.58.58,0,0,0,.58.58H17.753a.58.58,0,0,0,.58-.58A9.136,9.136,0,0,0,15.7,58.218ZM11.5,64.063h-.391a2.032,2.032,0,0,0-.618-.955l.171-.347A2.413,2.413,0,0,1,11.5,64.063ZM9.436,62.631a2.027,2.027,0,0,0-2.215,1.432H6.829a2.406,2.406,0,0,1,2.781-1.787ZM12.3,64.063a3.187,3.187,0,0,0-1.281-2.008L12.4,59.241a.58.58,0,0,0-1.041-.513l-1.4,2.835a3.183,3.183,0,0,0-3.925,2.5H1.182a7.972,7.972,0,0,1,1.931-4.653l.4.4a.58.58,0,1,0,.821-.821l-.4-.4a7.972,7.972,0,0,1,4.653-1.931v.661a.58.58,0,1,0,1.161,0v-.661A7.972,7.972,0,0,1,14.4,58.59l-.4.4a.58.58,0,0,0,.821.821l.4-.4a7.972,7.972,0,0,1,1.931,4.653H12.3Z" fill="url(#linear-gradient)"/>
  </g>
</svg>
