<?xml version="1.0" encoding="utf-8"?>
<!-- Generator: Adobe Illustrator 17.0.0, SVG Export Plug-In . SVG Version: 6.00 Build 0)  -->
<!DOCTYPE svg PUBLIC "-//W3C//DTD SVG 1.1//EN" "http://www.w3.org/Graphics/SVG/1.1/DTD/svg11.dtd">
<svg version="1.1" id="Layer_1" xmlns="http://www.w3.org/2000/svg" xmlns:xlink="http://www.w3.org/1999/xlink" x="0px" y="0px"
	 width="1200px" height="1000px" viewBox="0 0 1200 1000" enable-background="new 0 0 1200 1000" xml:space="preserve">
<g>
	<path fill="var(--es--svg--fill--logo)" d="M368.693,391.808c-5.899-1.561-10.88-5.417-13.956-10.674c-3.03-5.279-3.856-11.546-2.295-17.422
		l20.268-75.541h-52.587l-74.922,202.293l-74.348-202.293H43v356.934h91.999V404.272l89.888,240.833h40.674l90.392-240.833v204.634
		c1.836-2.456,3.696-4.66,5.371-6.68c1.01-1.216,1.997-2.41,3.007-3.65c0.069-0.115,5.21-6.335,5.21-6.335
		c0.436-0.528,0.895-1.033,1.377-1.538c0,0,5.738-5.807,5.876-5.922c1.033-1.01,2.043-2.043,3.099-3.076
		c2.732-2.709,5.784-5.761,9.205-8.699c16.182-14.163,35.992-26.764,58.9-37.415V413.063L368.693,391.808z M442.926,636.749
		c-3.328,2.823-6.404,5.601-9.319,8.355h14.392v-12.211C446.255,634.156,444.579,635.441,442.926,636.749z"/>
	<path fill="var(--es--svg--fill--logo)" d="M1029.17,294.598l-74.921,202.293l-74.371-202.293H752.024v50.935l11.569,3.099
		c12.257,3.282,19.511,15.861,16.229,28.119l-25.364,94.662c-0.551,2.043-1.4,3.971-2.433,5.761v174.335h92.023v-240.81
		l89.887,240.81h40.628l90.439-240.81v240.81H1157V294.598H1029.17z"/>
	<g>
		<path d="M438.818,541.835h4.637v-2.364C441.916,540.182,440.355,540.986,438.818,541.835z"/>
	</g>
	<g>
		<path fill="--es--svg--fill--transparent" d="M360.29,829.715c0.934,4.559,1.432,6.99,1.432,6.99s-1.219-2.162-3.505-6.215
			c-1.114-2.037-2.488-4.55-4.103-7.505c-0.787-1.489-1.722-3.039-2.555-4.784c-0.723-1.818-1.492-3.751-2.304-5.793
			c-1.6-4.11-3.51-8.702-5.358-13.798c-1.498-5.116-2.923-10.734-4.539-16.78c-1.498-6.061-2.095-12.673-3.257-19.653
			c-0.694-3.495-0.553-7.103-0.785-10.809c-0.147-3.723-0.296-7.532-0.45-11.422c-0.037-3.896,0.411-7.847,0.631-11.91
			c0.38-4.038,0.329-8.253,1.105-12.4c1.482-8.297,2.557-17.087,5.295-25.711c4.346-17.619,12.411-35.249,22.534-52.429
			c2.747-4.179,5.517-8.392,8.308-12.636c2.881-4.189,6.352-7.978,9.56-12.023l4.946-6l5.491-5.562
			c3.755-3.633,7.375-7.481,11.393-10.902c15.934-13.969,34.507-25.138,53.987-34.186l14.709-5.446
			c2.417-0.811,4.333-1.762,7.158-2.458l8.115-2.154l8.112-2.092l4.056-0.996l3.964-0.594c5.272-0.743,10.528-1.485,15.764-2.223
			c5.245-0.593,10.53-0.57,15.748-0.854l4.639-0.114l31.299-116.811l-197.055-52.801l22.361-83.452l252.22-242.839l119.216,31.944
			L527.624,309.174l69.424,18.602l22.925-85.557l105.191,28.186l-22.925,85.557l55.403,14.845l-25.367,94.672l-55.403-14.845
			l-31.634,118.059c4.237,2.668,8.3,5.469,12.318,8.078c3.553,2.277,6.589,5.202,9.792,7.692c3.107,2.629,6.302,4.998,9.115,7.696
			c2.729,2.778,5.402,5.497,8.014,8.155c2.538,2.713,5.271,5.073,7.341,7.976c4.29,5.63,8.694,10.6,12.089,15.84
			c3.294,5.323,6.418,10.206,9.116,14.805c2.413,4.795,4.422,9.284,6.313,13.248c0.929,1.984,1.807,3.861,2.634,5.627
			c0.716,1.82,1.223,3.609,1.779,5.22c1.058,3.229,1.958,5.976,2.688,8.203c1.38,4.433,2.116,6.798,2.116,6.798
			s-1.435-2.032-4.127-5.843c-1.306-1.895-2.916-4.232-4.81-6.979c-0.954-1.358-1.924-2.841-3.05-4.364
			c-1.202-1.472-2.479-3.035-3.828-4.688c-2.713-3.275-5.594-6.944-8.886-10.765c-3.643-3.573-7.376-7.527-11.41-11.647
			c-4.115-4.046-8.983-7.858-13.762-12.092c-4.904-4.114-10.615-7.772-16.168-11.913c-2.906-1.914-6.041-3.628-9.114-5.504
			c-3.155-1.755-6.106-3.921-9.538-5.423c-6.811-3.057-13.399-6.942-20.922-9.336c-14.44-6.081-30.627-9.587-47.197-12.085
			c-16.701-2.333-34.073-1.744-51.414,0.146c-4.3,0.767-8.617,1.537-12.947,2.309l-3.235,0.579l-3.01,0.86l-6.045,1.625l-6.07,1.571
			c-1.952,0.406-4.482,1.612-6.697,2.38l-12.84,4.854c-16.144,7.374-31.486,16.392-45.168,27.321
			c-13.283,11.317-25.572,23.611-35.338,37.362c-9.527,13.791-18.063,27.988-23.525,42.68c-3.409,7.125-5.073,14.591-7.524,21.647
			c-1.254,3.531-1.694,7.167-2.574,10.668c-0.729,3.526-1.64,6.983-2.232,10.414c-0.783,6.884-2.016,13.553-2.383,19.946
			c-0.184,6.383-0.73,12.542-0.603,18.313c0.249,5.761,0.567,11.191,0.682,16.292c0.524,4.961,1.211,9.52,1.734,13.721
			c0.278,2.108,0.541,4.103,0.788,5.98c0.342,1.887,0.779,3.653,1.123,5.298C359.182,824.648,359.794,827.446,360.29,829.715z"/>
	</g>
	<g>
		<path fill="--es--svg--fill--transparent" d="M599.197,600.161c-96.131-25.731-195.063,31.355-220.794,127.486
			c-25.777,96.246,31.309,195.063,127.486,220.794c96.2,25.8,195.017-31.24,220.817-127.44
			C752.437,724.824,695.397,625.938,599.197,600.161z M674.761,784.527L613.107,768c-11.592-3.122-23.574,3.787-26.695,15.402
			c-3.099,11.661,3.81,23.597,15.425,26.695l61.631,16.481c-21.669,46.275-70.193,74.302-121.128,69.918l16.527-61.631
			c3.098-11.546-3.742-23.551-15.402-26.65c-11.615-3.099-23.551,3.81-26.695,15.425l-16.481,61.563
			c-46.23-21.6-74.279-70.193-69.872-121.059l61.562,16.481c11.615,3.145,23.551-3.764,26.65-15.356
			c3.099-11.615-3.742-23.597-15.402-26.695l-61.54-16.481c21.622-46.229,70.193-74.279,121.036-69.941l-16.481,61.585
			c-3.168,11.661,3.787,23.597,15.402,26.695c11.615,3.099,23.551-3.741,26.65-15.402l16.527-61.585
			C651.05,685.113,679.076,733.684,674.761,784.527z"/>
	</g>
</g>
</svg>
