<svg xmlns="http://www.w3.org/2000/svg" xmlns:xlink="http://www.w3.org/1999/xlink" width="9.096" height="13.177" viewBox="0 0 9.096 13.177">
  <defs>
    <linearGradient id="linear-gradient" x1="0.5" x2="0.5" y2="1" gradientUnits="objectBoundingBox">
      <stop offset="0" stop-color="var(--es--svg--end)"/>
      <stop offset="1" stop-color="var(--es--svg--start)"/>
    </linearGradient>
  </defs>
  <path id="smartphone" d="M10.123,1.269h4.469a.708.708,0,0,1,.709.709V8.89a.709.709,0,0,1-.207.5h0a.712.712,0,0,1-.5.212H10.123a.7.7,0,0,1-.5-.212A.051.051,0,0,1,9.6,9.371a.707.707,0,0,1-.191-.481V1.978a.711.711,0,0,1,.212-.5.7.7,0,0,1,.5-.207ZM8.518,0H16.2a.709.709,0,0,1,.5.207c0,.008.013.013.016.021a.707.707,0,0,1,.191.481V12.467a.708.708,0,0,1-.709.709H8.518a.709.709,0,0,1-.5-.207h0a.709.709,0,0,1-.207-.5V.709a.709.709,0,0,1,.207-.5h0A.71.71,0,0,1,8.518,0ZM16.2.585H8.518a.113.113,0,0,0-.087.037.113.113,0,0,0-.037.087V12.467a.113.113,0,0,0,.037.087h0a.113.113,0,0,0,.087.037H16.2a.119.119,0,0,0,.087-.037.129.129,0,0,0,.037-.087V.709A.132.132,0,0,0,16.292.63L16.284.622A.12.12,0,0,0,16.2.585Zm-3.839,9.623a.942.942,0,0,1,.663.278l.016.016a.936.936,0,0,1-.017,1.306h0v0h0a.928.928,0,0,1-.659.274.942.942,0,0,1-.663-.278v0a.941.941,0,0,1,.664-1.6Zm.249.688a.358.358,0,0,0-.249-.1.355.355,0,0,0-.249.605h0a.35.35,0,0,0,.5,0h0a.341.341,0,0,0,.1-.249.346.346,0,0,0-.091-.241l-.013-.012Zm1.986-9.043H10.123a.128.128,0,0,0-.129.124V8.889a.134.134,0,0,0,.029.083l.008.008a.14.14,0,0,0,.091.037h4.469a.128.128,0,0,0,.087-.037h0a.137.137,0,0,0,.033-.091V1.978a.119.119,0,0,0-.037-.087.129.129,0,0,0-.087-.037Z" transform="translate(-7.809)" fill="url(#linear-gradient)"/>
</svg>
