<svg xmlns="http://www.w3.org/2000/svg" width="14.915" height="17.897" viewBox="0 0 14.915 17.897">
  <g id="Group_207" data-name="Group 207" transform="translate(-1296 -221)">
    <g id="Group_73" data-name="Group 73" transform="translate(1296 223.61)">
      <g id="Group_72" data-name="Group 72">
        <path id="Path_65" data-name="Path 65" d="M57.519,87.152l-1.281-2.134a6.344,6.344,0,0,1-.9-3.262V79.887a5.22,5.22,0,0,0-10.44,0v1.869a6.344,6.344,0,0,1-.9,3.262l-1.281,2.134a.372.372,0,0,0,.32.565H57.2a.373.373,0,0,0,.32-.565Zm-13.83-.181.942-1.57a7.083,7.083,0,0,0,1.01-3.645V79.887a4.474,4.474,0,1,1,8.948,0v1.869A7.089,7.089,0,0,0,55.6,85.4l.943,1.57H43.689Z" transform="translate(-42.657 -74.667)" fill="var(--es--svg--fill--contrast)"/>
      </g>
    </g>
    <g id="Group_75" data-name="Group 75" transform="translate(1301.966 221)">
      <g id="Group_74" data-name="Group 74">
        <path id="Path_66" data-name="Path 66" d="M214.824,0a1.493,1.493,0,0,0-1.491,1.491V2.983a.373.373,0,0,0,.746,0V1.491a.746.746,0,0,1,1.491,0V2.983a.373.373,0,0,0,.746,0V1.491A1.493,1.493,0,0,0,214.824,0Z" transform="translate(-213.333)" fill="var(--es--svg--fill--contrast)"/>
      </g>
    </g>
    <g id="Group_77" data-name="Group 77" transform="translate(1301.593 235.914)">
      <g id="Group_76" data-name="Group 76">
        <path id="Path_67" data-name="Path 67" d="M206.144,426.863a.373.373,0,0,0-.644.377,1.119,1.119,0,1,1-1.937,0,.373.373,0,0,0-.644-.377,1.865,1.865,0,1,0,3.226,0Z" transform="translate(-202.666 -426.68)" fill="var(--es--svg--fill--contrast)"/>
      </g>
    </g>
  </g>
</svg>
