<svg id="Layer_1" data-name="Layer 1" xmlns="http://www.w3.org/2000/svg" viewBox="0 0 512 266.82"><defs><style>.cls-1{fill:#08828e;}.cls-2{fill:#7cd0d8;}.cls-3{fill:#55c5d8;}.cls-4{fill:#2fafbc;}.cls-5{fill:#f5f7fa;}</style></defs><title>ongoing-taxi</title><path class="cls-1" d="M277.4,36H170.59V10.67A10.68,10.68,0,0,1,181.26,0h85.47A10.68,10.68,0,0,1,277.4,10.67Z"/><path class="cls-2" d="M74.44,106.59S113.94,31.92,224,31.92s149.36,74.7,149.36,74.7c128,0,128,0,128,117.29h-448c-19.7.16-42.67-21.09-42.67-21.09v-74.9L32,106.59Z"/><path class="cls-1" d="M366.23,95.92c-15.62-20.66-58.39-64-142.23-64S97.22,75.28,81.57,95.92Z"/><rect class="cls-3" x="192.01" y="36.44" width="21.33" height="59.48"/><path class="cls-4" d="M53.14,234.59c-23.17,0-47.06-21.5-49.7-23.94A10.72,10.72,0,0,1,0,202.81v-74.9a10.68,10.68,0,0,1,3.13-7.5L24.47,99.08A10.68,10.68,0,0,1,32,95.92H68.48a155.05,155.05,0,0,1,32.86-35C124.23,42.84,164.09,21.3,224,21.3S323.72,42.86,346.57,61A154.82,154.82,0,0,1,379.34,96c62.7,0,94.73.52,113.2,17.45C512,131.26,512,162.22,512,223.91a10.67,10.67,0,0,1-10.65,10.69H53.14Zm-31.8-36.68c7.3,5.84,21.3,15.34,31.8,15.34H490.66c-.06-47-.86-73.4-12.53-84.1-12.94-11.86-45.56-11.86-104.78-11.86a10.69,10.69,0,0,1-9.44-5.7c-.08-.14-9.53-17.53-31.41-34.61C303.25,54.15,266.75,42.59,224,42.59c-102.45,0-139.76,68.29-140.14,69a10.66,10.66,0,0,1-9.42,5.67h-38L21.34,132.34Z"/><path class="cls-1" d="M117.34,160.16a53.33,53.33,0,1,0,53.33,53.33v0A53.37,53.37,0,0,0,117.34,160.16Z"/><path class="cls-1" d="M394.66,160.16A53.33,53.33,0,1,0,448,213.48h0A53.37,53.37,0,0,0,394.66,160.16Z"/><path class="cls-5" d="M106.67,213.47a10.67,10.67,0,1,0,10.68-10.66h0A10.68,10.68,0,0,0,106.67,213.47Z"/><path class="cls-1" d="M170.73,138.67a10.67,10.67,0,1,0,10.67,10.67,10.67,10.67,0,0,0-10.67-10.67Z"/><path class="cls-1" d="M192.06,160a10.67,10.67,0,1,0,10.67,10.67h0A10.66,10.66,0,0,0,192.07,160Z"/><path class="cls-1" d="M213.4,138.67a10.67,10.67,0,1,0,10.66,10.68h0A10.67,10.67,0,0,0,213.4,138.67Z"/><path class="cls-1" d="M234.73,160a10.67,10.67,0,1,0,10.67,10.67h0A10.67,10.67,0,0,0,234.73,160Z"/><path class="cls-1" d="M256.06,138.67a10.67,10.67,0,1,0,10.67,10.67,10.67,10.67,0,0,0-10.67-10.67Z"/><path class="cls-1" d="M277.4,160a10.67,10.67,0,1,0,10.66,10.68v0A10.67,10.67,0,0,0,277.4,160Z"/><path class="cls-1" d="M298.73,138.67a10.67,10.67,0,1,0,10.67,10.67,10.67,10.67,0,0,0-10.67-10.67Z"/><path class="cls-1" d="M320.06,160a10.67,10.67,0,1,0,10.67,10.67h0A10.66,10.66,0,0,0,320.07,160Z"/><path class="cls-1" d="M341.4,138.67a10.67,10.67,0,1,0,10.66,10.68h0A10.67,10.67,0,0,0,341.4,138.67Z"/><path class="cls-5" d="M384,213.47a10.67,10.67,0,1,0,10.68-10.66h0A10.68,10.68,0,0,0,384,213.47Z"/><path class="cls-1" d="M509.07,148.9a78.56,78.56,0,0,0-6-21H469.19a10.66,10.66,0,0,0,0,21.33h37.23A10.4,10.4,0,0,0,509.07,148.9Z"/><path class="cls-1" d="M32,95.92a10.68,10.68,0,0,0-7.55,3.13L3.13,120.41A10.68,10.68,0,0,0,0,127.92H32a10.66,10.66,0,0,0,10.66-10.66h0V95.92Z"/></svg>