<svg id="Layer_1" data-name="Layer 1" xmlns="http://www.w3.org/2000/svg" viewBox="0 0 512 234.33"><defs><style>.cls-1{fill:#08828e;}.cls-2{fill:#2fafbc;}</style></defs><title>reserved</title><path class="cls-1" d="M358.4,191.67A42.67,42.67,0,1,0,401.07,149h0A42.72,42.72,0,0,0,358.4,191.67Zm17.07,0a25.6,25.6,0,1,1,25.6,25.6,25.6,25.6,0,0,1-25.6-25.6Z" transform="translate(0 -0.01)"/><path class="cls-2" d="M0,157.54v34.13a8.54,8.54,0,0,0,8.53,8.5H42.67c5.06,0,9.15-3.35,8.53-8.53a59.73,59.73,0,0,1,119.46-.23h0v.14a8.59,8.59,0,0,0,8.54,8.62H332.8c5.06,0,9.15-3.35,8.53-8.53a59.73,59.73,0,1,1,119.46-.23v.14a8.59,8.59,0,0,0,8.53,8.63h34.13a8.54,8.54,0,0,0,8.55-8.51V157.54a8.54,8.54,0,0,0-8.53-8.53l-1-21.19c-.63-13.47-7.37-26.12-18.71-33.39-21.91-14-59.17-21.66-95.67-22.19C339.09,12.9,262.68-10.05,161,4l-.31.05c-55.08,9.65-80,38.88-98.14,69.59L14.37,89.71a8.53,8.53,0,0,0-5.84,8.1V149A8.53,8.53,0,0,0,0,157.54ZM238.93,22.47a4.35,4.35,0,0,1,4.39-4.31h.31C290,22.27,327.69,37.71,357.3,64.7a4.29,4.29,0,0,1-2.82,7.5H243.2a4.27,4.27,0,0,1-4.27-4.27h0Zm-102.86,9a4.27,4.27,0,0,1,2.77-4.08,143.75,143.75,0,0,1,24.63-6.51A392.41,392.41,0,0,1,217.63,17a4.28,4.28,0,0,1,4.24,4.31V67.91a4.27,4.27,0,0,1-4.27,4.26H140.68a4.27,4.27,0,0,1-4.27-4.22ZM88.5,65.3a112.83,112.83,0,0,1,23.73-23.88,4.3,4.3,0,0,1,6.89,3.35l.22,23.13a4.27,4.27,0,0,1-4.23,4.31H91.87A4.29,4.29,0,0,1,88.5,65.3Z" transform="translate(0 -0.01)"/><path class="cls-1" d="M68.26,191.67A42.67,42.67,0,1,0,110.93,149h0A42.72,42.72,0,0,0,68.26,191.67Zm17.07,0a25.6,25.6,0,1,1,25.6,25.6A25.6,25.6,0,0,1,85.33,191.67Z" transform="translate(0 -0.01)"/></svg>