 <svg xmlns="http://www.w3.org/2000/svg" width="75.169" height="81.984" viewBox="0 0 75.169 81.984">
                        <g id="Group_1" data-name="Group 1" transform="translate(0.016)">
                            <g id="Group_427" data-name="Group 427" transform="translate(0 0)">
                                <path id="Subtraction_1" data-name="Subtraction 1" d="M61.477,74.961h-5a5.67,5.67,0,0,0-.958-2.739L29.72,34.073H40.438a5.679,5.679,0,1,0,0-11.358H4.014L4,11.358A11.386,11.386,0,0,1,15.387,0H67.766A11.385,11.385,0,0,1,79.152,11.358V63.6a11.354,11.354,0,0,1-5.993,10,6.878,6.878,0,0,0-11.682,1.353Zm-17.843,0H23.953a6.879,6.879,0,0,0-12.2-.591A11.351,11.351,0,0,1,4,63.6l-.017-29.53H5.139l10.829.083a6.07,6.07,0,0,0,.819,1.1l26.846,39.7Z" transform="translate(-3.999)" fill="var(--es--svg--fill--secondary)"/>
                                <circle id="Ellipse_35" data-name="Ellipse 35" cx="4.384" cy="4.384" r="4.384" transform="translate(59.257 73.216)" fill="var(--es--svg--fill--secondary)"/>
                                <circle id="Ellipse_37" data-name="Ellipse 37" cx="4.384" cy="4.384" r="4.384" transform="translate(9.111 73.216)" fill="var(--es--svg--fill--secondary)"/>
                            </g>
                        </g>
                    </svg>