<svg id="Capa_1" data-name="Capa 1" xmlns="http://www.w3.org/2000/svg" viewBox="0 0 244.25 213"><defs><style>.cls-1{fill:#08828e;}.cls-2{fill:#2fafbc;}</style></defs><title>total-income</title><path class="cls-1" d="M243.43,110.57,223.07,63.49a10.6,10.6,0,0,0-9.4-6.36H175.26a10.56,10.56,0,0,0-9.7,6.37l-3.87,9c-4-4.56-10.22-7.75-15.92-7.75h-96c-7.65,0-16.24,5.76-19.14,12.83l-10.22,24.9-9.75-2.69a9.79,9.79,0,0,0-2.6-.36C3.39,99.43,0,103,0,107.91v5.82a10.41,10.41,0,0,0,10.4,10.4h1.12l-1.66,4A78,78,0,0,0,5,153v49.63A10.41,10.41,0,0,0,15.4,213H29a10.41,10.41,0,0,0,10.4-10.4v-12.4H156.21V202.6a10.41,10.41,0,0,0,10.4,10.4h13.58a10.41,10.41,0,0,0,9.83-7,11.55,11.55,0,0,0,1.54-5.76V139.79h4.93v60.43a11.63,11.63,0,0,0,23.26,0V109.06L224,119a10.56,10.56,0,1,0,19.39-8.38ZM27.86,118.48,43.38,80.7A13.45,13.45,0,0,1,54.86,73h85.85a13.45,13.45,0,0,1,11.48,7.7l2.89,7-9.87,22.84a10.56,10.56,0,1,0,19.39,8.38l1.7-3.92,1.41,3.45c1.74,4.23-.58,7.7-5.16,7.7H33C28.45,126.18,26.13,122.72,27.86,118.48Zm34.63,47.79a4.17,4.17,0,0,1-4.16,4.16H28.86a4.17,4.17,0,0,1-4.16-4.16V152.14A4.17,4.17,0,0,1,28.86,148H58.33a4.17,4.17,0,0,1,4.16,4.16Zm103.92,4.16H136.95a4.17,4.17,0,0,1-4.16-4.16V152.14a4.17,4.17,0,0,1,4.16-4.16h29.47a4.09,4.09,0,0,1,1.88.47V170a4.1,4.1,0,0,1-1.88.47Z" transform="translate(-0.01 -0.01)"/><path class="cls-2" d="M193,53.25a26.62,26.62,0,1,0-26.62-26.62h0A26.65,26.65,0,0,0,193,53.25Z" transform="translate(-0.01 -0.01)"/></svg>