<svg xmlns="http://www.w3.org/2000/svg" xmlns:xlink="http://www.w3.org/1999/xlink" width="11.354" height="14.915" viewBox="0 0 11.354 14.915">
  <defs>
    <linearGradient id="linear-gradient" x1="0.5" x2="0.5" y2="1" gradientUnits="objectBoundingBox">
      <stop offset="0" stop-color="--es--svg--end"/>
      <stop offset="1" stop-color="--es--svg--start"/>
    </linearGradient>
  </defs>
  <g id="user" transform="translate(-61.127)">
    <g id="Group_194" data-name="Group 194" transform="translate(61.127)">
      <path id="Path_146" data-name="Path 146" d="M70.254,9.685a1.968,1.968,0,0,1-1.984-1.79,3.365,3.365,0,0,0,.775-.767,4.66,4.66,0,0,0,.84-2.19.334.334,0,0,0,.084-.119,3.614,3.614,0,0,0,.28-1.407A3.3,3.3,0,0,0,67.086,0a2.937,2.937,0,0,0-1.317.313A2.314,2.314,0,0,0,65.3.4a2.616,2.616,0,0,0-1.642,1.5,3.715,3.715,0,0,0-.184,2.439,3.929,3.929,0,0,0,.17.517.334.334,0,0,0,.079.115,4.193,4.193,0,0,0,1.611,2.93,1.968,1.968,0,0,1-1.984,1.793,2.308,2.308,0,0,0-2.226,2.3v2.591a.336.336,0,0,0,.336.336H72.145a.336.336,0,0,0,.336-.336V11.988A2.308,2.308,0,0,0,70.254,9.685ZM65.49,1.041a1.655,1.655,0,0,1,.385-.062.335.335,0,0,0,.141-.038,2.282,2.282,0,0,1,1.07-.269,2.628,2.628,0,0,1,2.492,2.741c0,.045,0,.09,0,.135a1.464,1.464,0,0,0-1.046-.439H66.24a.625.625,0,0,1-.581-.392.412.412,0,0,0-.78.051,3.115,3.115,0,0,1-.76,1.36A2.49,2.49,0,0,1,65.49,1.041ZM65.2,6.85a3.949,3.949,0,0,1-.814-2.044,3.805,3.805,0,0,0,.977-1.369,1.31,1.31,0,0,0,.1.087,1.287,1.287,0,0,0,.776.257h2.289a.8.8,0,0,1,.728.472s0,0,0,.007c0,1.9-1.1,3.438-2.452,3.438A2.1,2.1,0,0,1,65.2,6.85Zm.772,1.372a2.444,2.444,0,0,0,1.669,0,2.63,2.63,0,0,0,.977,1.583l-1.763,2.511a.058.058,0,0,1-.1,0L64.993,9.806A2.63,2.63,0,0,0,65.969,8.222Zm5.84,6.022H61.8V11.988a1.635,1.635,0,0,1,1.634-1.634,2.879,2.879,0,0,0,.98-.207l1.8,2.557a.73.73,0,0,0,.6.31h0a.73.73,0,0,0,.6-.31L69.2,10.148a2.765,2.765,0,0,0,.979.207,1.635,1.635,0,0,1,1.634,1.634Z" transform="translate(-61.127 0)" fill="url(#linear-gradient)"/>
    </g>
  </g>
</svg>
