<svg xmlns="http://www.w3.org/2000/svg" width="40" height="32" viewBox="0 0 480.006 480.364">
  <g id="outline" transform="translate(-16 -15.833)">
    <path id="Path_10611" data-name="Path 10611" d="M464,389.6V360a7.6,7.6,0,0,0-.294-1.459,7.82,7.82,0,0,0-.057-.893L372.671,61.932A31.613,31.613,0,0,0,376,48a32,32,0,1,0-47.9,27.606l58.708,190.708v.038l8.8,28.585-72.194,50.509A8,8,0,0,0,320,352v64H156.639A88.266,88.266,0,0,0,72,352a87.21,87.21,0,0,0-52.8,17.6,8.008,8.008,0,0,0-.852,12.055L34.9,398.2A55.888,55.888,0,1,0,122.4,464H344a24.027,24.027,0,0,0,24-24V379.684l42.489-36.38L416,361.21V389.6a56,56,0,1,0,48,0ZM346.13,79.785A31.635,31.635,0,0,0,360.1,75.5L415.634,256H400.377Zm70.6,229.4-3.983-12.945c-.043-.174-.091-.348-.14-.515L405.3,272h15.25l24.617,80H429.911ZM440,416a23.731,23.731,0,0,0-8,1.474V368h16v49.474A23.731,23.731,0,0,0,440,416Zm8,24a8,8,0,1,1-8-8,8,8,0,0,1,8,8ZM344,32a16,16,0,1,1-16,16A16,16,0,0,1,344,32Zm-8,352h16v32H336ZM64,440a8,8,0,1,1,8,8,8,8,0,0,1-8-8Zm30.526-8H176v16H94.522a22.447,22.447,0,0,0,0-16ZM72,368a72.278,72.278,0,0,1,67.9,48H75.309L36.59,377.282A71.381,71.381,0,0,1,72,368Zm0,112a40.047,40.047,0,0,1-40-40,39.555,39.555,0,0,1,14.2-30.49l11.055,11.055A24.6,24.6,0,0,0,48,440c0,13.234,9.93,24,22.141,24h33.838A39.94,39.94,0,0,1,72,480Zm120-32V432h96v16Zm160-8a8,8,0,0,1-8,8H304V432h48Zm5.039-72H336V356.165l64.549-45.158,4.808,15.623ZM440,480a39.986,39.986,0,0,1-24-71.979V440a24,24,0,0,0,48,0V408.022A39.986,39.986,0,0,1,440,480Z" fill="var(--es--svg--fill--primary)"/>
  </g>
</svg>
