<svg fill="#047480" enable-background="new 0 0 32 32" version="1.1" viewBox="0 0 32 32" xml:space="preserve" xmlns="http://www.w3.org/2000/svg"><rect width="32" height="32" fill="none"/><path d="m7 20c-0.083-4e-3 -1.706 8e-3 -3.448-0.855-1.747-0.829-3.586-2.791-3.552-6.145-0.035-3.353 1.804-5.314 3.551-6.144 1.743-0.863 3.366-0.851 3.449-0.855 0-2e-3 20-2e-3 22 0 1.355-0.035 2.314 0.806 2.645 1.551 0.362 0.742 0.35 1.364 0.356 1.448l-2e-3 4c-5e-3 0.084 8e-3 0.706-0.354 1.446-0.33 0.747-1.289 1.588-2.645 1.553h-18c-1.354 0.035-2.315-0.807-2.645-1.553-0.363-0.739-0.351-1.362-0.355-1.446-0.035-1.353 0.805-2.314 1.553-2.645 0.739-0.362 1.363-0.35 1.446-0.354h16v2h-15.999c0 6e-3 -0.031-2e-3 -0.148 0.016-0.117 0.019-0.274 0.062-0.404 0.128-0.253 0.169-0.414 0.208-0.449 0.854 8e-3 0-2e-3 0.031 0.019 0.148 0.019 0.117 0.062 0.273 0.127 0.405 0.169 0.252 0.208 0.412 0.855 0.447 0.019-2e-3 16-2e-3 18 0 0.5-0.017 0.609-0.136 0.743-0.274 0.126-0.144 0.212-0.399 0.239-0.578 0.02-0.115 0.018-0.147 0.016-0.147l2e-3 -4c-7e-3 0 2e-3 -0.031-0.019-0.148-0.019-0.118-0.062-0.274-0.126-0.404-0.17-0.253-0.209-0.413-0.856-0.448h-22c0 8e-3 -0.282 0-0.772 0.082-0.492 0.081-1.149 0.247-1.78 0.562-1.254 0.672-2.413 1.71-2.448 4.356 0.017 2 0.698 3.046 1.541 3.767 0.847 0.713 1.946 1.033 2.688 1.152 0.489 0.085 0.772 0.083 0.772 0.083h22v1.998h-22z"/></svg>
